<svg width="32" height="32" viewBox="0 0 32 32" fill="none" xmlns="http://www.w3.org/2000/svg">
<g clip-path="url(#clip0)">
<path d="M30.733 7.06072L16.2038 0.0465938C16.075 -0.0155312 15.925 -0.0155312 15.7962 0.0465938L1.26689 7.06072C1.10489 7.13891 1.00195 7.30297 1.00195 7.48284V24.5172C1.00195 24.697 1.10489 24.8611 1.26689 24.9393L15.7961 31.9534C15.8605 31.9845 15.9303 32 16 32C16.0696 32 16.1393 31.9845 16.2038 31.9534L30.733 24.9393C30.895 24.8611 30.998 24.697 30.998 24.5172V7.48291C30.998 7.30291 30.895 7.13897 30.733 7.06072ZM16 0.989281L29.451 7.48284L25.5518 9.36522C25.5271 9.34641 25.5011 9.32903 25.4725 9.31522L12.1128 2.86584L16 0.989281ZM11.0541 3.39584L24.4856 9.87997L21.7347 11.208L8.30877 4.72653L11.0541 3.39584ZM24.7999 10.7692V15.6783L22.2303 16.9188V12.0097L24.7999 10.7692ZM30.0605 24.223L16.4687 30.7844V14.7912L19.7108 13.226C19.9439 13.1135 20.0416 12.8333 19.9291 12.6001C19.8165 12.367 19.5363 12.2692 19.3031 12.3818L16 13.9765L14.7002 13.349C14.467 13.2363 14.1868 13.3342 14.0743 13.5673C13.9617 13.8004 14.0595 14.0807 14.2926 14.1932L15.5312 14.7912V30.7844L1.93945 24.2229V8.22966L12.2895 13.2262C12.3551 13.258 12.4246 13.273 12.4929 13.273C12.6671 13.273 12.8345 13.1753 12.9153 13.0079C13.0279 12.7748 12.9301 12.4945 12.697 12.382L2.54889 7.48284L7.20545 5.23484L21.2863 12.0325C21.2884 12.0354 21.2907 12.038 21.2928 12.0408V17.6657C21.2928 17.827 21.3758 17.977 21.5124 18.0628C21.5883 18.1104 21.6748 18.1345 21.7616 18.1345C21.8311 18.1345 21.9008 18.119 21.9654 18.0878L25.4725 16.3948C25.6345 16.3166 25.7374 16.1526 25.7374 15.9727V10.3167L30.0605 8.22972V24.223Z" fill="#414141"/>
<path d="M5.80681 22.4042L3.67462 21.3749C3.44137 21.2622 3.16125 21.3601 3.04869 21.5932C2.93612 21.8263 3.03387 22.1066 3.267 22.2192L5.39919 23.2485C5.46488 23.2802 5.53431 23.2952 5.60263 23.2952C5.77688 23.2952 5.94425 23.1976 6.02506 23.0302C6.13769 22.797 6.03994 22.5168 5.80681 22.4042Z" fill="#414141"/>
<path d="M7.77005 21.1275L3.67849 19.1522C3.4453 19.0396 3.16512 19.1374 3.05255 19.3706C2.94005 19.6037 3.0378 19.884 3.27093 19.9965L7.36249 21.9718C7.42818 22.0035 7.49762 22.0185 7.56593 22.0185C7.74018 22.0185 7.90755 21.9209 7.98837 21.7535C8.10093 21.5202 8.00318 21.24 7.77005 21.1275Z" fill="#414141"/>
</g>
<defs>
<clipPath id="clip0">
<rect width="32" height="32" fill="white"/>
</clipPath>
</defs>
</svg>
