<svg width="141" height="135" viewBox="0 0 141 135" fill="none" xmlns="http://www.w3.org/2000/svg">
<path d="M0.388672 87C0.388672 60.4903 21.879 39 48.3887 39H52.3887C78.8983 39 100.389 60.4903 100.389 87C100.389 113.51 78.8983 135 52.3887 135H48.3887C21.879 135 0.388672 113.51 0.388672 87Z" fill="url(#paint0_linear)"/>
<path d="M111.122 3.30762C102.887 3.30762 95.2631 7.63692 90.3398 14.9995C85.4166 7.63692 77.7925 3.30762 69.5574 3.30762C55.1699 3.30762 43.4648 16.5833 43.4648 32.9015C43.4648 42.2908 45.9145 51.4964 50.7456 60.2626C54.5891 67.2389 59.9415 73.9497 66.6529 80.2085C78.0454 90.8337 89.2618 96.4053 89.7339 96.637C89.925 96.7309 90.1327 96.7778 90.3398 96.7778C90.5407 96.7778 90.7409 96.7337 90.9281 96.6456C91.0608 96.5827 94.2451 95.0669 98.9504 92.0789C100.44 91.1319 98.9652 88.8144 97.4775 89.7609C94.0855 91.9152 91.4728 93.2971 90.3513 93.8664C87.8816 92.5652 78.1141 87.1556 68.4713 78.1491C61.9871 72.0923 56.8252 65.6167 53.1305 58.9007C48.5397 50.5563 46.2114 41.8084 46.2114 32.9015C46.2114 18.098 56.6839 6.0542 69.5574 6.0542C77.4887 6.0542 84.8112 10.6295 89.1445 18.2931C89.6583 19.2023 91.0253 19.1949 91.5352 18.2931C95.8685 10.6295 103.191 6.0542 111.122 6.0542C123.996 6.0542 134.468 18.098 134.468 32.9015C134.468 43.8849 131.091 54.4736 124.429 64.3727C119.457 71.7627 112.761 78.6589 104.528 84.8725C103.118 85.9362 104.774 88.1272 106.182 87.0646C114.659 80.6685 121.566 73.5492 126.709 65.9062C133.68 55.5447 137.215 44.4405 137.215 32.9015C137.215 16.5833 125.51 3.30762 111.122 3.30762Z" fill="#060606"/>
<path d="M70.6053 35.1625C67.3278 39.4884 65.5957 44.6502 65.5957 50.0913C65.5957 63.7344 76.6947 74.834 90.3384 74.834C103.982 74.834 115.081 63.7344 115.081 50.0913C115.081 36.4477 103.982 25.3486 90.3384 25.3486C85.4924 25.3486 80.7997 26.7488 76.7668 29.3998C75.2906 30.3691 76.8012 32.6637 78.2752 31.6949C81.8074 29.3735 85.9124 28.133 90.1558 28.0986C89.6489 30.2387 88.5245 33.4196 86.5733 34.6389C81.5093 37.8049 79.724 42.1697 81.7977 46.3176C83.964 50.6515 88.4169 49.8905 91.9943 49.2805C92.6243 49.1723 93.2749 49.0613 93.8975 48.9772C93.9398 48.9721 93.9673 48.9715 93.9833 48.9715C93.9925 48.9715 93.9959 48.9715 93.997 48.9703C94.0268 48.9944 94.3587 49.2845 94.5527 50.8123C94.7129 52.0786 94.7192 53.6613 94.7266 55.3361C94.7398 58.8334 94.7535 62.1368 96.1211 63.8774C96.8398 64.7912 97.8331 65.2576 98.9855 65.2576C99.6882 65.2576 100.45 65.0848 101.246 64.734C104.523 63.288 107.894 58.9839 107.331 55.6033C106.867 52.8224 106.561 50.9857 107.195 49.5511C107.754 48.286 109.176 47.0392 111.852 45.5011C112.167 46.9819 112.334 48.5172 112.334 50.0913C112.334 62.2197 102.467 72.0874 90.3384 72.0874C85.7373 72.0874 81.4623 70.6666 77.9267 68.241C78.1047 66.9662 78.3044 63.478 75.9692 59.9263C75.7746 59.4257 76.7056 57.4659 77.2063 56.413C77.8163 55.1296 78.4474 53.802 78.7392 52.5375C79.494 49.2673 76.4138 48.3575 74.9335 47.9198C74.494 47.7905 73.8309 47.5942 73.6586 47.4534C73.2489 47.1181 72.4787 45.6945 71.9146 44.6559C71.2525 43.4326 70.6597 42.3402 70.04 41.5946C70.7467 39.9118 71.6662 38.3102 72.7946 36.8213C73.86 35.4137 71.6702 33.7577 70.6053 35.1625ZM104.682 48.4405C103.717 50.6263 104.095 52.9031 104.621 56.0542C104.931 57.9133 102.584 61.1411 100.137 62.2209C99.2384 62.6174 98.6136 62.6042 98.2806 62.1797C97.4966 61.1823 97.4823 57.7966 97.4726 55.3258C97.4572 51.5722 97.444 48.3295 95.8052 46.903C95.1838 46.3622 94.3953 46.1379 93.5301 46.2552C92.8606 46.3456 92.1854 46.4612 91.532 46.5722C87.3446 47.2869 85.3911 47.3625 84.2547 45.0897C83.5944 43.769 82.6411 40.3358 88.029 36.9678C91.1343 35.0275 92.4561 30.4756 92.9333 28.2491C101.359 29.2436 108.34 35.0189 111.084 42.7802C107.388 44.8276 105.558 46.4584 104.682 48.4405ZM69.4999 45.9646C70.3536 47.541 71.0906 48.9017 71.9191 49.5792C72.5205 50.0713 73.3147 50.3059 74.1553 50.5542C76.2364 51.1693 76.182 51.4045 76.0625 51.9195C75.8382 52.8928 75.2728 54.083 74.7258 55.2331C73.6191 57.5608 72.5743 59.7587 73.6655 61.4204C74.8036 63.1518 75.1738 64.8421 75.2614 66.0918C71.0042 62.0784 68.3423 56.3901 68.3423 50.0913C68.3423 48.3369 68.5477 46.6157 68.9442 44.9506C69.1382 45.2962 69.3282 45.6481 69.4999 45.9646Z" fill="#060606"/>
<path d="M120.037 15.9475C124.058 19.3761 126.641 24.3795 127.713 30.8173C127.826 31.4891 128.407 31.9646 129.067 31.9646C129.895 31.9646 130.559 31.1836 130.423 30.3653C128.935 21.4395 124.851 16.4012 121.688 13.7462C118.205 10.8234 115.049 10.0595 114.917 10.0286C113.203 9.62632 112.578 12.2865 114.284 12.7013C114.311 12.7076 117.041 13.3914 120.037 15.9475Z" fill="#060606"/>
<defs>
<linearGradient id="paint0_linear" x1="0.388672" y1="135" x2="78.3887" y2="74.3333" gradientUnits="userSpaceOnUse">
<stop stop-color="#FFCCD6"/>
<stop offset="1" stop-color="#FFCCD6" stop-opacity="0"/>
</linearGradient>
</defs>
</svg>
