<svg width="22" height="20" viewBox="0 0 22 20" fill="none" xmlns="http://www.w3.org/2000/svg">
<g clip-path="url(#clip0)">
<path d="M14.3154 0.571289L13.125 3.80686C14.2238 7.36168 14.2238 12.6379 13.125 16.1929L14.3154 19.4281C18.2766 18.0549 21.115 14.3532 21.115 9.99947C21.115 5.6464 18.2766 1.94453 14.3154 0.571289Z" fill="#E61E25"/>
<path d="M14.3129 3.80697V0.571394C13.2491 0.202582 12.1049 0 10.9121 0C12.485 0 10.3041 5.22597 14.3129 3.80697Z" fill="#E4E4E4"/>
<path d="M10.9129 20C12.1056 20 13.2498 19.7974 14.3136 19.4286V16.1934C10.3451 15.8051 10.9129 20 10.9129 20Z" fill="#E4E4E4"/>
<path d="M0.712891 9.99982C0.712891 14.3681 3.57068 18.0796 7.55237 19.4417V0.558594C3.57068 1.92073 0.712891 5.63219 0.712891 9.99982Z" fill="#3757A6"/>
<path d="M14.3145 3.80664V16.1927C15.4133 12.6377 15.4133 7.36142 14.3145 3.80664Z" fill="#EF4F4E"/>
<path d="M14.3143 16.1931V3.80697C13.6198 1.55952 12.4864 0 10.9135 0C9.73556 0 8.60541 0.198318 7.55273 0.558474V19.4417C8.60541 19.8019 9.73556 19.9999 10.9135 19.9999C12.4864 19.9998 13.6198 18.4403 14.3143 16.1931Z" fill="#F3F4F5"/>
</g>
<defs>
<clipPath id="clip0">
<rect x="0.712891" width="20.4007" height="20" fill="white"/>
</clipPath>
</defs>
</svg>
