<svg width="33" height="33" viewBox="0 0 33 33" fill="none" xmlns="http://www.w3.org/2000/svg">
<g clip-path="url(#clip0)">
<path d="M16.3899 32.2725C15.2404 32.2725 14.0914 32.0408 13.0274 31.578L7.93958 29.3663C6.09892 28.5656 4.15272 28.0585 2.15513 27.8588L0.484319 27.6918C0.209236 27.6644 0 27.433 0 27.1567V21.9156C0 21.7993 0.0378471 21.6861 0.107695 21.5932C0.232621 21.4261 3.22715 17.514 7.80142 18.5319C10.3741 19.1036 12.4455 20.1734 13.7302 20.9704C14.6628 21.5488 15.7561 21.8544 16.8918 21.8544H21.9796C22.8566 21.8544 23.6273 22.3184 24.0584 23.0144L28.4404 17.966C29.2899 16.8315 30.6798 16.1367 32.1349 16.1367H32.4623C32.6442 16.1367 32.8134 16.2284 32.9125 16.3804C33.0119 16.5324 33.0276 16.7247 32.9546 16.8909L28.9915 25.8979C28.125 27.8678 26.3606 29.3558 24.2723 29.878L23.575 30.0521L19.5189 31.6746C18.5208 32.0737 17.4552 32.2725 16.3899 32.2725ZM1.07572 26.6699L2.26221 26.7887C4.37087 26.9994 6.42539 27.5351 8.36882 28.3801L13.4563 30.5918C15.2453 31.3697 17.3084 31.4002 19.1198 30.6755L23.2092 29.0398C23.2319 29.0309 23.255 29.0235 23.2787 29.0176L24.0114 28.8343C25.7797 28.3921 27.2736 27.1324 28.0068 25.4646L31.6217 17.2494C30.6961 17.3857 29.8444 17.8845 29.277 18.6408L24.4227 24.2354C24.4234 24.2563 24.4237 24.2769 24.4237 24.2981C24.4237 25.6456 23.3273 26.7419 21.9799 26.7419H14.8813C13.9585 26.7419 13.0465 26.8899 12.1711 27.1816L11.9735 26.68L11.8064 26.169L11.8338 26.16C12.8163 25.8326 13.8425 25.6662 14.8813 25.6662H21.9799C22.7341 25.6662 23.3483 25.0523 23.3483 24.2978C23.3483 23.5434 22.7344 22.9295 21.9799 22.9295H16.8921C15.5558 22.9295 14.2665 22.5679 13.1637 21.8839C11.9501 21.131 9.99378 20.1208 7.5688 19.5814C4.10471 18.8131 1.61204 21.4716 1.07603 22.1058V26.6699H1.07572Z" fill="#414141"/>
<path d="M21.1785 16.015C20.3514 16.015 19.4239 15.7596 18.403 15.2491C18.2793 15.187 18.1839 15.0793 18.1371 14.9491C18.0956 14.8325 17.1347 12.0684 18.6618 10.0244C19.7716 8.53849 21.8585 7.86924 24.8678 8.03694C25.1422 8.05202 25.361 8.27202 25.3746 8.54711C25.3853 8.76065 25.6072 13.8011 23.037 15.4793C22.4905 15.8365 21.8695 16.015 21.1785 16.015ZM19.0889 14.386C20.5015 15.0485 21.6308 15.1134 22.4493 14.5789C23.9733 13.5835 24.3028 10.6287 24.3108 9.09081C21.9529 9.03327 20.3477 9.56467 19.5233 10.6678C18.5424 11.9813 18.9236 13.7882 19.0889 14.386Z" fill="#414141"/>
<path d="M12.9548 8.96842C12.0012 8.96842 10.9012 8.76411 9.9412 8.06101C8.31285 6.86775 7.56452 4.59601 7.71653 1.30916C7.72945 1.03438 7.9473 0.813456 8.22208 0.797148C8.4547 0.783917 13.9607 0.490064 15.8133 3.27105C16.6761 4.56555 16.6054 6.26097 15.6038 8.31117C15.5429 8.43579 15.4364 8.5321 15.3063 8.57979C15.2339 8.60656 14.2244 8.96842 12.9548 8.96842ZM15.1207 8.07517H15.1259H15.1207ZM8.77501 1.85533C8.72855 4.488 9.3338 6.28251 10.5766 7.1933C12.0646 8.28348 14.0964 7.82008 14.7352 7.63393C15.4659 6.04804 15.5278 4.78186 14.9185 3.86737C13.7862 2.16764 10.4655 1.83533 8.77501 1.85533Z" fill="#414141"/>
<path d="M17.1545 22.7399C17.1376 22.7399 17.1206 22.739 17.1034 22.7375C16.8169 22.7104 16.6025 22.4627 16.6169 22.175C16.6486 21.5424 16.7028 20.9424 16.7763 20.3737C17 16.5681 16.8846 7.70572 11.2814 5.25397C11.0094 5.13489 10.8851 4.81796 11.0042 4.54564C11.123 4.27395 11.4408 4.14994 11.7125 4.26872C15.0144 5.71337 17.0917 9.31007 17.7185 14.6699C17.7748 15.1502 17.817 15.6238 17.8484 16.085C19.3241 12.356 21.5817 11.0384 21.7161 10.963C21.9746 10.8169 22.3026 10.9098 22.4485 11.168C22.5934 11.4264 22.5023 11.7535 22.2448 11.8994C22.1878 11.9326 18.7259 14.0102 17.857 20.4171C17.7908 21.5131 17.6954 22.2119 17.6865 22.2759C17.6493 22.5442 17.42 22.7399 17.1545 22.7399Z" fill="#414141"/>
</g>
<defs>
<clipPath id="clip0">
<rect width="33" height="33" fill="white"/>
</clipPath>
</defs>
</svg>
