<svg width="123" height="134" viewBox="0 0 123 134" fill="none" xmlns="http://www.w3.org/2000/svg">
<path d="M0.388672 85.8417C0.388672 59.4195 21.8081 38 48.2304 38H52.547C78.9692 38 100.389 59.4195 100.389 85.8417C100.389 112.264 78.9692 133.683 52.547 133.683H48.2304C21.8081 133.683 0.388672 112.264 0.388672 85.8417Z" fill="url(#paint0_linear)"/>
<g clip-path="url(#clip0)">
<path d="M121.903 26.0533C121.882 26.0314 121.861 26.01 121.839 25.9892L103.261 9.47711C103.091 9.32258 102.893 9.20271 102.678 9.1239L89.2385 4.32037C88.3218 3.98748 87.3087 4.46099 86.9758 5.37777C86.9158 5.54311 86.8809 5.7164 86.8721 5.89212C86.8721 6.28064 86.2893 15.2343 77.3357 15.3756C68.329 15.2343 67.7639 6.28064 67.7463 5.89212C67.6942 4.91817 66.8624 4.17092 65.8884 4.22302C65.7211 4.23207 65.5558 4.26474 65.3975 4.32037L51.9758 9.17688C51.7604 9.25569 51.5626 9.37556 51.3931 9.53009L32.9383 25.9892C32.2313 26.661 32.2026 27.7789 32.8743 28.4859C32.8951 28.5078 32.9165 28.5292 32.9383 28.5499L47.6315 43.402V84.0201C47.6315 84.9954 48.4222 85.7861 49.3975 85.7861H105.38C106.355 85.7861 107.146 84.9954 107.146 84.0201V43.402L121.839 28.5499C122.546 27.8782 122.575 26.7605 121.903 26.0533ZM107.093 38.3689V30.1747C107.093 29.1994 106.302 28.4087 105.327 28.4087C104.352 28.4087 103.561 29.1994 103.561 30.1747V82.1658H51.0928V30.1747C51.0928 29.1994 50.3021 28.4087 49.3268 28.4087C48.3516 28.4087 47.5608 29.1994 47.5608 30.1747V38.3866L36.6999 27.3844L53.5123 12.338L64.5675 8.34686C65.937 15.4034 72.7677 20.0137 79.8242 18.6442C85.0354 17.6327 89.1101 13.5581 90.1215 8.34686L101.177 12.338L117.936 27.3844L107.093 38.3689Z" fill="#060606"/>
</g>
<defs>
<linearGradient id="paint0_linear" x1="-4.94466" y1="148" x2="75.722" y2="59.3333" gradientUnits="userSpaceOnUse">
<stop stop-color="#FFCCD6"/>
<stop offset="1" stop-color="#FFCCD6" stop-opacity="0"/>
</linearGradient>
<clipPath id="clip0">
<rect x="32.3887" width="90" height="90" fill="white"/>
</clipPath>
</defs>
</svg>
