<svg width="320" height="60" viewBox="0 0 369 60" fill="none" xmlns="http://www.w3.org/2000/svg">
<path d="M9.214 45H11.084L5.712 32.998L0.068 45H1.938L3.179 42.263H8.024L9.214 45ZM3.893 40.631L5.644 36.789L7.327 40.631H3.893ZM12.2103 37.843V41.991C12.2103 42.909 12.3123 43.674 12.9753 44.337C13.6213 45 14.5053 45.221 15.2363 45.221C16.0353 45.221 16.9193 44.983 17.5653 44.337C18.2283 43.674 18.3303 42.909 18.3303 41.991V37.843H16.6643V41.94C16.6643 42.365 16.6473 42.858 16.3583 43.232C16.1373 43.521 15.7463 43.725 15.2703 43.725C14.7943 43.725 14.4033 43.521 14.1823 43.232C13.8933 42.858 13.8763 42.365 13.8763 41.94V37.843H12.2103ZM23.4366 39.373V37.843H22.1616V35.225H20.4956V37.843H19.7986V39.373H20.4956V45H22.1616V39.373H23.4366ZM24.5618 37.843V41.991C24.5618 42.909 24.6638 43.674 25.3268 44.337C25.9728 45 26.8568 45.221 27.5878 45.221C28.3868 45.221 29.2708 44.983 29.9168 44.337C30.5798 43.674 30.6818 42.909 30.6818 41.991V37.843H29.0158V41.94C29.0158 42.365 28.9988 42.858 28.7098 43.232C28.4888 43.521 28.0978 43.725 27.6218 43.725C27.1458 43.725 26.7548 43.521 26.5338 43.232C26.2448 42.858 26.2278 42.365 26.2278 41.94V37.843H24.5618ZM32.7962 45H34.4622V41.311C34.4622 40.699 34.4962 40.087 34.7852 39.679C35.0062 39.373 35.3632 39.152 35.7712 39.152C36.3662 39.152 36.6212 39.509 36.7232 39.781C36.7912 39.934 36.8762 40.257 36.8762 41.056V45H38.5422V41.311C38.5422 40.699 38.5762 40.087 38.8652 39.679C39.0862 39.373 39.4432 39.152 39.8512 39.152C40.4462 39.152 40.7012 39.509 40.8032 39.781C40.8712 39.934 40.9562 40.257 40.9562 41.056V45H42.6222V40.58C42.6222 39.543 42.3842 39.016 42.2482 38.778C41.8402 38.064 41.0752 37.656 40.2082 37.656C39.5792 37.656 38.6782 37.86 38.0832 38.71C37.6752 38.013 36.9782 37.656 36.2302 37.656C35.6862 37.656 35.0232 37.826 34.4622 38.506V37.843H32.7962V45ZM44.7157 45H46.3817V41.566C46.3817 39.254 47.1467 39.152 47.8947 39.152C48.5237 39.152 49.2037 39.203 49.2037 41.022V45H50.8697V40.614C50.8697 39.509 50.6997 39.016 50.4277 38.625C50.2067 38.319 49.6457 37.656 48.3197 37.656C47.9117 37.656 47.0957 37.707 46.3817 38.506V37.843H44.7157V45ZM63.5475 35.361C63.3095 34.885 62.9865 34.494 62.6805 34.222C62.3235 33.916 61.6265 33.457 60.4025 33.457C58.2775 33.457 57.0875 34.919 57.0875 36.449C57.0875 38.149 58.4645 38.931 59.3995 39.322L60.4875 39.781C61.2355 40.087 62.1195 40.563 62.1195 41.719C62.1195 42.858 61.3035 43.623 60.2495 43.623C59.5695 43.623 59.0935 43.351 58.7705 42.943C58.4985 42.586 58.2945 42.059 58.2945 41.498L56.5775 41.872C56.6455 42.654 56.9175 43.402 57.5295 44.082C58.1075 44.728 58.8895 45.221 60.1985 45.221C62.3235 45.221 63.8535 43.742 63.8535 41.583C63.8535 40.291 63.2755 39.101 61.1845 38.251L60.0455 37.792C58.9405 37.35 58.8215 36.755 58.8215 36.415C58.8215 35.684 59.3655 35.055 60.4195 35.055C60.9125 35.055 61.2865 35.174 61.6435 35.463C61.8985 35.684 62.0515 35.922 62.1535 36.177L63.5475 35.361ZM70.7321 42.586C70.5791 42.858 70.3581 43.147 70.0691 43.368C69.7291 43.623 69.3891 43.725 68.9301 43.725C68.5221 43.725 68.0461 43.657 67.6551 43.266C67.2981 42.909 67.0771 42.331 67.0431 41.821H72.1771V41.617C72.1771 40.869 72.0921 39.543 71.1741 38.591C70.7491 38.149 70.0181 37.656 68.8791 37.656C67.8591 37.656 67.0771 38.03 66.4821 38.625C65.7341 39.39 65.3431 40.461 65.3431 41.566C65.3431 42.637 65.7171 43.623 66.3971 44.303C67.0771 44.983 67.8591 45.221 68.8111 45.221C69.5761 45.221 70.3411 45.051 70.9191 44.677C71.3781 44.388 71.8201 43.912 72.1261 43.368L70.7321 42.586ZM67.1621 40.461C67.2471 40.104 67.4341 39.764 67.6721 39.543C67.8931 39.322 68.2671 39.084 68.8451 39.084C69.3891 39.084 69.7461 39.288 69.9671 39.492C70.2221 39.73 70.4091 40.07 70.4771 40.461H67.1621ZM79.1543 38.676C78.4743 37.792 77.5563 37.656 77.0293 37.656C75.1423 37.656 73.5443 39.084 73.5443 41.413C73.5443 43.385 74.8023 45.221 77.0123 45.221C77.5223 45.221 78.4233 45.102 79.1543 44.252V45H80.8203V37.843H79.1543V38.676ZM77.2333 39.152C78.2873 39.152 79.2563 39.9 79.2563 41.464C79.2563 42.96 78.2873 43.725 77.2333 43.725C76.0263 43.725 75.2443 42.688 75.2443 41.447C75.2443 40.172 76.0263 39.152 77.2333 39.152ZM87.3019 38.914C87.0469 38.455 86.7239 38.183 86.4859 38.03C86.0779 37.758 85.6699 37.656 85.1599 37.656C84.2759 37.656 83.7319 37.996 83.4089 38.336C83.0349 38.727 82.8139 39.288 82.8139 39.866C82.8139 40.325 82.9499 40.716 83.3239 41.073C83.5959 41.345 83.9869 41.532 84.3099 41.685L84.9219 41.974C85.1939 42.093 85.4319 42.212 85.6359 42.416C85.7889 42.586 85.8569 42.756 85.8569 42.96C85.8569 43.164 85.7549 43.385 85.6189 43.521C85.4659 43.674 85.1939 43.759 84.9389 43.759C84.5479 43.759 84.3099 43.589 84.2079 43.487C84.0549 43.351 83.9019 43.045 83.8169 42.807L82.4569 43.453C82.6269 43.963 82.9669 44.456 83.3749 44.762C83.8849 45.153 84.4629 45.221 84.9219 45.221C85.6699 45.221 86.3669 45.034 86.9279 44.422C87.3189 43.997 87.5569 43.436 87.5569 42.79C87.5569 42.297 87.4209 41.855 87.0299 41.464C86.7579 41.175 86.4009 40.988 86.0269 40.801L85.1769 40.376C84.8199 40.189 84.7179 40.155 84.6159 40.087C84.4629 39.985 84.3779 39.866 84.3779 39.679C84.3779 39.526 84.4459 39.39 84.5309 39.305C84.6329 39.203 84.8029 39.118 85.0409 39.118C85.5679 39.118 85.8909 39.458 86.0609 39.73L87.3019 38.914ZM92.5099 37.656C90.3509 37.656 88.6849 39.22 88.6849 41.43C88.6849 43.623 90.3509 45.221 92.5099 45.221C94.6689 45.221 96.3349 43.623 96.3349 41.43C96.3349 39.22 94.6689 37.656 92.5099 37.656ZM92.5099 43.725C91.2009 43.725 90.3849 42.824 90.3849 41.447C90.3849 39.815 91.4559 39.152 92.5099 39.152C93.5639 39.152 94.6349 39.815 94.6349 41.447C94.6349 42.824 93.8189 43.725 92.5099 43.725ZM98.0565 45H99.7225V41.566C99.7225 39.254 100.488 39.152 101.236 39.152C101.865 39.152 102.545 39.203 102.545 41.022V45H104.211V40.614C104.211 39.509 104.041 39.016 103.769 38.625C103.548 38.319 102.987 37.656 101.661 37.656C101.253 37.656 100.437 37.707 99.7225 38.506V37.843H98.0565V45Z" fill="black"/>
<path d="M222.264 44H223.881L228.6 37.796L233.319 44H234.936L229.524 36.938L234.408 30.536H232.791L228.6 36.08L224.343 30.536H222.726L227.709 36.938L222.264 44ZM245.423 21.989V35.453C245.423 37.532 245.753 39.644 247.073 41.327C248.657 43.406 251.429 44.495 254.267 44.495C257.105 44.495 259.877 43.406 261.461 41.327C262.781 39.644 263.111 37.532 263.111 35.453V21.989H258.821V35.816C258.821 37.499 258.26 38.522 257.765 39.083C257.138 39.842 255.983 40.601 254.267 40.601C252.551 40.601 251.396 39.842 250.769 39.083C250.274 38.522 249.713 37.499 249.713 35.816V21.989H245.423ZM272.433 21.989H268.143V44H272.433V34.628L272.928 34.133L280.749 44H286.425L276.624 32.153L285.93 21.989H280.518L272.433 31.295V21.989ZM289.122 21.989V44H293.412V21.989H289.122ZM303.419 44H307.709V33.935L315.464 21.989H310.382L305.663 29.645L300.944 21.989H295.862L303.419 33.935V44ZM327.336 21.494C320.406 21.494 315.588 26.312 315.588 33.011C315.588 39.71 320.406 44.495 327.336 44.495C334.266 44.495 339.084 39.71 339.084 33.011C339.084 26.312 334.266 21.494 327.336 21.494ZM327.336 40.601C323.046 40.601 320.01 37.466 320.01 33.011C320.01 28.556 323.046 25.388 327.336 25.388C331.626 25.388 334.662 28.556 334.662 33.011C334.662 37.466 331.626 40.601 327.336 40.601ZM342.179 38.258H350.759V34.562H342.179V38.258ZM367.139 21.989H354.929V44H367.139V40.304H359.219V34.298H366.809V30.602H359.219V25.685H367.139V21.989Z" fill="black"/>
<path d="M126.473 20.2948C126.191 23.1275 125.906 26.195 125.619 29.497C125.332 32.7991 125.191 36.1276 125.196 39.4826C125.199 42.8016 125.395 46.0537 125.786 49.2389C126.174 52.3882 126.885 55.2276 127.918 57.757C128.087 58.1427 128.128 58.4827 128.039 58.7772C127.95 59.0717 127.802 59.28 127.593 59.402C127.382 59.488 127.148 59.4855 126.889 59.3943C126.631 59.3031 126.4 59.0839 126.196 58.7365C125.259 57.1027 124.467 55.2248 123.822 53.1027C123.175 50.9446 122.647 48.6885 122.239 46.3342C121.831 43.98 121.546 41.5815 121.385 39.1389C121.221 36.6603 121.172 34.2643 121.235 31.9511C121.299 29.6379 121.463 27.4804 121.728 25.4786C121.99 23.4409 122.344 21.6858 122.788 20.2134C122.874 19.883 122.975 19.4975 123.09 19.0569C123.241 18.614 123.414 18.2238 123.608 17.8863C123.8 17.5128 124.034 17.2268 124.309 17.0282C124.618 16.7914 124.992 16.7126 125.43 16.7919C125.794 16.84 126.057 17.0031 126.22 17.2809C126.383 17.5588 126.477 17.8953 126.503 18.2905C126.563 18.6473 126.568 19.0077 126.52 19.3717C126.508 19.7333 126.492 20.041 126.473 20.2948ZM140.406 14.9374C138.129 14.8713 135.859 14.9129 133.596 15.0623C131.333 15.2117 129.092 15.4317 126.875 15.7224C124.691 15.9748 122.546 16.2788 120.441 16.6342C118.333 16.9537 116.299 17.2864 114.337 17.6324C113.695 17.7469 113.226 17.7418 112.929 17.6171C112.63 17.4564 112.472 17.2504 112.455 16.999C112.439 16.7475 112.549 16.5057 112.786 16.2736C113.057 16.0032 113.442 15.8154 113.94 15.7104C115.221 15.4454 116.88 15.1555 118.915 14.8408C120.951 14.526 123.116 14.2568 125.41 14.0332C127.74 13.8072 130.111 13.6507 132.523 13.5637C134.934 13.4767 137.174 13.5272 139.243 13.7154C139.535 13.7683 139.812 13.8582 140.073 13.9853C140.334 14.1124 140.445 14.4298 140.406 14.9374ZM134.367 36.7666C134.667 36.3861 135.072 35.9625 135.582 35.4958C136.126 34.9909 136.675 34.5578 137.228 34.1966C137.817 33.833 138.38 33.6154 138.917 33.5439C139.487 33.4342 139.948 33.5841 140.299 33.9939C140.764 34.4683 141.172 34.9104 141.523 35.3201C141.911 35.7275 142.277 36.0821 142.622 36.3841C143 36.6477 143.372 36.8216 143.739 36.9056C144.105 36.9897 144.497 36.9097 144.913 36.6657C145.366 36.4194 145.69 36.398 145.883 36.6017C146.077 36.8054 145.895 37.0519 145.337 37.3413C144.395 37.8364 143.537 37.9472 142.761 37.6737C142.021 37.3978 141.191 36.8393 140.269 35.9982C139.621 35.4637 138.996 35.2885 138.395 35.4725C137.791 35.6206 137.22 35.983 136.681 36.5598C136.141 37.1366 135.63 37.8558 135.145 38.7176C134.695 39.5411 134.3 40.3969 133.962 41.2851C133.657 42.135 133.404 42.9455 133.202 43.7164C133.034 44.4491 132.962 44.995 132.986 45.3543C132.94 45.7541 132.815 46.051 132.612 46.2448C132.444 46.4363 132.233 46.5224 131.979 46.503C131.725 46.4837 131.483 46.3554 131.25 46.1182C131.016 45.8451 130.863 45.4403 130.791 44.9038C130.574 43.7997 130.424 42.619 130.341 41.3618C130.22 40.071 130.209 38.809 130.308 37.5758C130.44 36.3043 130.668 35.1167 130.992 34.0129C131.35 32.8709 131.864 31.9169 132.535 31.1511C132.835 30.7705 133.182 30.5672 133.577 30.5411C134.008 30.5127 134.411 30.5943 134.784 30.7862C135.158 30.978 135.464 31.2464 135.703 31.5914C135.942 31.9364 136.038 32.2908 135.99 32.6548C135.968 32.8727 135.878 33.1492 135.72 33.4844C135.598 33.8172 135.441 34.1703 135.249 34.5437C135.093 34.9148 134.92 35.305 134.731 35.7144C134.575 36.0855 134.454 36.4362 134.367 36.7666ZM135.065 29.3064C134.254 29.0353 133.493 28.9953 132.784 29.1864C132.111 29.3751 131.439 29.8524 130.768 30.6183C130.872 29.9981 131.11 29.5134 131.484 29.164C131.856 28.7787 132.254 28.5359 132.681 28.4356C133.105 28.2994 133.538 28.3068 133.981 28.458C134.424 28.6092 134.785 28.892 135.065 29.3064ZM154.659 43.0036C154.268 43.6428 153.803 44.2507 153.264 44.8275C152.76 45.4019 152.197 45.89 151.575 46.2919C150.949 46.6579 150.298 46.8993 149.62 47.0162C148.976 47.0948 148.335 46.9567 147.699 46.6019C146.538 45.957 145.773 45.0333 145.405 43.8309C144.999 42.595 144.858 41.2874 144.984 39.9082C145.073 38.5313 145.364 37.1952 145.856 35.9C146.381 34.5665 146.977 33.4809 147.643 32.6432C148.11 32.0712 148.621 31.6046 149.174 31.2433C149.763 30.8797 150.471 30.6707 151.297 30.6161C152.195 30.5568 152.951 30.7956 153.564 31.3324C154.21 31.8309 154.545 32.5304 154.568 33.4308C154.603 33.9696 154.482 34.591 154.204 35.2948C153.962 35.9963 153.591 36.6702 153.093 37.3164C152.63 37.9603 152.073 38.5382 151.421 39.0503C150.803 39.524 150.118 39.8038 149.366 39.8895C148.999 41.429 148.951 42.6227 149.224 43.4706C149.494 44.2826 149.905 44.7786 150.458 44.9585C151.011 45.1385 151.617 45.0263 152.276 44.6221C152.932 44.1819 153.444 43.4626 153.811 42.4643C153.869 42.244 153.968 42.1112 154.11 42.0657C154.251 42.0203 154.379 42.048 154.494 42.1486C154.606 42.2133 154.687 42.3343 154.734 42.5116C154.78 42.6529 154.755 42.8169 154.659 43.0036ZM149.78 38.7798C150.374 38.488 150.941 38.0538 151.48 37.477C152.055 36.8979 152.502 36.2911 152.821 35.6567C153.176 35.02 153.371 34.4298 153.407 33.8862C153.477 33.3044 153.341 32.8804 152.999 32.6144C152.687 32.8153 152.331 33.1635 151.931 33.659C151.565 34.1161 151.221 34.6439 150.899 35.2424C150.612 35.8026 150.345 36.4154 150.101 37.081C149.889 37.7083 149.783 38.2745 149.78 38.7798ZM146.836 31.073C146.951 30.6324 147.214 30.2363 147.623 29.8845C148.067 29.4945 148.57 29.1907 149.132 28.9731C149.693 28.7197 150.28 28.5907 150.893 28.5864C151.504 28.546 152.051 28.6362 152.534 28.8568C151.6 28.9185 150.623 29.1453 149.603 29.5374C148.58 29.8935 147.658 30.4054 146.836 31.073ZM176.804 35.0477C176.595 35.7109 176.371 36.4112 176.131 37.1486C175.925 37.8477 175.662 38.5145 175.343 39.1488C175.022 39.7473 174.642 40.2775 174.203 40.7394C173.801 41.1989 173.316 41.5015 172.748 41.6472C172.111 41.8336 171.489 41.7122 170.884 41.2832C170.276 40.8182 169.817 40.145 169.506 39.2636C169.286 38.6647 169.115 37.9905 168.994 37.2409C168.908 36.4889 168.834 35.646 168.773 34.712C168.692 33.4906 168.506 32.8535 168.213 32.8007C167.921 32.7478 167.4 33.3234 166.65 34.5274C165.636 36.1096 164.641 37.7086 163.665 39.3244C162.723 40.9019 161.838 42.5297 161.011 44.2078C160.822 44.6172 160.572 44.9403 160.263 45.1772C159.954 45.4141 159.564 45.512 159.092 45.471C158.369 45.4465 157.829 45.1936 157.473 44.712C157.152 44.2281 156.931 43.6113 156.809 42.8617C156.683 42.0402 156.656 41.0859 156.729 39.9988C156.765 38.914 156.893 37.8413 157.111 36.7806C157.328 35.6839 157.603 34.6556 157.936 33.6955C158.303 32.6972 158.701 31.8952 159.13 31.2897C159.363 30.9857 159.656 30.7859 160.011 30.6904C160.401 30.5924 160.763 30.6047 161.095 30.727C161.462 30.8111 161.743 30.9729 161.939 31.2125C162.171 31.4497 162.245 31.7515 162.161 32.1178C161.751 33.552 161.277 35.1166 160.739 36.8117C160.199 38.4708 159.905 40.0236 159.856 41.4699C159.818 41.9776 159.893 42.2973 160.082 42.4292C160.269 42.5251 160.544 42.3265 160.908 41.8334C161.338 41.2279 161.777 40.5133 162.228 39.6898C162.715 38.864 163.2 38.0202 163.685 37.1584C164.169 36.2966 164.654 35.4528 165.141 34.627C165.628 33.8011 166.069 33.1046 166.464 32.5373C167.063 31.7762 167.61 31.3072 168.103 31.1303C168.63 30.9151 169.083 30.9394 169.461 31.203C169.873 31.4284 170.19 31.8584 170.412 32.4932C170.632 33.092 170.751 33.8057 170.77 34.6343C170.781 35.3551 170.792 36.0579 170.801 36.7428C170.843 37.3894 170.959 38.0492 171.148 38.7222C171.48 39.927 171.899 40.5307 172.404 40.5334C172.945 40.5338 173.467 40.2468 173.971 39.6724C174.471 39.0621 174.926 38.2925 175.333 37.3636C175.777 36.4324 176.066 35.6195 176.201 34.9252C176.294 34.7025 176.432 34.6032 176.614 34.6273C176.796 34.6514 176.859 34.7915 176.804 35.0477ZM157.345 46.8851C158.263 47.1132 159.146 47.109 159.996 46.8724C160.844 46.6 161.553 46.1383 162.124 45.4873C162.047 45.9614 161.823 46.3911 161.451 46.7764C161.116 47.1593 160.701 47.4392 160.208 47.6161C159.75 47.7906 159.249 47.8418 158.703 47.7696C158.19 47.6591 157.738 47.3643 157.345 46.8851ZM187.199 31.5474C187.211 27.9027 187.458 24.2606 187.939 20.6209C188.418 16.9454 189.384 13.2738 190.838 9.60609C191.293 8.85446 191.765 8.35428 192.254 8.10555C192.779 7.85445 193.225 7.78889 193.594 7.90886C193.999 8.02647 194.289 8.33198 194.466 8.8254C194.641 9.2829 194.625 9.86121 194.418 10.5603C192.781 16.3688 191.602 22.2733 190.879 28.2739C190.157 34.2745 189.99 40.2204 190.379 46.1116C190.398 46.3989 190.38 46.6707 190.325 46.9269C190.306 47.1807 190.137 47.3543 189.818 47.4474C189.535 47.5382 189.279 47.483 189.049 47.2817C188.853 47.0421 188.671 46.7474 188.504 46.3977C188.21 45.7677 187.967 45.0982 187.776 44.3893C187.619 43.642 187.498 42.9104 187.415 42.1943C187.331 41.4783 187.267 40.779 187.222 40.0965C187.211 39.3756 187.186 38.7279 187.148 38.1531C186.613 39.3429 186.026 40.5543 185.386 41.7871C184.745 43.0199 183.968 44.0815 183.052 44.9717C182.547 45.5102 181.981 45.9624 181.356 46.3284C180.764 46.6561 180.163 46.8401 179.552 46.8804C178.978 46.9183 178.427 46.7743 177.9 46.4482C177.374 46.1222 176.938 45.5376 176.594 44.6945C176.121 43.5351 175.933 42.3389 176.032 41.1057C176.093 39.8389 176.38 38.7196 176.893 37.7477C177.368 36.7422 177.954 35.7836 178.651 34.8716C179.385 33.9573 180.183 33.2011 181.045 32.603C181.941 31.9666 182.905 31.5422 183.938 31.3298C185.006 31.1149 186.093 31.1875 187.199 31.5474ZM186.704 35.5306C185.054 35.6756 183.66 36.1465 182.522 36.9432C181.418 37.7016 180.526 38.6804 179.848 39.8797C179.431 40.6649 179.124 41.4789 178.927 42.3217C178.727 43.1286 178.682 43.799 178.789 44.3331C178.894 44.8313 179.2 45.0997 179.708 45.1383C180.249 45.1387 181.05 44.707 182.112 43.8432C183.264 42.7208 184.174 41.4702 184.841 40.0913C185.541 38.6741 186.162 37.1539 186.704 35.5306ZM179.304 31.6356C179.417 31.1592 179.677 30.7271 180.084 30.3394C180.525 29.9135 181.027 29.5917 181.59 29.3742C182.15 29.1207 182.736 28.9738 183.347 28.9335C183.957 28.8932 184.523 29.0001 185.045 29.2543C184.075 29.3183 183.08 29.5464 182.06 29.9384C181.04 30.3305 180.121 30.8962 179.304 31.6356ZM202.28 39.8602C201.889 40.4993 201.424 41.1072 200.885 41.684C200.381 42.2584 199.818 42.7465 199.196 43.1484C198.57 43.5144 197.919 43.7559 197.241 43.8727C196.597 43.9514 195.956 43.8132 195.32 43.4584C194.159 42.8135 193.394 41.8898 193.026 40.6875C192.62 39.4515 192.479 38.1439 192.605 36.7647C192.694 35.3878 192.985 34.0518 193.477 32.7566C194.002 31.4231 194.598 30.3375 195.264 29.4998C195.731 28.9277 196.242 28.4611 196.795 28.0999C197.384 27.7363 198.092 27.5272 198.918 27.4726C199.816 27.4134 200.572 27.6521 201.184 28.1889C201.831 28.6875 202.166 29.3869 202.189 30.2873C202.224 30.8262 202.103 31.4475 201.825 32.1514C201.583 32.8528 201.212 33.5267 200.714 34.173C200.251 34.8168 199.694 35.3948 199.042 35.9068C198.424 36.3806 197.739 36.6603 196.987 36.746C196.62 38.2855 196.572 39.4793 196.845 40.3272C197.115 41.1391 197.526 41.6351 198.079 41.8151C198.632 41.995 199.238 41.8829 199.897 41.4786C200.553 41.0384 201.065 40.3191 201.432 39.3208C201.49 39.1005 201.589 38.9677 201.731 38.9223C201.872 38.8769 202 38.9045 202.115 39.0051C202.227 39.0699 202.308 39.1909 202.355 39.3681C202.401 39.5094 202.376 39.6734 202.28 39.8602ZM197.401 35.6363C197.995 35.3446 198.562 34.9103 199.101 34.3335C199.676 33.7544 200.123 33.1476 200.442 32.5133C200.797 31.8765 200.992 31.2863 201.028 30.7428C201.098 30.1609 200.962 29.737 200.62 29.4709C200.308 29.6719 199.952 30.0201 199.552 30.5155C199.185 30.9727 198.842 31.5005 198.52 32.0989C198.233 32.6591 197.966 33.272 197.722 33.9375C197.51 34.5648 197.404 35.1311 197.401 35.6363ZM194.457 27.9295C194.572 27.489 194.834 27.0928 195.244 26.7411C195.687 26.351 196.191 26.0472 196.753 25.8297C197.314 25.5762 197.901 25.4473 198.514 25.4429C199.124 25.4026 199.672 25.4927 200.155 25.7134C199.221 25.775 198.244 26.0019 197.224 26.3939C196.201 26.7501 195.279 27.2619 194.457 27.9295ZM213.698 39.1064C213.307 39.7455 212.842 40.3535 212.303 40.9303C211.8 41.5046 211.237 41.9928 210.614 42.3947C209.989 42.7607 209.337 43.0021 208.659 43.119C208.015 43.1976 207.375 43.0595 206.738 42.7047C205.577 42.0597 204.813 41.1361 204.445 39.9337C204.038 38.6978 203.898 37.3902 204.023 36.0109C204.113 34.6341 204.403 33.298 204.895 32.0028C205.42 30.6693 206.016 29.5837 206.682 28.746C207.15 28.174 207.66 27.7074 208.214 27.3461C208.803 26.9825 209.511 26.7734 210.337 26.7189C211.235 26.6596 211.99 26.8984 212.603 27.4352C213.249 27.9337 213.584 28.6332 213.607 29.5336C213.643 30.0724 213.522 30.6938 213.243 31.3976C213.001 32.0991 212.631 32.773 212.132 33.4192C211.67 34.0631 211.112 34.641 210.461 35.1531C209.843 35.6268 209.157 35.9065 208.406 35.9923C208.038 37.5318 207.991 38.7255 208.263 39.5734C208.533 40.3854 208.945 40.8814 209.498 41.0613C210.051 41.2413 210.657 41.1291 211.316 40.7249C211.972 40.2847 212.484 39.5654 212.851 38.5671C212.908 38.3468 213.008 38.2139 213.149 38.1685C213.29 38.1231 213.419 38.1508 213.533 38.2514C213.646 38.3161 213.726 38.4371 213.774 38.6144C213.819 38.7557 213.794 38.9197 213.698 39.1064ZM208.819 34.8826C209.413 34.5908 209.98 34.1566 210.519 33.5798C211.094 33.0007 211.541 32.3939 211.86 31.7595C212.215 31.1228 212.411 30.5326 212.447 29.989C212.517 29.4072 212.38 28.9832 212.038 28.7172C211.727 28.9181 211.371 29.2663 210.971 29.7618C210.604 30.2189 210.26 30.7467 209.939 31.3452C209.651 31.9053 209.385 32.5182 209.14 33.1838C208.929 33.811 208.822 34.3773 208.819 34.8826ZM205.875 27.1758C205.991 26.7352 206.253 26.3391 206.663 25.9873C207.106 25.5973 207.609 25.2935 208.172 25.0759C208.732 24.8225 209.319 24.6935 209.932 24.6891C210.543 24.6488 211.09 24.739 211.574 24.9596C210.64 25.0213 209.663 25.2481 208.642 25.6402C207.619 25.9963 206.697 26.5082 205.875 27.1758Z" fill="black"/>
</svg>
