<svg width="23" height="27" viewBox="0 0 23 27" fill="none" xmlns="http://www.w3.org/2000/svg">
<path d="M19.5 10.0565V7.25C19.5 3.2525 15.911 0 11.5 0C7.089 0 3.5 3.2525 3.5 7.25V10.0565C1.7995 10.3495 0.5 11.8315 0.5 13.615V23.386C0.5 25.3785 2.1215 27 4.1145 27H18.8855C20.8785 27 22.5 25.3785 22.5 23.3855V13.6145C22.5 11.8315 21.2005 10.3495 19.5 10.0565ZM4.5 7.25C4.5 3.8035 7.64 1 11.5 1C15.36 1 18.5 3.8035 18.5 7.25V10H4.5V7.25ZM21.5 23.3855C21.5 24.827 20.327 26 18.8855 26H4.1145C2.673 26 1.5 24.827 1.5 23.3855V13.6145C1.5 12.173 2.673 11 4.1145 11H18.8855C20.327 11 21.5 12.173 21.5 13.6145V23.3855Z" fill="#414141"/>
</svg>
