<svg width="37" height="48" viewBox="0 0 37 48" fill="none" xmlns="http://www.w3.org/2000/svg">
<g filter="url(#filter0_i)">
<path d="M36.5238 47.1191H0.103828L11.3238 35.4791C14.2838 32.3991 16.6038 29.7991 18.2838 27.6791C19.9638 25.5191 21.2038 23.6991 22.0038 22.2191C22.8438 20.7391 23.3638 19.5391 23.5638 18.6191C23.7638 17.6991 23.8638 16.9191 23.8638 16.2791C23.8638 15.5991 23.7438 14.9391 23.5038 14.2991C23.3038 13.6591 22.9838 13.0991 22.5438 12.6191C22.1038 12.0991 21.5638 11.6991 20.9238 11.4191C20.3238 11.0991 19.6038 10.9391 18.7638 10.9391C17.1638 10.9391 15.9038 11.4591 14.9838 12.4991C14.1038 13.5391 13.6638 14.8391 13.6638 16.3991C13.6638 16.8391 13.7238 17.4791 13.8438 18.3191H1.00383C1.00383 15.6791 1.42383 13.2791 2.26383 11.1191C3.14383 8.95914 4.36383 7.09914 5.92383 5.53914C7.48383 3.97914 9.32383 2.77914 11.4438 1.93914C13.6038 1.09914 15.9638 0.679138 18.5238 0.679138C21.0438 0.679138 23.3638 1.07914 25.4838 1.87914C27.6438 2.67914 29.5038 3.79914 31.0638 5.23914C32.6238 6.67914 33.8438 8.39914 34.7238 10.3991C35.6038 12.3591 36.0438 14.4991 36.0438 16.8191C36.0438 19.2991 35.5038 21.5991 34.4238 23.7191C33.3838 25.7991 31.7038 27.9391 29.3838 30.1391L21.8838 37.1591H36.5238V47.1191Z" fill="#FFB7C5"/>
</g>
<defs>
<filter id="filter0_i" x="0.103516" y="0.679199" width="36.42" height="50.44" filterUnits="userSpaceOnUse" color-interpolation-filters="sRGB">
<feFlood flood-opacity="0" result="BackgroundImageFix"/>
<feBlend mode="normal" in="SourceGraphic" in2="BackgroundImageFix" result="shape"/>
<feColorMatrix in="SourceAlpha" type="matrix" values="0 0 0 0 0 0 0 0 0 0 0 0 0 0 0 0 0 0 127 0" result="hardAlpha"/>
<feOffset dy="4"/>
<feGaussianBlur stdDeviation="2"/>
<feComposite in2="hardAlpha" operator="arithmetic" k2="-1" k3="1"/>
<feColorMatrix type="matrix" values="0 0 0 0 0.75 0 0 0 0 0.334375 0 0 0 0 0.415191 0 0 0 0.25 0"/>
<feBlend mode="normal" in2="shape" result="effect1_innerShadow"/>
</filter>
</defs>
</svg>
