<svg width="37" height="49" viewBox="0 0 37 49" fill="none" xmlns="http://www.w3.org/2000/svg">
<g filter="url(#filter0_i)">
<path d="M16.8404 19.5191C17.1604 19.5591 17.4204 19.5791 17.6204 19.5791C17.8604 19.5791 18.0604 19.5791 18.2204 19.5791C19.7004 19.5791 20.9004 19.1391 21.8204 18.2591C22.7404 17.3791 23.2004 16.2391 23.2004 14.8391C23.2004 13.4791 22.7604 12.3791 21.8804 11.5391C21.0404 10.6991 19.9404 10.2791 18.5804 10.2791C17.1404 10.2791 15.9804 10.7591 15.1004 11.7191C14.2204 12.6791 13.7804 13.9191 13.7804 15.4391H2.92039C3.20039 13.0791 3.78039 10.9791 4.66039 9.13914C5.58039 7.29914 6.74039 5.75914 8.14039 4.51914C9.54039 3.23914 11.1804 2.27914 13.0604 1.63914C14.9404 0.959139 17.0204 0.619138 19.3004 0.619138C21.5404 0.619138 23.5604 0.939138 25.3604 1.57914C27.2004 2.17914 28.7604 3.05914 30.0404 4.21914C31.3604 5.33914 32.3604 6.71914 33.0404 8.35914C33.7604 9.95914 34.1204 11.7591 34.1204 13.7591C34.1204 15.9191 33.7004 17.6991 32.8604 19.0991C32.0604 20.4591 30.9004 21.6391 29.3804 22.6391C31.7004 23.3591 33.5004 24.6591 34.7804 26.5391C36.1004 28.3791 36.7604 30.6591 36.7604 33.3791C36.7604 35.6191 36.3204 37.6591 35.4404 39.4991C34.5604 41.3391 33.3204 42.9191 31.7204 44.2391C30.1604 45.5591 28.2804 46.5791 26.0804 47.2991C23.9204 48.0191 21.5404 48.3791 18.9404 48.3791C15.4604 48.3791 12.3204 47.6991 9.52039 46.3391C6.72039 44.9791 4.48039 42.8191 2.80039 39.8591C2.04039 38.5391 1.52039 37.2191 1.24039 35.8991C1.00039 34.5791 0.880391 33.2391 0.880391 31.8791H12.5204C12.6004 33.9991 13.2204 35.6191 14.3804 36.7391C15.5404 37.8191 17.1004 38.3591 19.0604 38.3591C21.1404 38.3591 22.6604 37.7991 23.6204 36.6791C24.5804 35.5591 25.0604 34.1791 25.0604 32.5391C25.0604 30.5791 24.4804 29.0991 23.3204 28.0991C22.1604 27.0991 20.7804 26.5991 19.1804 26.5991C18.7804 26.5991 18.4004 26.6391 18.0404 26.7191C17.6804 26.7591 17.2804 26.8191 16.8404 26.8991V19.5191Z" fill="#FFB7C5"/>
</g>
<defs>
<filter id="filter0_i" x="0.880859" y="0.619141" width="35.88" height="51.76" filterUnits="userSpaceOnUse" color-interpolation-filters="sRGB">
<feFlood flood-opacity="0" result="BackgroundImageFix"/>
<feBlend mode="normal" in="SourceGraphic" in2="BackgroundImageFix" result="shape"/>
<feColorMatrix in="SourceAlpha" type="matrix" values="0 0 0 0 0 0 0 0 0 0 0 0 0 0 0 0 0 0 127 0" result="hardAlpha"/>
<feOffset dy="4"/>
<feGaussianBlur stdDeviation="2"/>
<feComposite in2="hardAlpha" operator="arithmetic" k2="-1" k3="1"/>
<feColorMatrix type="matrix" values="0 0 0 0 0.75 0 0 0 0 0.334375 0 0 0 0 0.415191 0 0 0 0.25 0"/>
<feBlend mode="normal" in2="shape" result="effect1_innerShadow"/>
</filter>
</defs>
</svg>
