<svg width="336" height="49" viewBox="0 0 336 49" fill="none" xmlns="http://www.w3.org/2000/svg">
<rect width="336" height="48.5793" rx="24.2897" fill="#060606"/>
<path d="M50.496 18.2764C49.272 17.0164 47.85 16.8724 47.094 16.8724C44.43 16.8724 43.242 18.6364 43.242 20.4004C43.242 21.6244 43.8 22.2904 44.196 22.6324C44.808 23.1724 45.564 23.4604 46.194 23.6764C46.878 23.9104 47.598 24.1444 48.048 24.5584C48.372 24.8644 48.516 25.2064 48.516 25.6384C48.516 26.6464 47.724 27.2944 46.662 27.2944C45.816 27.2944 44.718 26.8624 44.142 25.6924L42.612 27.1504C43.242 28.0684 44.538 29.4184 46.752 29.4184C49.236 29.4184 50.928 27.8164 50.928 25.4764C50.928 24.2524 50.442 23.4424 49.902 22.9564C49.29 22.3984 48.408 22.0744 47.472 21.7504C46.716 21.4804 46.32 21.3364 46.032 21.0664C45.744 20.8144 45.654 20.5444 45.654 20.2564C45.654 19.6444 46.05 18.8524 47.31 18.8524C47.742 18.8524 48.57 18.9424 49.272 19.8784L50.496 18.2764ZM52.9832 17.1424V24.4864C52.9832 25.6204 53.1632 26.7724 53.8832 27.6904C54.7472 28.8244 56.2592 29.4184 57.8072 29.4184C59.3552 29.4184 60.8672 28.8244 61.7312 27.6904C62.4512 26.7724 62.6312 25.6204 62.6312 24.4864V17.1424H60.2912V24.6844C60.2912 25.6024 59.9852 26.1604 59.7152 26.4664C59.3732 26.8804 58.7432 27.2944 57.8072 27.2944C56.8712 27.2944 56.2412 26.8804 55.8992 26.4664C55.6292 26.1604 55.3232 25.6024 55.3232 24.6844V17.1424H52.9832ZM65.3758 17.1424V29.1484H67.7158V17.1424H65.3758ZM69.1239 17.1424L74.1639 29.1484H75.5679L80.6439 17.1424H78.0879L74.8839 25.2064L71.6799 17.1424H69.1239ZM88.6999 17.1424H82.0399V29.1484H88.6999V27.1324H84.3799V23.8564H88.5199V21.8404H84.3799V19.1584H88.6999V17.1424ZM99.7176 17.1424H90.9156V19.1584H95.8296L89.9976 29.1484H99.4296V27.1324H93.8856L99.7176 17.1424ZM108.022 29.1484V21.1204L115.33 29.1484H116.95V17.1424H114.61V25.1524L107.302 17.1424H105.682V29.1484H108.022ZM125.524 16.8724C121.744 16.8724 119.116 19.5004 119.116 23.1544C119.116 26.8084 121.744 29.4184 125.524 29.4184C129.304 29.4184 131.932 26.8084 131.932 23.1544C131.932 19.5004 129.304 16.8724 125.524 16.8724ZM125.524 27.2944C123.184 27.2944 121.528 25.5844 121.528 23.1544C121.528 20.7244 123.184 18.9964 125.524 18.9964C127.864 18.9964 129.52 20.7244 129.52 23.1544C129.52 25.5844 127.864 27.2944 125.524 27.2944ZM134.089 17.1424V24.4864C134.089 25.6204 134.269 26.7724 134.989 27.6904C135.853 28.8244 137.365 29.4184 138.913 29.4184C140.461 29.4184 141.973 28.8244 142.837 27.6904C143.557 26.7724 143.737 25.6204 143.737 24.4864V17.1424H141.397V24.6844C141.397 25.6024 141.091 26.1604 140.821 26.4664C140.479 26.8804 139.849 27.2944 138.913 27.2944C137.977 27.2944 137.347 26.8804 137.005 26.4664C136.735 26.1604 136.429 25.6024 136.429 24.6844V17.1424H134.089ZM153.609 18.2764C152.385 17.0164 150.963 16.8724 150.207 16.8724C147.543 16.8724 146.355 18.6364 146.355 20.4004C146.355 21.6244 146.913 22.2904 147.309 22.6324C147.921 23.1724 148.677 23.4604 149.307 23.6764C149.991 23.9104 150.711 24.1444 151.161 24.5584C151.485 24.8644 151.629 25.2064 151.629 25.6384C151.629 26.6464 150.837 27.2944 149.775 27.2944C148.929 27.2944 147.831 26.8624 147.255 25.6924L145.725 27.1504C146.355 28.0684 147.651 29.4184 149.865 29.4184C152.349 29.4184 154.041 27.8164 154.041 25.4764C154.041 24.2524 153.555 23.4424 153.015 22.9564C152.403 22.3984 151.521 22.0744 150.585 21.7504C149.829 21.4804 149.433 21.3364 149.145 21.0664C148.857 20.8144 148.767 20.5444 148.767 20.2564C148.767 19.6444 149.163 18.8524 150.423 18.8524C150.855 18.8524 151.683 18.9424 152.385 19.8784L153.609 18.2764ZM167.426 18.2764C166.202 17.0164 164.78 16.8724 164.024 16.8724C161.36 16.8724 160.172 18.6364 160.172 20.4004C160.172 21.6244 160.73 22.2904 161.126 22.6324C161.738 23.1724 162.494 23.4604 163.124 23.6764C163.808 23.9104 164.528 24.1444 164.978 24.5584C165.302 24.8644 165.446 25.2064 165.446 25.6384C165.446 26.6464 164.654 27.2944 163.592 27.2944C162.746 27.2944 161.648 26.8624 161.072 25.6924L159.542 27.1504C160.172 28.0684 161.468 29.4184 163.682 29.4184C166.166 29.4184 167.858 27.8164 167.858 25.4764C167.858 24.2524 167.372 23.4424 166.832 22.9564C166.22 22.3984 165.338 22.0744 164.402 21.7504C163.646 21.4804 163.25 21.3364 162.962 21.0664C162.674 20.8144 162.584 20.5444 162.584 20.2564C162.584 19.6444 162.98 18.8524 164.24 18.8524C164.672 18.8524 165.5 18.9424 166.202 19.8784L167.426 18.2764ZM169.913 17.1424V24.4864C169.913 25.6204 170.093 26.7724 170.813 27.6904C171.677 28.8244 173.189 29.4184 174.737 29.4184C176.285 29.4184 177.797 28.8244 178.661 27.6904C179.381 26.7724 179.561 25.6204 179.561 24.4864V17.1424H177.221V24.6844C177.221 25.6024 176.915 26.1604 176.645 26.4664C176.303 26.8804 175.673 27.2944 174.737 27.2944C173.801 27.2944 173.171 26.8804 172.829 26.4664C172.559 26.1604 172.253 25.6024 172.253 24.6844V17.1424H169.913ZM182.306 17.1424V29.1484H184.646V24.3244H184.934L188.138 29.1484H191.054L187.31 24.0904C187.886 23.9824 188.318 23.7844 188.624 23.5684C189.56 22.9384 190.027 21.9124 190.027 20.7424C190.027 19.8424 189.758 18.8164 188.84 18.0424C188.282 17.5744 187.436 17.1424 185.78 17.1424H182.306ZM184.646 19.0504H185.348C185.78 19.0504 187.616 19.0684 187.616 20.8504C187.616 22.6144 185.762 22.6684 185.312 22.6684H184.646V19.0504ZM196.843 17.1424V29.1484H199.183V17.1424H196.843ZM204.263 29.1484V21.1204L211.571 29.1484H213.191V17.1424H210.851V25.1524L203.543 17.1424H201.923V29.1484H204.263ZM223.06 18.2764C221.836 17.0164 220.414 16.8724 219.658 16.8724C216.994 16.8724 215.806 18.6364 215.806 20.4004C215.806 21.6244 216.364 22.2904 216.76 22.6324C217.372 23.1724 218.128 23.4604 218.758 23.6764C219.442 23.9104 220.162 24.1444 220.612 24.5584C220.936 24.8644 221.08 25.2064 221.08 25.6384C221.08 26.6464 220.288 27.2944 219.226 27.2944C218.38 27.2944 217.282 26.8624 216.706 25.6924L215.176 27.1504C215.806 28.0684 217.102 29.4184 219.316 29.4184C221.8 29.4184 223.492 27.8164 223.492 25.4764C223.492 24.2524 223.006 23.4424 222.466 22.9564C221.854 22.3984 220.972 22.0744 220.036 21.7504C219.28 21.4804 218.884 21.3364 218.596 21.0664C218.308 20.8144 218.218 20.5444 218.218 20.2564C218.218 19.6444 218.614 18.8524 219.874 18.8524C220.306 18.8524 221.134 18.9424 221.836 19.8784L223.06 18.2764ZM231.852 19.1584V17.1424H224.112V19.1584H226.812V29.1484H229.152V19.1584H231.852ZM240.804 29.1484H243.324L238.302 17.1424H236.466L231.3 29.1484H233.838L234.9 26.6284H239.742L240.804 29.1484ZM235.638 24.7204L237.348 20.4004L239.058 24.7204H235.638ZM250.265 24.7384H253.361C253.163 25.6024 252.695 26.2144 252.227 26.5744C251.561 27.0784 250.661 27.2944 249.869 27.2944C248.591 27.2944 247.745 26.7904 247.205 26.2684C246.701 25.7824 246.017 24.8284 246.017 23.2264C246.017 21.8764 246.539 20.7244 247.223 20.0584C247.961 19.3384 249.041 18.9964 249.995 18.9964C250.553 18.9964 251.183 19.1224 251.687 19.3744C252.064 19.5724 252.677 19.9864 253.091 20.7964L255.125 19.6984C254.495 18.6184 253.649 17.8984 252.875 17.5024C251.957 17.0164 251.003 16.8724 250.103 16.8724C247.781 16.8724 246.269 17.7904 245.369 18.7084C244.649 19.4284 243.605 20.8504 243.605 23.1724C243.605 25.8724 244.973 27.3844 245.387 27.7984C246.701 29.1124 248.249 29.4184 249.743 29.4184C251.237 29.4184 252.767 29.0764 254.009 27.8344C255.665 26.1964 255.773 23.6764 255.773 22.8664V22.7224H250.265V24.7384ZM257.927 17.1424V29.1484H260.267V24.3244H260.555L263.759 29.1484H266.675L262.931 24.0904C263.507 23.9824 263.939 23.7844 264.245 23.5684C265.181 22.9384 265.649 21.9124 265.649 20.7424C265.649 19.8424 265.379 18.8164 264.461 18.0424C263.903 17.5744 263.057 17.1424 261.401 17.1424H257.927ZM260.267 19.0504H260.969C261.401 19.0504 263.237 19.0684 263.237 20.8504C263.237 22.6144 261.383 22.6684 260.933 22.6684H260.267V19.0504ZM276.435 29.1484H278.955L273.933 17.1424H272.097L266.931 29.1484H269.469L270.531 26.6284H275.373L276.435 29.1484ZM271.269 24.7204L272.979 20.4004L274.689 24.7204H271.269ZM279.744 29.1484H282.12L283.344 21.7504L286.422 29.1484H287.214L290.436 21.7504L291.516 29.1484H293.892L291.876 17.1424H290.184L286.854 24.7744L283.668 17.1424H281.976L279.744 29.1484Z" fill="#FEFEFE"/>
</svg>
