<svg width="204" height="41" viewBox="0 0 204 41" fill="none" xmlns="http://www.w3.org/2000/svg">
<path d="M164.462 0.633391C164.233 1.21991 163.429 1.21991 162.626 1.21991C163.085 0.750694 163.774 0.750694 164.462 0.633391ZM182.251 1.33721C183.973 1.45451 186.039 1.92373 186.727 0.750694C185.35 0.867997 183.858 0.281481 182.251 1.33721ZM169.742 1.68912C170.43 1.80642 171.463 2.04103 172.266 1.68912C171.693 1.68912 171.463 1.1026 171.004 0.9853C170.43 1.33721 170.201 1.57182 169.742 1.68912ZM175.824 1.68912C176.283 1.57182 177.087 1.92373 177.316 1.45451C176.857 1.45451 175.939 1.1026 175.824 1.68912ZM95.372 2.27563C95.1425 2.27563 95.0277 1.92373 94.4539 2.04103C95.372 2.86215 97.7822 2.27563 95.372 2.27563ZM75.2877 4.50439C75.7467 4.6217 75.632 4.15248 76.2058 4.26979C76.3206 4.8563 76.091 4.97361 75.8615 5.20821C77.0092 5.20821 76.0911 4.03518 77.124 4.26979C76.6649 3.91788 75.632 3.91788 75.2877 4.50439ZM33.7417 5.32552C34.2008 5.32552 34.7746 5.20821 35.0042 5.56012C35.2337 4.8563 33.8565 5.44282 34.4303 4.8563C33.9713 4.739 33.627 4.8563 33.7417 5.32552ZM56.9248 5.20821C57.4987 5.44282 57.9577 5.32552 58.1873 4.8563C57.7282 5.20821 57.1544 4.50439 56.9248 5.20821ZM67.0244 5.56012C67.4835 5.56012 68.0573 5.67743 68.0573 5.20821C67.713 5.32552 66.7949 4.8563 67.0244 5.56012ZM53.1375 5.79473C52.908 5.56012 52.4489 5.56012 52.1046 5.56012C51.7603 6.14664 53.1375 6.02934 53.1375 5.79473ZM0.229536 9.78304C0.918143 10.2522 1.72152 9.66573 2.06582 9.19652C1.14768 9.07922 0.688608 9.43113 0.229536 9.78304ZM201.188 10.8388C201.073 10.0176 201.991 10.1349 201.877 9.19652C200.729 8.96191 200.27 10.6042 201.188 10.8388ZM6.88607 9.66573C6.7713 10.1349 7.23037 10.0176 7.45991 10.2522C7.45991 10.0176 7.68944 9.90034 7.68944 9.54843C7.34514 9.43113 7.1156 9.43113 6.88607 9.66573ZM13.5426 10.7215C14.2312 10.8388 13.6574 9.66573 14.2312 9.66573C14.0017 9.66573 13.8869 9.54843 13.6574 9.43113C13.8869 10.0176 13.4278 10.0176 13.5426 10.7215ZM31.5611 14.9444C31.5611 14.4752 32.135 14.7098 32.135 14.3579C31.5611 13.8886 30.7578 14.7098 31.5611 14.9444ZM29.7249 15.2963C29.3806 15.179 29.7249 15.0617 29.7249 14.7098C29.3806 14.7098 29.3806 14.4752 29.0363 14.4752C29.151 14.8271 29.4953 15.7655 29.7249 15.2963ZM10.0996 16.5866C9.6405 16.352 8.95189 16.4693 8.83712 15.8828C8.83712 16.352 8.03375 16.5866 8.49282 16.9385C9.29619 16.8212 9.87003 16.9385 9.9848 17.525C10.9029 17.1731 9.87003 15.7655 10.9029 15.8828C11.1325 15.2963 9.9848 15.179 9.87003 15.5309C10.2143 15.5309 10.0996 16.1174 10.0996 16.5866ZM6.88607 17.1731C7.45991 17.1731 7.80421 17.0558 7.91898 16.5866C7.45991 16.352 7.00084 16.4693 6.88607 17.1731ZM5.16455 17.1731C5.62362 17.1731 6.0827 17.1731 6.65654 17.1731C6.65654 16.4693 5.04978 16.4693 5.16455 17.1731ZM1.83629 17.6423C2.18059 17.2904 2.98396 17.877 3.44303 17.2904C3.2135 17.1731 1.37722 16.9385 1.83629 17.6423ZM41.3164 18.9327C41.6607 18.9327 41.6607 18.6981 41.8902 18.5808C41.8902 18.1116 41.8902 17.6423 41.3164 17.6423C41.6607 18.5808 40.8573 18.3462 41.3164 18.9327ZM42.9232 19.1673C42.8084 18.5808 43.1527 18.4635 43.1527 18.1116C42.9232 18.1116 42.6936 17.7596 42.5788 18.1116C43.0379 18.2289 42.1198 19.1673 42.9232 19.1673ZM196.138 19.5192C196.712 19.4019 197.401 19.5192 197.63 18.9327C197.286 18.8154 196.138 18.8154 196.138 19.5192ZM10.9029 19.4019C11.5915 19.6365 12.0506 19.6365 12.5097 19.05C11.8211 18.9327 11.1325 19.05 10.9029 19.4019ZM43.3822 20.1057C43.8413 19.9884 43.7265 20.4576 44.3004 20.3403C44.4151 19.9884 44.8742 19.5192 44.3004 19.4019C44.3004 19.8711 43.6118 19.6365 43.3822 20.1057ZM27.5443 20.6922C28.3476 20.8095 28.5772 21.5134 29.3806 21.748C29.9544 21.0441 28.9215 20.6922 28.4624 20.223C28.3476 19.7538 29.2658 20.3403 29.151 19.8711C28.3476 19.6365 27.7738 19.8711 27.5443 20.6922ZM52.9079 20.1057C52.6784 20.6922 53.4818 20.3403 53.8261 20.4576C53.8261 19.7538 53.367 19.9884 52.9079 20.1057ZM51.5307 21.748C51.6455 22.2172 52.4489 22.8037 51.875 23.3902C52.6784 23.2729 52.5637 23.9767 53.1375 24.094C53.1375 23.5075 54.1704 23.9767 53.8261 23.1556C53.4818 22.6864 53.0227 23.8594 52.5637 23.1556C53.1375 23.0383 53.2523 22.2172 53.4818 21.6307C53.1375 21.6307 52.908 21.6307 52.7932 21.396C52.7932 21.748 53.0227 21.748 53.0227 22.0999C52.7932 22.0999 52.3341 22.2172 52.3341 21.8653C52.7932 21.5134 52.5637 21.6307 52.5637 20.9268C52.908 20.9268 52.908 21.1614 53.2523 21.1614C53.2523 20.223 51.416 21.0441 51.5307 21.748ZM18.0185 23.3902C18.5924 23.5075 18.3628 23.5075 18.9367 23.3902C19.0515 22.921 18.5924 23.0383 18.3628 22.8037C18.3628 23.1556 18.1333 23.1556 18.0185 23.3902ZM55.6624 24.4459C56.0067 23.9767 55.5476 23.8594 55.8919 23.3902C55.0885 23.5075 55.3181 24.094 55.6624 24.4459ZM45.9071 24.094C46.0219 24.094 46.2514 24.094 46.2514 24.3286C46.2514 24.7978 45.9071 24.9151 46.481 25.0324C46.7105 24.4459 46.3662 24.4459 46.7105 23.9767C46.5957 23.9767 46.481 23.9767 46.481 23.7421C46.1366 23.7421 46.0219 23.8594 45.9071 24.094ZM56.0067 25.9709C55.6624 25.1497 54.6295 24.9151 54.1704 24.094C53.2523 25.8536 55.2033 26.0882 56.0067 25.9709ZM34.4303 25.7363C34.7746 25.7363 34.7746 25.9709 35.0042 26.0882C34.7746 25.3844 35.578 25.9709 35.578 25.5017C35.0042 25.3844 35.3485 25.2671 35.3485 24.7978C35.0042 24.7978 35.0042 24.5632 34.6599 24.5632C34.6599 25.1497 34.3156 25.2671 34.4303 25.7363ZM5.50886 25.3844C5.16455 25.1497 4.36118 24.6805 3.90211 25.1497C4.24641 25.2671 5.16455 25.8536 5.50886 25.3844ZM22.1502 27.0266C22.6093 27.0266 23.4126 27.1439 23.4126 26.6747C22.8388 26.6747 22.3797 26.6747 22.1502 27.0266ZM23.8717 27.6131C23.4126 27.7304 22.6093 27.3785 22.3797 27.8477C23.0683 27.7304 23.5274 28.1996 23.8717 27.6131ZM23.9865 28.7861C23.1831 29.0208 22.265 28.5515 21.8059 29.1381C22.3797 29.0207 22.0354 29.8419 22.724 29.7246C22.724 28.9034 23.6422 29.8419 24.216 29.7246C24.3308 29.2554 24.4455 28.7861 24.5603 28.1996C24.3308 28.1996 24.216 28.0823 23.9865 27.965C23.6422 28.3169 23.9865 28.1996 23.9865 28.7861ZM4.59071 28.9034C4.93501 29.2554 4.93502 28.7861 5.50886 28.9034C5.50886 28.4342 5.39409 28.0823 4.93502 28.1996C5.04979 28.6688 4.59071 28.5515 4.59071 28.9034ZM182.251 29.9592C182.251 30.7803 180.185 30.4284 180.645 31.0149C182.366 30.3111 184.891 29.8419 186.727 28.7861C185.12 28.4342 184.088 29.9592 182.251 29.9592ZM81.7147 29.6073C81.7147 29.3727 82.1737 29.3727 82.2885 29.6073C82.2885 30.3111 81.4851 30.1938 81.2556 29.8419C81.1408 30.3111 81.5999 30.1938 81.4851 30.7803C82.059 30.663 82.518 30.8976 82.9771 31.0149C82.6328 30.4284 82.6328 30.5457 83.2066 30.0765C82.9771 29.9592 82.518 29.9592 82.6328 29.3727C81.9442 29.1381 81.2556 29.1381 81.7147 29.6073ZM190.17 29.8419C190.744 29.6073 191.662 29.8419 191.777 29.2554C191.203 29.3727 190.515 29.3727 190.17 29.8419ZM16.4118 29.8419C16.8709 29.7246 17.789 30.0765 18.0185 29.6073C17.3299 29.6073 16.8709 29.2554 16.4118 29.8419ZM68.7459 30.4284C69.0902 30.5457 69.3197 30.663 69.7788 30.4284C69.7788 29.9592 69.664 29.7246 69.4345 29.49C69.5493 30.0765 68.9754 29.9592 68.7459 30.4284ZM185.924 29.8419C186.039 30.663 187.301 31.0149 187.875 30.4284C187.645 30.3111 186.957 30.663 186.957 30.1938C187.301 30.1938 187.531 30.0765 187.531 29.6073C186.957 29.1381 186.612 29.9592 185.924 29.8419ZM34.086 30.4284C34.4303 30.5457 34.4303 30.8976 35.0042 30.7803C35.0042 30.1938 34.086 29.7246 34.086 30.4284ZM45.9071 30.8976C46.481 31.0149 46.94 30.0765 46.2514 29.9592C46.2514 30.3111 45.7923 30.3111 45.9071 30.8976ZM36.2666 31.2495C36.6109 31.4841 36.8405 31.9533 37.5291 31.836C37.9881 30.663 39.7097 32.4225 40.2835 31.1322C39.5949 31.0149 39.1358 31.6014 38.7915 30.8976C39.2506 30.8976 39.4801 30.8976 39.4801 30.5457C39.1358 29.9592 37.8734 30.1938 36.9552 30.1938C37.2995 31.1322 36.1519 30.663 36.2666 31.2495ZM38.562 30.5457C38.4472 30.663 38.3324 30.8976 38.3324 31.1322C37.7586 31.2495 37.6438 30.8976 37.2995 30.7803C37.7586 30.3111 38.1029 30.4284 38.562 30.5457ZM3.90211 31.1322C5.04978 31.0149 4.70548 30.8976 5.16455 31.4841C5.50885 31.3668 5.96793 31.3668 5.85316 30.8976C5.04979 31.0149 4.93502 30.4284 4.24641 30.3111C4.36118 30.8976 3.90211 30.7803 3.90211 31.1322ZM27.4295 31.1322C27.659 30.8976 28.1181 30.8976 28.1181 30.4284C27.8886 30.5457 27.2 30.1938 27.2 30.663C28.2329 30.5457 26.6261 30.8976 27.4295 31.1322ZM46.481 31.2495C46.8253 31.2495 46.8253 31.4841 47.1696 31.4841C46.94 30.7803 47.7434 31.3668 47.7434 30.8976C47.5139 30.8976 47.3991 30.8976 47.1696 30.8976C47.1696 30.7803 47.1696 30.5457 46.94 30.5457C46.94 30.8976 46.3662 30.663 46.481 31.2495ZM177.775 31.7187C177.661 31.1322 178.234 31.2495 178.349 30.7803C178.234 30.7803 178.12 30.7803 178.12 30.5457C178.005 30.5457 177.89 30.5457 177.775 30.5457C177.775 31.1322 177.201 31.2495 177.775 31.7187ZM50.6126 31.7187C51.416 31.6014 50.7274 31.1322 51.3012 30.7803C51.0717 30.7803 50.8421 30.7803 50.6126 30.7803C50.6126 31.0149 50.6126 31.3668 50.6126 31.7187ZM61.6303 31.4841C62.5485 31.3668 63.8109 31.4841 64.1552 30.7803C62.8928 31.0149 61.9746 30.4284 61.6303 31.4841ZM33.3974 31.2495C34.086 31.9533 34.7746 32.0706 35.6928 31.6014C35.578 30.5457 34.086 31.1322 33.3974 31.2495ZM76.8944 31.836C77.4683 31.7187 77.6978 31.4841 77.4683 30.8976C77.2387 30.8976 76.7797 30.7803 76.7797 31.1322C77.2387 31.2495 76.8944 31.3668 76.8944 31.836ZM80.4522 31.4841C80.6818 31.6014 81.0261 31.7187 81.0261 32.1879C80.2227 32.4225 79.4193 32.4225 78.8455 31.9533C78.5012 32.1879 78.2716 32.4225 77.9273 32.6571C77.9273 33.1264 78.1569 33.361 78.6159 33.361C78.9602 33.1264 78.8455 32.5398 79.5341 32.6571C79.8784 32.7745 80.1079 33.1264 80.2227 33.361C79.7636 33.4783 79.5341 33.8302 79.3045 34.2994C80.2227 34.534 80.3375 32.8918 80.9113 33.361C80.9113 33.9475 80.2227 33.7129 80.2227 34.2994C81.8294 35.0032 80.6818 32.7745 81.7147 33.2437C81.8294 32.5398 81.0261 32.7745 81.1408 32.1879C81.5999 31.9533 82.4033 31.9533 82.4033 31.2495C81.4851 30.8976 81.9442 31.836 81.3704 31.836C81.3704 31.3668 81.0261 31.4841 81.3704 31.1322C80.9113 31.1322 80.4522 31.1322 80.4522 31.4841ZM41.6607 32.1879C42.6936 32.1879 42.2345 31.7187 43.1527 31.2495C42.8084 31.2495 42.4641 31.2495 42.1198 31.2495C41.8902 31.6014 41.5459 31.7187 41.6607 32.1879ZM60.1383 31.7187C60.1383 31.9533 60.1383 32.1879 60.1383 32.4225C60.7122 32.8918 60.7122 32.0706 61.1712 32.4225C61.1712 32.0706 60.9417 32.0706 60.9417 31.7187C61.1712 31.7187 61.4008 31.7187 61.286 31.3668C60.8269 31.2495 60.5974 31.4841 60.1383 31.7187ZM118.44 32.5398C118.785 32.5398 119.014 32.5398 119.129 32.7745C118.785 32.1879 119.359 31.836 118.785 31.7187C118.899 32.3052 118.555 32.1879 118.44 32.5398ZM186.383 32.7745C186.957 32.4225 187.301 32.4225 187.875 32.5398C187.99 31.7187 186.842 32.0706 186.383 31.836C186.498 32.4225 186.039 32.4225 186.383 32.7745ZM179.038 32.5398C179.382 32.5398 179.726 32.5398 180.071 32.5398C180.185 31.836 179.038 32.3052 179.038 32.5398ZM55.0885 33.0091C54.7442 32.8918 54.5147 32.5398 53.8261 32.6571C53.8261 33.2437 54.859 33.7129 55.0885 33.0091ZM12.6245 33.361C12.9688 33.2437 13.7721 33.5956 13.8869 33.1264C13.6574 33.1264 13.5426 32.7745 13.3131 32.7745C13.4278 33.2437 12.7392 32.8918 12.6245 33.361ZM23.2979 32.7745C22.8388 32.7745 22.4945 32.7745 22.0354 32.7745C22.0354 33.7129 23.2979 33.1264 23.2979 32.7745ZM9.6405 33.7129C10.0996 33.4783 10.4439 33.4783 10.9029 33.7129C11.0177 33.0091 9.52573 33.2437 9.6405 33.7129ZM101.684 33.7129C102.029 33.8302 102.832 34.1821 102.947 33.4783C102.717 33.2437 102.029 33.4783 101.684 33.7129ZM89.0598 34.0648C89.4041 34.0648 89.4041 34.2994 89.7484 34.2994C89.7484 34.0648 89.7484 33.8302 89.7484 33.5956C89.4041 33.4783 89.2893 33.8302 89.0598 34.0648ZM104.898 34.4167C105.472 34.2994 106.734 34.534 107.767 34.4167C107.767 34.6513 106.964 35.0032 107.767 35.0032C107.882 34.6513 108.111 34.4167 108.456 34.2994C107.652 33.9475 105.931 33.4783 104.898 34.4167ZM104.783 34.0648C104.439 33.5956 103.98 34.4167 103.521 33.8302C103.291 34.6513 104.783 34.6513 104.783 34.0648ZM69.0902 34.7686C69.0902 34.4167 69.5493 34.6513 69.6641 34.4167C69.205 34.4167 69.0902 34.1821 68.7459 34.0648C68.7459 34.534 68.8607 34.7686 69.0902 34.7686ZM142.197 35.1205C143.115 34.8859 144.263 35.8243 144.493 34.8859C143.46 34.534 143.001 34.2994 142.197 35.1205ZM140.705 35.0032C140.246 34.534 139.787 34.7686 139.443 34.6513C139.672 35.0032 140.705 35.5897 140.705 35.0032ZM181.563 35.3551C182.251 35.4724 182.136 34.8859 182.481 34.6513C182.022 34.7686 181.563 34.7686 181.563 35.3551ZM48.7763 35.1205C49.1206 35.2378 49.924 35.707 50.0388 35.3551C49.8092 34.7686 49.2354 34.6513 48.7763 35.1205ZM106.16 35.1205C105.586 35.1205 105.357 34.8859 104.898 34.7686C104.668 35.4724 106.045 35.4724 106.16 35.1205ZM21.3468 35.1205C20.5434 35.1205 20.3139 35.5897 20.0844 36.1762C21.8059 35.8243 22.724 36.0589 24.7898 36.4109C24.3308 35.4724 24.7898 35.3551 25.0194 35.1205C23.2979 34.8859 22.0354 36.0589 20.8877 35.707C21.0025 35.5897 21.232 35.4724 21.3468 35.1205ZM25.0194 36.2935C26.0523 36.4108 27.2 36.6455 28.1181 36.0589C26.9704 35.3551 26.9704 35.4724 25.9375 35.1205C25.4785 35.707 25.5932 35.707 25.0194 36.2935ZM107.423 35.3551C107.193 35.3551 107.078 35.0032 106.734 35.1205C107.308 35.9416 109.259 35.4724 107.423 35.3551ZM108.685 35.707C109.603 35.5897 110.98 35.9416 111.554 35.4724C110.521 35.1205 109.029 35.3551 108.685 35.707ZM0.918146 37.5839C1.26245 38.0531 1.95106 38.0531 2.41013 37.5839C2.18059 37.5839 1.95106 37.5839 1.83629 37.3493C2.8692 37.7012 4.13164 36.6455 3.32827 36.4109C3.2135 37.4666 1.60675 36.7628 0.918146 37.5839ZM4.01687 37.5839C4.93501 37.7012 5.04979 37.1147 5.27932 36.6455C4.59071 36.7628 4.70548 37.4666 4.01687 37.5839ZM161.478 40.1646C161.593 39.6953 162.741 40.2819 162.511 39.4607C162.282 39.1088 160.675 39.4607 161.478 40.1646ZM164.807 0.750694C164.921 0.398784 166.184 0.398784 165.725 0.046875C165.61 0.398784 164.233 0.281481 164.807 0.750694ZM156.084 0.750694C156.543 1.1026 157.002 0.398784 157.347 0.164178C156.888 0.398784 156.084 0.281481 156.084 0.750694ZM191.088 1.57182C189.711 2.27563 188.908 1.21991 187.531 1.92373C187.875 1.92373 187.875 2.15833 188.104 2.27563C188.104 1.68912 189.023 1.92373 189.137 2.27563C189.137 2.62754 188.449 2.39294 188.449 2.86215C188.908 2.97945 189.826 2.51024 189.711 3.21406C189.711 3.80058 188.219 2.97945 188.449 3.80058C189.482 3.80058 190.515 3.44867 191.662 3.80058C192.236 2.15833 191.433 2.39294 191.088 1.57182ZM116.834 4.50439C116.834 4.6217 116.834 4.739 116.834 4.8563C116.489 4.50439 116.26 4.8563 115.915 5.09091C115.686 4.739 115.227 4.6217 114.997 4.15249C114.538 4.8563 113.735 4.26979 113.505 5.09091C113.046 4.6217 112.472 5.44282 112.013 4.8563C112.013 5.32552 112.013 5.79473 111.669 5.79473C111.21 5.09091 111.899 4.38709 111.325 3.91788C110.521 4.15248 109.374 4.03518 109.144 4.97361C109.603 5.09091 109.948 5.20821 110.062 5.67743C108.57 6.14664 108.341 4.38709 106.849 4.38709C106.849 4.15248 107.193 4.26979 107.193 4.03518C104.898 2.97945 100.766 4.38709 98.7003 3.44867C98.7003 3.21406 99.0446 2.97945 98.7003 2.86215C98.5855 3.09676 98.1265 3.09676 97.7822 3.21406C95.0277 2.39294 90.8961 2.86215 87.6826 3.21406C87.5678 3.44867 87.4531 3.68327 87.3383 3.91788C87.9121 3.91788 88.1417 4.03518 88.6007 4.50439C88.3712 3.91788 88.7155 3.91788 88.2564 3.56597C88.945 3.80058 89.5189 2.97945 89.8632 3.56597C89.8632 4.15249 88.8303 3.68327 88.945 4.26979C89.4041 4.739 89.7484 4.50439 89.978 5.20821C89.4041 5.44282 88.8303 5.56012 88.3712 5.79473C88.2564 5.44282 88.6007 5.32552 88.3712 5.20821C87.5678 6.26394 85.3872 5.32552 84.2396 5.44282C84.4691 4.8563 84.4691 4.26979 84.5839 4.15249C85.6168 4.6217 86.8792 3.33136 85.6168 3.80058C85.7315 3.80058 85.9611 3.80058 85.9611 4.03518C85.2725 4.03518 84.8134 4.03518 85.3872 3.68327C83.3214 4.15248 80.7965 3.09676 78.7307 4.26979C77.9273 4.26979 77.4683 3.21406 77.124 4.26979C77.583 4.6217 78.2716 4.38709 78.6159 4.6217C78.6159 5.09091 78.0421 4.8563 78.0421 5.20821C78.9602 5.32552 79.4193 5.44282 80.2227 4.97361C80.1079 5.56012 80.7965 5.20821 80.7965 5.67743C77.8126 6.14664 74.3695 4.97361 71.5003 6.96776C70.9265 6.61585 69.8936 6.73315 69.5493 6.26394C69.7788 6.26394 70.8117 6.26394 70.2379 6.02934C69.205 6.02934 68.9754 6.38124 68.6311 6.26394C68.8607 6.26394 68.8607 6.49855 68.9754 6.61585C68.6311 6.61585 68.4016 6.61585 68.0573 6.61585C68.0573 6.38124 68.2868 6.26394 67.8278 6.26394C66.9096 7.20237 63.5814 6.96776 62.4337 6.85046C62.778 6.85046 62.8928 6.73315 63.0075 6.49855C61.6303 6.49855 60.8269 6.38124 59.9088 7.43697C59.9088 7.31967 59.9088 7.20237 59.6793 7.20237C60.2531 6.85046 60.0236 6.14664 60.5974 6.14664C60.2531 5.67743 60.0236 5.32552 60.8269 5.09091C60.2531 5.20821 59.5645 4.50439 59.2202 4.8563C59.4497 5.09091 59.794 5.20821 59.9088 5.44282C59.2202 5.44282 58.7611 5.44282 58.6463 5.67743C58.7611 5.67743 58.8759 5.67743 58.8759 5.91203C58.7611 5.91203 58.6463 5.91203 58.6463 6.14664C59.5645 5.91203 59.9088 6.02934 60.0236 6.61585C59.3349 6.26394 58.4168 6.61585 57.843 5.56012C56.9248 6.38124 55.2033 4.97361 55.3181 6.14664C54.6295 5.91203 54.9738 5.79473 54.1704 5.79473C54.0556 6.49855 53.5966 6.61585 54.3999 6.85046C52.4489 7.08506 51.0717 7.90619 49.5797 6.85046C49.6945 6.49855 50.3831 6.02934 49.924 5.79473C49.4649 6.14664 48.8911 4.97361 47.9729 5.20821C48.0877 4.8563 48.7763 5.20821 48.8911 4.8563C48.2025 4.97361 47.8582 4.26979 47.6286 5.09091C48.5468 5.20821 47.2843 5.32552 47.3991 5.79473C47.7434 5.91203 47.9729 5.20821 48.0877 5.79473C47.3991 6.38124 47.2843 6.61585 46.481 6.85046C47.2843 6.96776 47.7434 6.38124 48.0877 7.08506C47.5139 6.96776 46.7105 7.67158 46.2514 7.08506C46.1367 6.61585 46.5957 6.73315 46.481 6.14664C46.0219 6.26394 45.9071 6.96776 45.7924 7.20237C44.989 7.08506 44.6447 7.43697 43.9561 7.55428C43.497 6.96776 42.5789 6.73315 42.3493 5.91203C43.1527 6.02934 43.6118 5.44282 43.9561 6.14664C43.9561 6.38124 43.6118 6.26394 43.6118 6.49855C43.8413 6.73315 44.8742 6.85046 44.8742 6.26394C44.7594 6.02934 44.1856 6.26394 44.1856 5.91203C44.4151 5.67743 44.989 5.67743 45.448 5.67743C45.2185 4.8563 46.2514 5.32552 46.1367 4.739C45.3333 4.739 45.1037 5.20821 44.6447 4.6217C44.989 5.32552 43.3822 4.8563 44.0708 5.20821C44.3004 5.32552 44.989 4.97361 44.989 5.44282C42.8084 5.79473 41.2016 5.79473 39.021 5.67743C39.2506 5.67743 39.4801 5.67743 39.5949 5.44282C39.1358 5.56012 39.1358 5.20821 38.6768 5.20821C38.7915 5.91203 37.7586 5.56012 37.6438 6.14664C38.6767 6.49855 39.3654 5.91203 40.3983 6.38124C39.1358 6.61585 37.5291 6.85046 36.8405 6.14664C36.3814 6.38124 36.7257 6.49855 36.4962 6.73315C35.6928 6.02934 34.5451 7.31967 34.3156 5.79473C33.5122 5.91203 31.9054 6.38124 31.7907 5.09091C31.3316 4.8563 28.5772 5.32552 29.2658 4.50439C28.0033 4.38709 27.5443 5.44282 26.5114 4.739C26.2818 5.56012 25.2489 5.56012 24.216 5.44282C24.4455 5.79473 23.6422 6.02933 24.216 6.14664C24.3308 6.14664 26.8557 5.20821 26.3966 6.73315C26.9704 6.85046 27.3147 6.26394 27.4295 6.96776C26.7409 6.73315 26.8557 7.31967 26.5114 7.55428C26.5114 7.20237 26.3966 7.08506 26.1671 6.96776C25.8228 7.43697 26.3966 7.78888 25.8228 8.02349C25.2489 7.55428 25.0194 8.2581 24.7898 8.61C24.1012 8.2581 23.1831 8.02349 22.6093 7.55428C22.1502 7.78888 22.9536 8.14079 22.3797 8.2581C22.1502 8.2581 22.0354 8.2581 21.8059 8.2581C21.8059 7.90619 22.265 7.90619 22.3797 7.55428C22.0354 7.67158 21.3468 7.31967 21.3468 7.78888C22.3797 7.90619 21.1173 9.19652 20.6582 8.4927C20.8877 8.84461 20.0844 9.07922 20.6582 9.19652C20.6582 8.84461 21.3468 9.43113 21.5763 9.54843C21.4616 9.90034 20.773 9.66573 20.6582 10.1349C20.773 10.3696 21.232 10.3696 21.232 10.8388C21.6911 10.7215 22.4945 10.8388 22.4945 10.2522C22.0354 10.1349 22.1502 10.6042 21.5763 10.4869C21.5763 10.2522 21.4616 10.1349 21.3468 9.90034C21.9207 10.1349 22.265 10.0176 22.3797 9.54843C22.1502 8.96191 21.6911 9.66573 21.6911 9.19652C21.8059 8.96191 21.4616 8.2581 21.9207 8.2581C22.265 8.61 22.3797 8.2581 22.8388 8.2581C22.724 8.84461 23.6422 8.61 23.5274 9.19652C24.1012 9.19652 23.9865 8.4927 24.5603 8.61C24.5603 8.96191 24.1012 8.96191 23.9865 9.31382C24.9046 9.43113 25.0194 9.43113 25.4785 8.72731C25.9375 9.31382 26.3966 8.72731 26.7409 9.31382C25.1341 10.0176 23.9865 9.90034 22.6093 9.66573C22.265 11.0734 24.5603 10.1349 24.7898 10.3696C24.6751 10.9561 23.9865 10.8388 23.8717 11.308C25.3637 11.1907 25.3637 11.5426 26.9704 11.308C26.8557 11.8945 27.4295 12.2464 26.7409 12.3637C25.4785 10.9561 24.1012 12.481 22.0354 12.1291C21.8059 12.9502 23.0683 12.3637 22.9536 13.1848C22.724 13.1848 22.724 13.3021 22.6093 13.4194C21.1173 13.4194 18.8219 13.5367 18.8219 11.4253C18.7072 11.7772 17.9038 11.1907 17.5595 11.1907C17.4447 11.8945 18.5924 11.4253 18.8219 11.8945C18.2481 12.7156 18.7072 12.9502 19.1662 13.5367C17.9038 13.7713 18.2481 12.7156 17.6742 12.5983C17.6742 12.9502 17.9038 12.9502 17.9038 13.3021C17.1004 13.0675 16.1823 13.8886 15.9527 13.0675C16.1823 12.5983 17.1004 12.8329 17.2152 12.1291C16.9856 11.7772 16.4118 11.8945 16.5266 11.1907C15.2641 12.1291 13.8869 10.8388 12.9688 11.8945C12.6245 11.6599 11.8211 11.8945 11.7063 11.308C12.6245 11.1907 11.5915 10.9561 11.7063 10.6042C11.7063 10.2522 12.1654 10.4869 12.2802 10.2522C12.0506 10.1349 11.8211 10.0176 11.7063 9.90034C11.8211 9.54843 11.4768 8.84461 11.9359 8.84461C12.6245 9.43113 13.3131 8.96191 13.7721 8.84461C12.0506 8.96191 10.6734 7.90619 8.95189 8.61C9.6405 8.61 9.87003 8.96191 10.2143 9.31382C10.7882 9.43113 10.6734 8.72731 11.2472 8.96191C10.9029 10.1349 11.362 9.43113 11.362 9.78304C11.5915 10.7215 11.0177 10.3696 11.362 11.4253C10.3291 11.0734 10.3291 11.7772 10.0996 12.3637C9.29619 12.3637 9.41096 11.308 8.49282 11.4253C8.26328 12.2464 7.23037 12.3637 6.54176 12.7156C6.31223 13.4194 7.1156 12.8329 7.1156 13.3021C5.96793 13.654 5.50886 11.8945 4.36118 13.0675C4.36118 12.481 5.16455 12.0118 4.36118 11.7772C4.36118 13.0675 3.2135 12.3637 2.52489 12.7156C2.75443 12.8329 3.2135 12.8329 3.09873 13.4194C1.72152 13.4194 0.803375 13.7713 0 14.0059C0.688607 14.7098 2.75443 12.8329 3.90211 14.2406C3.2135 14.1233 2.52489 14.9444 2.41013 14.9444C3.5578 15.0617 4.01688 14.8271 4.70548 15.179C4.82025 14.4752 5.50885 14.5925 5.73839 14.9444C5.96793 14.8271 5.73839 14.2406 6.31223 14.3579C7.57467 15.5309 10.7882 14.0059 11.0177 15.4136C11.0177 15.0617 11.5915 14.4752 11.7063 14.8271C11.7063 15.2963 11.0177 14.9444 11.1325 15.5309C11.4768 15.8828 12.0506 15.2963 12.7392 15.2963C12.5097 16.4693 11.5915 15.6482 10.4439 16.0001C10.7882 16.8212 11.2472 16.352 12.0506 16.7039C11.9359 17.2904 12.5097 17.877 12.7392 17.4077C12.3949 17.4077 12.7392 16.8212 12.9688 16.8212C13.7721 16.7039 13.6574 17.2904 14.0017 17.525C13.8869 16.8212 13.8869 16.8212 13.6574 16.0001C14.1164 16.1174 15.0346 15.2963 15.1493 16.2347C14.805 16.2347 14.4607 16.2347 14.1164 16.2347C14.1164 17.525 15.1493 16.5866 15.7232 16.4693C16.4118 17.4077 17.5595 16.352 18.2481 17.0558C18.2481 17.2904 18.3628 17.2904 18.4776 17.4077C17.1004 17.877 16.6413 17.2904 15.6084 17.1731C15.4937 17.877 14.805 17.9943 14.0017 17.877C13.7721 18.4635 14.5755 17.9943 14.346 18.5808C13.6574 18.6981 13.4278 18.5808 13.3131 18.8154C13.6574 18.9327 13.8869 19.1673 14.0017 19.5192C14.5755 19.7538 14.6903 18.5808 14.9198 19.1673C14.2312 19.5192 14.4607 20.8095 13.8869 21.1614C14.0017 19.9884 12.7392 21.0441 12.3949 21.1614C12.5097 21.2787 11.4768 22.8037 10.9029 22.2172C11.4768 22.0999 11.4768 21.5134 11.4768 21.2787C11.0177 21.1614 11.362 22.2172 10.5586 21.5133C10.3291 22.3345 9.52573 22.5691 9.29619 23.3902C9.52573 23.3902 9.9848 23.2729 9.9848 23.6248C9.06666 23.7421 10.2143 23.7421 9.9848 24.2113C9.29619 24.3286 7.45991 24.6805 6.427 24.4459C6.54177 25.1497 7.57468 24.6805 8.26328 25.0324C8.03375 25.0324 7.57468 24.9151 7.57468 25.2671C8.03375 25.3844 7.91898 25.5017 8.14852 26.2055C7.68944 26.2055 7.45991 26.4401 6.65654 26.5574C6.54177 26.2055 7.68944 26.0882 7.00084 25.8536C6.7713 26.4401 6.54176 25.9709 5.96793 26.2055C6.31223 26.9093 5.85316 26.792 5.39409 27.1439C6.08269 27.4958 7.68944 26.5574 8.26328 27.3785C7.80421 27.7304 8.14852 28.0823 7.57468 28.4342C7.00084 27.7304 6.31223 28.6688 5.62362 28.6688C6.88607 29.0208 4.36118 29.49 4.13164 30.1938C4.70548 30.1938 4.93502 29.8419 5.62362 29.9592C5.50886 29.0208 7.11561 28.7861 7.57468 29.0208C6.7713 29.1381 7.23037 29.3727 7.57468 29.6073C7.23037 29.8419 6.427 29.6073 6.31223 30.1938C7.1156 30.4284 7.80421 29.6073 8.26328 30.1938C8.14851 30.4284 8.03375 30.663 7.91898 30.7803C7.91898 30.663 7.91898 30.5457 7.91898 30.4284C7.34514 30.3111 7.1156 30.7803 6.88607 30.4284C7.23037 31.3668 9.06666 30.7803 9.75526 31.3668C9.52573 30.7803 10.3291 31.2495 10.0996 30.663C9.52573 30.663 8.95189 31.1322 8.83712 30.4284C9.52573 30.4284 8.95189 30.0765 9.06666 29.7246C9.9848 29.2554 10.2143 30.1938 10.6734 29.49C10.4439 29.3727 10.3291 28.3169 10.6734 27.8477C10.3291 27.7304 9.6405 28.0823 9.6405 27.6131C10.0996 27.6131 10.3291 27.6131 10.3291 27.2612C9.64049 27.3785 8.83712 27.2612 8.83712 27.965C8.03375 27.2612 9.87003 27.1439 8.83712 26.6747C9.75526 26.3228 9.75526 27.1439 9.87003 26.4401C10.6734 26.5574 10.5586 27.0266 10.7882 27.3785C11.0177 27.2612 10.7882 26.6747 11.1325 26.6747C11.2472 27.0266 11.362 26.6747 11.7063 26.6747C11.362 27.3785 11.8211 27.2612 12.0506 27.7304C11.7063 27.7304 11.5915 27.8477 11.4768 28.0823C12.0506 28.4342 12.854 28.1996 13.6574 28.4342C13.6574 28.5515 13.6574 28.6688 13.6574 28.7861C12.2802 28.5515 11.7063 29.7246 10.5586 30.663C12.0506 30.4284 10.2143 31.7187 11.5915 31.7187C11.0177 30.7803 12.5097 30.7803 12.2802 30.1938C12.3949 30.7803 13.7721 30.4284 13.3131 30.1938C12.9688 30.0765 12.7392 30.7803 12.6245 30.1938C12.854 29.9592 13.4278 29.9592 13.8869 29.9592C14.1164 29.2554 13.3131 29.8419 13.3131 29.3727C13.6574 28.9034 14.1164 28.6688 14.9198 28.6688C14.9198 28.0823 14.9198 27.4958 14.5755 27.3785C15.4937 27.0266 16.1823 27.3785 17.4447 27.1439C17.3299 26.4401 18.1333 26.3228 18.4776 25.619C18.8219 25.9709 19.281 26.0882 19.5105 26.2055C19.6253 26.9093 17.9038 26.6747 18.2481 26.9093C19.3958 27.0266 20.1991 26.3228 21.0025 27.1439C20.4287 27.4958 19.9696 26.792 19.7401 27.4958C20.6582 27.965 21.4616 27.0266 21.3468 26.5574C21.1173 26.9093 20.5434 26.3228 20.4287 26.3228C20.4287 25.8536 20.5434 25.5017 21.0025 25.619C22.0354 27.0266 22.3797 24.6805 23.5274 24.9151C23.6422 25.619 23.9865 25.9709 24.4455 26.2055C24.6751 25.5017 25.2489 27.0266 25.3637 26.4401C25.0194 26.2055 24.6751 25.9709 24.7898 25.1497C24.4455 25.1497 23.1831 24.9151 24.1012 24.2113C23.0683 24.7978 22.1502 23.6248 21.8059 24.5632C22.265 24.5632 22.724 24.5632 22.724 24.9151C21.9207 25.2671 20.3139 24.5632 21.4616 23.8594C20.6582 23.9767 20.3139 23.7421 19.6253 23.6248C19.5105 23.9767 20.1991 24.4459 19.6253 24.5632C19.0515 24.6805 19.281 24.2113 19.3958 23.9767C18.8219 23.8594 18.7072 24.4459 19.0515 24.6805C18.1333 25.2671 16.297 25.3844 15.2641 24.3286C15.6084 24.094 16.7561 24.094 16.8709 24.6805C16.5266 24.7978 16.0675 24.094 16.1823 24.9151C16.6413 24.9151 17.1004 24.9151 17.6742 24.9151C17.789 24.4459 18.1333 24.3286 18.2481 23.8594C17.9038 23.7421 17.2152 24.094 17.2152 23.6248C17.789 22.8037 17.9038 20.9268 19.5105 20.8095C19.3958 18.8154 17.6742 21.1614 16.6413 20.1057C16.4118 20.8095 14.9198 21.396 14.346 21.0441C15.2641 20.3403 14.9198 20.6922 14.5755 19.9884C14.805 19.8711 15.0346 19.7538 15.4937 19.7538C15.7232 18.9327 15.4937 18.4635 16.0675 17.877C15.9527 18.3462 16.8709 17.7596 16.7561 18.2289C16.6413 18.9327 16.1823 19.1673 16.5266 19.8711C18.1333 18.8154 21.0025 18.9327 21.9207 18.9327C21.9207 19.2846 21.8059 19.4019 21.5763 19.5192C20.3139 19.4019 20.0844 19.6365 19.3958 19.8711C20.5434 20.1057 20.1991 20.223 20.6582 20.9268C20.1991 21.0441 19.5105 21.1614 19.0515 21.2787C19.1662 21.5134 18.8219 22.2172 19.281 22.2172C19.281 21.748 19.8548 21.8653 20.3139 21.8653C20.3139 22.8037 21.3468 22.6864 21.232 23.3902C21.9206 23.1556 22.4945 23.5075 23.1831 23.0383C22.724 22.921 23.7569 22.6864 23.1831 22.3345C23.5274 22.3345 23.7569 22.3345 24.1012 22.3345C23.6422 21.6307 24.3308 21.8653 24.6751 21.396C24.4455 20.9268 23.9865 21.748 23.7569 21.1614C24.216 20.223 23.7569 19.8711 23.7569 19.1673C23.2979 19.2846 23.0683 19.4019 22.724 19.5192C22.8388 19.9884 22.9536 20.1057 22.4945 20.4576C21.5763 20.4576 21.5763 20.3403 20.8877 20.6922C20.8877 20.4576 20.6582 20.4576 20.6582 20.1057C21.6911 19.8711 22.4945 19.7538 22.9536 18.5808C24.1012 18.3462 24.3308 18.5808 25.4785 17.9943C25.5932 18.4635 25.708 18.8154 26.1671 18.9327C25.9375 18.4635 26.0523 17.877 25.8228 17.4077C26.0523 17.6423 26.5114 17.6423 26.8557 17.6423C27.0852 16.7039 26.0523 17.7596 26.1671 17.2904C26.5114 17.2904 26.6261 16.9385 26.8557 16.7039C27.0852 16.8212 27.3147 16.9385 27.5443 17.0558C27.8886 16.7039 28.1181 16.0001 28.4624 15.5309C26.8557 16.352 25.8228 15.8828 26.5114 14.4752C27.0852 14.3579 26.6261 15.4136 27.2 15.179C27.4295 14.8271 27.0852 14.5925 27.4295 14.1233C26.8557 14.1233 26.1671 14.0059 25.9375 14.4752C25.708 13.7713 25.4785 14.1233 24.6751 14.1233C24.6751 14.5925 24.6751 14.9444 24.6751 15.4136C25.3637 15.6482 24.7898 14.8271 25.2489 14.8271C25.708 14.8271 26.0523 14.9444 25.9375 15.4136C25.2489 15.6482 24.4455 15.8828 23.4126 15.7655C23.5274 16.7039 22.4945 16.4693 21.8059 16.4693C21.5763 16.9385 22.4945 17.0558 22.0354 17.1731C21.3468 17.525 20.773 17.2904 20.4287 17.7596C20.0844 16.9385 19.6253 16.2347 20.4287 15.7655C19.5105 15.6482 18.7072 14.8271 17.5595 15.4136C17.9038 14.0059 19.9696 15.0617 20.6582 14.3579C20.4287 14.3579 19.9696 14.4752 19.9696 14.1233C22.9536 12.9502 25.5932 14.4752 27.8886 13.0675C27.8886 13.3021 29.2658 13.5367 29.3806 13.654C29.0363 13.1848 30.1839 12.9502 29.9544 12.3637C29.9544 12.8329 30.5282 12.8329 30.5282 13.3021C31.1021 13.0675 31.4464 13.0675 31.7907 13.5367C31.7907 13.1848 31.5611 13.1848 31.5611 12.8329C33.627 12.9502 34.2008 13.0675 35.4632 13.4194C35.0042 13.1848 36.7257 13.1848 36.4962 13.7713C35.3485 13.654 34.6599 14.1233 32.9384 14.0059C33.0531 14.5925 32.7088 14.5925 32.5941 14.9444C33.2827 15.0617 33.3974 15.2963 33.627 15.2963C33.627 16.1174 32.2497 15.6482 31.7907 16.0001C32.135 16.4693 33.0531 16.352 33.3974 16.7039C33.0531 17.0558 32.7088 16.8212 32.4793 16.4693C32.135 17.1731 32.4793 17.0558 32.7088 17.525C32.0202 17.6423 31.7907 17.2904 31.7907 16.8212C32.0202 16.8212 32.135 17.0558 32.135 16.5866C32.0202 16.5866 31.9054 16.5866 31.9054 16.352C31.9054 16.2347 31.9054 16.1174 31.6759 16.1174C31.5611 16.352 31.4464 16.4693 31.1021 16.4693C31.4464 16.1174 31.1021 15.7655 31.1021 15.4136C31.5611 15.4136 31.7907 15.4136 31.7907 15.0617C31.2168 15.0617 30.2987 15.7655 29.6101 15.4136C29.9544 15.2963 29.9544 16.4693 29.6101 16.352C29.6101 16.2347 29.6101 16.0001 29.3806 16.0001C28.9215 16.5866 29.8396 16.5866 30.4135 16.5866C29.9544 17.2904 30.7578 16.8212 30.9873 17.1731C30.5282 17.1731 30.7578 17.877 30.2987 17.877C29.8396 17.4077 29.3806 17.4077 29.2658 18.1116C28.6919 17.877 28.692 17.4077 29.0363 17.0558C28.5772 17.0558 28.1181 17.0558 28.1181 17.4077C28.3476 17.4077 28.5772 17.4077 28.4624 17.7596C27.659 17.525 27.7738 18.1116 27.5443 18.4635C28.1181 18.4635 28.1181 18.8154 28.8067 19.05C29.151 18.9327 29.151 18.4635 29.3806 18.3462C29.4953 18.6981 30.5282 18.2289 30.643 18.6981C29.9544 18.4635 30.5282 19.5192 30.0692 19.4019C29.6101 19.2846 29.2658 19.1673 29.0363 19.6365C29.7249 19.6365 29.9544 19.9884 30.5282 19.9884C30.7578 19.4019 30.643 18.4635 31.4464 18.4635C31.4464 18.9327 31.2168 19.05 31.1021 19.4019C31.4464 19.4019 32.0202 19.1673 31.7907 19.7538C32.3645 19.8711 32.3645 19.4019 32.8236 19.5192C33.1679 20.4576 31.6759 20.223 32.5941 20.8095C31.9054 21.2787 31.4464 20.3403 30.643 21.0441C30.643 21.396 30.643 21.6307 30.643 21.9826C31.1021 22.0999 32.135 21.6307 31.9054 22.5691C32.4793 22.5691 32.4793 21.748 32.9384 21.6307C32.7088 22.2172 33.5122 21.8653 33.8565 21.9826C33.9713 22.3345 34.3156 23.3902 33.8565 23.6248C33.1679 21.6307 31.3316 23.8594 30.0692 23.0383C30.5282 21.2787 28.0033 22.2172 27.3147 21.5133C27.5443 21.396 27.659 21.2787 27.659 20.9268C27.3147 20.3403 26.7409 21.1614 26.6261 20.6922C26.8557 20.6922 27.0852 20.6922 26.9704 20.3403C26.6261 19.9884 26.0523 20.3403 25.9375 20.6922C26.3966 20.9268 26.3966 21.2787 26.1671 21.9826C26.6261 22.0999 27.2 22.3345 26.7409 22.921C27.3147 23.1556 27.5443 22.0999 27.7738 22.6864C27.2 22.6864 27.2 23.3902 26.8557 23.6248C26.2818 23.6248 25.5932 23.7421 25.3637 23.2729C25.3637 23.9767 24.4455 23.8594 24.3308 23.9767C25.1341 24.7978 25.708 23.8594 26.5114 24.6805C26.0523 24.6805 25.4785 24.5632 25.4785 25.0324C25.8228 25.1497 25.5932 25.9709 26.0523 26.0882C26.5114 25.8536 25.8228 25.3844 26.2818 25.3844C26.1671 25.8536 26.9704 24.9151 26.9704 25.619C26.7409 25.8536 26.1671 25.8536 26.2818 26.3228C26.6261 26.5574 27.0852 26.2055 27.5443 26.6747C27.3147 26.6747 26.8557 26.5574 26.8557 26.9093C27.5443 27.2612 27.3147 27.3785 27.5443 28.1996C26.9704 28.3169 26.7409 28.0823 26.2818 27.965C26.2818 28.3169 26.0523 28.3169 25.9375 28.5515C26.9704 28.3169 25.9375 29.1381 26.5114 29.2554C26.3966 28.6688 27.659 28.7861 27.5443 28.9034C27.5443 29.1381 27.3147 29.1381 27.3147 29.49C27.659 29.3727 28.4624 29.7246 28.5772 29.2554C28.3476 29.2554 28.1181 29.2554 28.2329 28.9034C29.151 28.9034 29.151 29.0207 30.1839 29.1381C30.9873 27.8477 32.9384 28.9034 33.9713 27.8477C33.7417 27.8477 33.7417 27.6131 33.7417 27.2612C33.5122 26.9093 32.7088 27.2612 32.7088 26.6747C33.5122 26.4401 34.086 27.0266 35.0042 27.2612C35.0042 27.4958 35.1189 27.4958 35.2337 27.6131C35.1189 27.965 34.3156 27.6131 34.5451 28.1996C35.2337 27.965 36.0371 28.3169 36.3814 27.2612C36.1519 26.792 35.6928 27.4958 35.6928 27.0266C35.6928 26.792 35.9223 26.792 36.0371 26.6747C37.07 26.792 37.8734 27.0266 39.1358 27.0266C39.021 27.965 39.7097 28.0823 40.1687 28.3169C41.3164 27.2612 44.0708 27.8477 45.3333 26.792C45.5628 27.2612 44.8742 27.4958 45.3333 27.4958C45.2185 27.0266 46.1366 27.6131 46.0219 27.1439C45.7923 26.792 45.3333 26.6747 45.1037 26.2055C45.7924 26.2055 46.1367 26.4401 46.3662 26.9093C46.94 26.5574 47.3991 27.1439 47.8582 26.5574C46.7105 26.5574 45.9071 26.0882 45.5628 25.2671C45.7924 25.3844 46.8253 25.619 46.8253 25.5017C46.7105 25.2671 46.1367 25.5017 46.2514 24.9151C46.5957 24.9151 46.8253 24.9151 47.1696 24.9151C48.2025 26.0882 48.432 26.4401 48.6615 27.4958C50.2683 27.3785 51.1864 25.7363 52.5637 26.4401C51.9898 27.0266 52.4489 27.2612 52.7932 27.965C53.4818 27.4958 53.8261 28.3169 54.2852 27.965C53.9409 27.7304 54.5147 27.4958 54.859 27.0266C55.6624 27.2612 56.5805 26.5574 57.6134 27.2612C57.1544 26.2055 58.302 26.6747 58.8759 26.9093C58.6463 25.9709 58.1873 26.5574 58.302 25.8536C56.1215 25.9709 53.1375 26.4401 49.8092 26.0882C49.6945 25.5017 49.2354 25.3844 49.2354 24.5632C49.5797 24.5632 49.8092 24.5632 49.924 24.3286C49.0058 26.2055 51.416 25.3844 52.4489 25.2671C52.1046 25.0324 52.1046 24.4459 51.5307 24.3286C51.5307 25.1497 50.9569 24.2113 50.4978 24.5632C50.6126 24.094 50.2683 24.094 50.2683 23.6248C50.7274 23.6248 50.8421 23.3902 50.9569 23.0383C49.924 22.5691 50.8421 22.2172 50.3831 21.396C50.2683 21.6307 49.6945 22.3345 49.3502 21.748C49.4649 21.0441 49.8092 21.2787 50.2683 21.396C50.4978 20.5749 49.924 20.5749 49.5797 20.3403C50.1535 20.1057 49.924 19.7538 50.1535 19.4019C50.7274 19.9884 51.416 19.6365 51.6455 18.8154C51.3012 18.8154 51.1864 18.5808 51.3012 18.2289C52.1046 18.4635 52.4489 17.7596 51.875 17.525C52.4489 17.7596 52.908 16.9385 53.1375 17.525C53.1375 17.9943 52.4489 17.7596 52.4489 18.2289C53.0227 18.3462 54.0556 17.9943 54.0556 18.5808C53.7113 18.8154 52.6784 18.4635 52.4489 19.1673C53.367 19.1673 53.9409 19.2846 54.9738 19.5192C55.2033 18.8154 54.7442 18.5808 54.3999 18.4635C55.5476 18.1116 55.7771 18.8154 56.6953 18.2289C56.8101 18.8154 56.4658 18.9327 56.4658 19.5192C57.1544 19.6365 57.843 19.5192 58.0725 19.1673C58.0725 19.5192 58.1873 19.7538 58.6463 19.7538C58.5316 18.8154 60.1383 19.2846 59.2202 18.4635C59.9088 18.2289 59.9088 18.1116 60.4826 17.525C60.4826 18.8154 59.3349 18.6981 59.5645 19.7538C60.0236 19.6365 60.0236 19.9884 60.4826 19.9884C60.4826 19.6365 60.8269 19.5192 61.0565 19.2846C60.8269 19.1673 60.4826 19.05 60.4826 18.5808C60.8269 18.5808 61.1712 18.5808 61.5155 18.5808C61.4008 19.5192 62.3189 20.223 62.2041 19.5192C62.4337 19.8711 62.6632 19.2846 62.778 19.7538C62.5484 20.4576 63.1223 21.6307 63.1223 22.0999C63.5814 21.5133 63.6961 20.9268 64.1552 21.1614C63.6961 21.0441 63.4666 18.6981 64.3847 19.5192C64.6143 18.9327 63.8109 19.4019 64.0404 18.8154C63.5814 18.5808 63.5814 19.7538 63.3518 19.1673C63.4666 18.6981 63.6961 18.4635 63.9257 18.1116C64.729 17.9943 64.4995 19.05 64.9586 19.1673C64.6143 18.5808 65.0733 18.4635 65.5324 18.2289C65.1881 18.5808 65.0733 18.9327 65.3029 19.5192C64.8438 19.5192 64.729 19.1673 64.6143 19.7538C65.0733 20.223 65.4176 20.5749 66.4506 20.4576C66.6801 21.1614 66.3358 21.2787 66.7949 21.396C66.6801 21.9826 65.7619 21.6307 65.7619 21.6307C65.7619 21.5133 65.7619 21.396 65.7619 21.2787C65.8767 21.6307 66.6801 21.2787 66.1062 21.0441C65.9915 21.5133 65.6472 20.6922 65.1881 20.8095C65.1881 21.2787 65.0733 21.6307 64.6143 21.5133C64.3847 22.2172 65.0733 22.921 64.6143 23.3902C64.729 22.8037 64.27 22.6864 63.9257 22.6864C64.1552 23.1556 63.3518 23.5075 63.9257 23.7421C64.27 23.7421 65.1881 24.7978 65.8767 25.0324C65.8767 24.2113 66.1063 25.0324 66.4506 25.0324C66.4506 24.6805 66.5653 24.4459 66.7949 24.3286C67.1392 24.4459 67.3687 24.7978 67.4835 25.0324C66.9096 25.1497 65.9915 25.5017 65.5324 25.2671C65.6472 26.2055 64.4995 25.8536 64.27 25.5017C64.3847 26.2055 61.9746 25.9709 62.6632 25.5017C61.8598 25.8536 61.4008 25.9709 60.8269 25.2671C60.3679 25.1497 60.7122 25.9709 60.2531 25.9709C60.0236 25.9709 59.5645 25.9709 59.9088 26.2055C61.286 26.5574 63.5814 26.2055 64.6143 26.2055C65.1881 26.4401 65.6472 27.0266 65.3029 27.7304C65.7619 27.4958 66.9096 27.4958 67.1392 28.0823C66.9096 27.965 66.6801 27.8477 66.221 27.8477C66.4506 29.3727 67.8278 27.4958 68.0573 28.9034C67.4835 29.0208 67.4835 28.5515 67.0244 28.6688C67.0244 29.0208 66.3358 29.9592 67.0244 29.9592C67.2539 29.6073 66.9096 29.0208 67.9425 29.2554C68.1721 29.7246 67.4835 29.9592 67.9425 29.9592C68.0573 29.6073 68.1721 29.9592 68.5164 29.9592C68.6311 29.3727 67.9425 29.7246 68.1721 29.0208C69.5493 28.6688 71.156 28.0823 72.5332 27.965C72.1889 27.6131 71.8446 27.2612 71.6151 26.9093C72.4185 26.4401 73.3366 27.3785 73.7957 26.5574C73.6809 26.0882 72.9923 26.4401 73.1071 25.8536C73.9105 25.7363 73.9105 26.4401 74.14 26.9093C74.2548 26.6747 75.2877 27.0266 75.1729 27.6131C74.8286 27.6131 74.2548 27.3785 74.4843 27.965C75.2877 27.8477 75.1729 27.8477 75.5172 28.3169C76.2058 27.965 75.4024 27.4958 75.7467 27.2612C76.4353 27.6131 76.091 28.0823 77.0092 28.3169C76.3206 29.2554 74.3695 30.0765 73.4514 30.1938C73.2218 29.6073 74.5991 29.7246 74.14 29.49C73.5662 29.7246 73.6809 29.2554 73.4514 29.1381C73.1071 29.49 72.5332 30.4284 72.1889 30.1938C72.1889 29.6073 72.648 29.6073 72.5332 28.9034C71.9594 28.9034 71.5003 28.9034 71.2708 29.2554C72.4185 29.3727 71.0413 30.0765 71.6151 30.7803C72.648 30.663 72.648 31.1322 73.9105 31.0149C74.14 31.6014 74.5991 32.0706 74.8286 32.6571C75.2877 32.0706 74.7138 31.4841 74.8286 30.7803C75.1729 31.2495 76.2058 29.8419 76.6649 30.7803C76.7797 29.3727 77.8126 30.5457 78.6159 30.4284C78.7307 29.3727 79.6488 30.1938 80.2227 29.8419C79.9932 29.2554 79.4193 29.3727 79.8784 28.5515C78.6159 28.9034 78.0421 29.8419 76.6649 29.1381C76.8944 28.0823 77.9273 29.3727 77.3535 28.4342C78.3864 28.5515 78.9602 28.1996 79.3045 27.7304C78.6159 27.7304 78.1569 27.3785 77.4683 27.1439C77.4683 26.792 77.583 26.5574 78.0421 26.5574C78.1569 27.2612 79.1898 27.0266 79.6488 27.2612C79.3045 26.3228 81.2556 25.8536 80.6818 24.6805C81.1408 24.4459 81.4851 25.267 81.3704 24.4459C81.4851 23.9767 80.567 24.5632 80.6818 24.094C81.7147 24.2113 80.6818 23.2729 81.3704 23.1556C81.9442 23.1556 82.2885 23.3902 82.6328 23.7421C82.1737 24.4459 81.8294 23.3902 81.3704 24.094C81.9442 23.9767 81.8294 24.5632 82.2885 24.6805C82.6328 24.2113 82.7476 23.7421 82.9771 23.1556C83.4362 23.6248 84.2396 23.8594 84.4691 24.6805C83.8953 23.9767 83.0919 25.5017 82.6328 24.6805C82.518 25.1497 82.059 25.9709 82.4033 26.5574C83.0919 25.9709 83.551 26.0882 84.5839 26.3228C85.1577 25.7363 85.1577 24.9151 86.0758 25.619C86.3054 25.3844 86.1906 24.9151 86.6497 24.9151C87.1088 25.2671 88.1417 25.7363 88.945 26.2055C88.8303 26.9093 89.2893 27.0266 89.5189 27.2612C89.5189 27.6131 88.945 27.3785 88.945 27.8477C89.4041 27.8477 89.6336 27.8477 89.6336 28.1996C88.945 28.3169 88.945 28.1996 88.1417 28.4342C88.0269 28.9034 88.486 28.7861 88.486 29.1381C88.2564 29.49 87.4531 29.2554 87.2235 29.49C87.3383 30.1938 87.5678 30.7803 88.1417 31.1322C88.1417 30.663 88.8303 29.9592 89.1746 30.4284C88.8303 31.1322 88.3712 31.836 87.6826 32.3052C87.5678 31.9533 86.6497 31.4841 86.6497 32.0706C87.5678 31.9533 86.3054 32.8918 86.994 33.0091C86.994 32.5398 87.6826 33.0091 87.6826 33.2437C87.3383 33.9475 86.4201 33.1264 86.1906 33.8302C86.3054 33.2437 85.6168 33.5956 85.6168 33.1264C85.8463 33.1264 85.9611 32.8918 86.3054 32.8918C86.0758 31.9533 86.1906 31.4841 86.8792 31.0149C86.4201 30.7803 85.9611 31.4841 85.9611 31.0149C86.0758 30.1938 86.6497 29.8419 86.8792 29.1381C86.0758 28.5515 84.8134 28.4342 84.6986 29.7246C85.3872 29.9592 84.8134 29.1381 85.2725 29.1381C85.6168 29.7246 85.9611 30.7803 85.6168 31.4841C84.9282 31.7187 85.502 30.8976 85.0429 30.8976C85.0429 31.6014 84.9282 31.0149 84.4691 31.1322C84.5839 32.1879 84.3543 32.7745 83.4362 32.7745C83.3214 31.9533 83.8953 31.836 84.01 31.2495C83.8953 31.1322 83.2066 30.7803 83.0919 31.2495C83.6657 31.836 82.518 33.2437 83.3214 34.0648C83.5509 34.0648 83.7805 34.0648 84.01 34.0648C84.3543 33.9475 84.01 33.2437 84.3543 33.1264C84.5839 33.2437 85.2725 32.8918 85.2725 33.361C85.2725 33.9475 84.8134 33.9475 84.9282 34.4167C85.8463 34.6513 85.0429 33.361 85.8463 33.4783C85.502 34.1821 86.1906 34.0648 86.5349 34.4167C86.5349 34.1821 86.5349 33.9475 86.7645 33.8302C86.994 34.0648 87.2235 34.2994 87.4531 34.534C88.0269 34.534 88.0269 34.0648 88.486 33.9475C88.6007 33.1264 87.6826 33.361 87.7974 32.6571C88.2564 32.6571 88.6007 32.6571 89.0598 32.6571C89.2893 31.1322 91.2404 30.8976 91.6995 32.0706C91.929 31.1322 91.1256 31.2495 91.0109 30.7803C91.3552 30.7803 91.1256 30.3111 91.3552 30.1938C92.8471 30.1938 95.1425 28.9034 95.7163 30.7803C96.4049 30.5457 96.9788 30.7803 97.2083 31.4841C96.864 31.9533 96.2902 32.0706 96.2902 32.7745C97.8969 31.3668 99.2741 32.5398 99.5037 34.4167C100.307 34.534 101.455 33.5956 102.029 34.1821C102.029 33.8302 102.258 33.8302 102.258 33.4783C100.537 33.5956 100.422 32.7745 99.1594 32.7745C99.3889 32.3052 100.537 32.8918 100.651 32.1879C100.651 32.6571 100.307 33.0091 100.881 33.1264C101.11 32.0706 102.832 33.0091 102.488 31.836C102.832 32.1879 103.865 32.4225 103.406 32.8918C104.094 32.7745 104.439 33.0091 104.898 33.2437C104.898 32.5398 104.668 32.5398 104.553 31.6014C105.242 31.2495 105.472 31.836 106.39 31.836C106.045 31.2495 104.783 31.2495 104.898 30.1938C104.324 30.0765 104.553 30.663 103.98 30.5457C103.865 29.8419 104.553 29.7246 105.586 29.8419C105.472 30.5457 106.16 30.5457 106.505 30.7803C106.619 30.5457 106.275 29.8419 106.734 29.8419C106.964 30.5457 106.849 30.1938 107.423 30.0765C107.423 30.4284 107.423 30.663 107.193 30.7803C107.423 30.7803 107.537 30.7803 107.767 30.7803C107.767 30.8976 107.882 31.0149 107.996 30.7803C107.537 30.7803 107.996 30.1938 108.226 30.1938C108.456 30.4284 108.341 31.0149 108.915 30.8976C109.259 30.7803 108.915 30.0765 109.259 29.9592C109.603 30.0765 109.603 30.5457 109.603 31.0149C108.915 30.7803 107.882 31.2495 107.996 32.3052C108.57 32.4225 109.488 32.0706 109.833 32.5398C109.833 32.7745 109.603 32.7745 109.259 32.7745C109.374 33.1264 109.374 33.5956 109.833 33.4783C109.718 32.4225 110.98 32.8918 111.44 33.1264C111.095 33.7129 110.177 32.6572 110.177 33.4783C110.751 33.361 111.095 33.7129 110.751 34.0648C111.325 33.7129 112.013 34.0648 112.587 34.2994C112.243 33.5956 112.013 33.0091 113.161 32.6571C113.161 32.0706 112.702 31.836 112.472 31.6014C113.046 31.6014 113.505 31.4841 113.735 31.2495C113.391 31.2495 113.161 31.1322 113.046 30.8976C114.194 31.1322 115.571 30.4284 115.342 31.1322C116.03 31.3668 115.915 30.7803 116.26 30.5457C116.834 31.0149 116.145 31.3668 116.948 31.1322C116.948 31.3668 116.604 31.4841 116.604 31.7187C117.293 30.7803 117.522 32.5398 118.44 31.7187C118.326 31.6014 117.867 30.8976 117.752 31.3668C117.981 31.3668 117.981 31.7187 117.752 31.7187C117.637 31.4841 117.522 31.2495 117.407 31.0149C118.67 31.3668 118.785 30.8976 119.932 31.3668C120.277 31.0149 119.818 30.7803 119.588 30.4284C120.391 30.663 120.047 29.8419 120.621 29.8419C120.506 30.0765 120.391 30.3111 120.391 30.7803C121.31 30.7803 120.506 30.7803 120.621 31.3668C121.31 31.2495 121.654 30.663 122.457 30.663C122.457 31.0149 122.687 31.0149 122.802 31.2495C121.654 31.2495 121.883 32.0706 121.769 32.5398C121.539 32.3052 121.31 32.1879 121.195 31.836C120.506 32.0706 119.932 31.3668 119.703 32.0706C120.162 32.3052 120.506 32.3052 120.965 32.0706C120.621 32.7745 121.08 32.4225 121.31 33.0091C120.621 33.0091 120.047 32.5398 119.703 33.2437C120.162 33.2437 119.818 33.9475 120.391 33.8302C120.736 33.8302 120.506 33.361 120.736 33.2437C120.965 33.4783 121.08 33.8302 121.31 33.9475C121.31 33.5956 121.654 33.4783 121.998 33.5956C121.539 34.4167 123.146 33.7129 123.031 34.2994C122.802 34.6513 122.228 34.534 121.998 34.8859C122.113 35.0032 123.605 35.0032 123.031 34.534C123.49 34.534 123.375 35.1205 123.949 35.1205C124.179 34.4167 123.375 34.6513 123.375 34.1821C124.294 33.8302 125.097 33.9475 125.9 34.8859C125.671 34.8859 125.326 34.8859 125.326 35.2378C125.671 35.1205 126.933 35.1205 126.589 34.8859C126.13 34.8859 125.9 34.8859 125.9 34.534C126.474 34.534 126.704 34.8859 127.392 34.7686C127.048 35.1205 127.737 35.4724 128.081 35.707C128.31 34.8859 131.065 35.3551 131.18 36.0589C131.18 35.5897 131.639 35.5897 131.868 35.8243C131.639 35.1205 131.639 34.4167 132.442 35.1205C132.786 34.534 132.557 34.2994 133.36 34.0648C133.704 34.1821 133.36 35.1205 133.704 35.1205C134.278 35.2378 135.77 34.8859 136.229 35.8243C136.803 35.4724 136.115 34.7686 136.918 34.534C137.492 35.1205 137.836 34.2994 138.525 34.2994C138.066 34.7686 138.639 34.8859 138.869 35.2378C139.328 34.534 139.902 34.1821 139.558 33.0091C139.902 33.0091 139.902 32.7745 140.131 32.6571C140.705 32.7745 141.623 33.4783 142.312 33.0091C142.312 33.2437 142.312 33.361 142.312 33.5956C142.886 33.7129 143.001 33.4783 143.23 33.2437C143.345 33.7129 144.148 33.5956 143.575 34.1821C144.263 34.4167 144.722 34.4167 145.181 34.534C145.411 34.0648 144.607 33.7129 145.181 33.5956C145.181 34.4167 146.099 34.4167 146.214 35.1205C145.87 35.2378 144.952 34.7686 145.181 35.4724C145.296 35.4724 146.903 35.3551 146.673 34.7686C147.936 35.0032 148.51 35.0032 149.198 35.707C148.969 35.707 149.083 36.0589 148.854 36.0589C148.51 36.0589 148.624 35.5897 148.165 35.707C148.165 36.6455 148.739 35.707 148.854 36.4109C148.395 36.4109 149.083 36.7628 148.854 37.1147C148.395 37.1147 148.05 37.232 148.165 37.7012C148.624 38.2877 149.313 36.9974 149.772 37.4666C149.887 36.8801 149.313 36.7628 150.002 36.5282C150.92 37.232 151.838 35.4724 153.1 36.2935C152.412 36.5282 152.067 36.0589 151.838 36.8801C152.067 37.1147 152.182 37.3493 152.412 37.5839C152.067 37.7012 151.608 38.1704 152.182 38.2877C152.297 37.3493 152.526 38.405 152.756 38.5223C153.559 38.0531 155.396 37.4666 155.969 38.2877C157.002 37.232 158.494 38.2877 160.331 37.9358C158.15 36.9974 155.051 37.3493 153.1 37.232C153.33 36.8801 155.051 36.0589 155.281 36.8801C156.658 37.232 157.461 36.1762 158.724 36.5282C158.839 36.5282 158.953 37.1147 159.068 37.232C160.56 38.1704 163.429 36.0589 165.151 36.5282C165.151 36.2935 165.151 36.0589 165.38 35.9416C166.987 35.8243 168.479 34.7686 169.742 34.8859C169.053 33.9475 171.578 33.361 170.086 33.2437C170.66 32.5398 170.889 33.2437 171.578 33.4783C172.611 33.1264 173.07 32.5398 174.103 32.5398C173.873 32.0706 172.955 32.3052 172.84 31.836C176.513 31.1322 177.661 29.6073 181.792 29.9592C181.563 29.3727 181.792 29.3727 182.136 29.0208C183.169 29.1381 183.628 28.6688 184.661 28.7861C184.776 28.0823 184.776 27.2612 185.58 27.1439C185.58 27.4958 185.12 27.3785 185.235 27.8477C185.809 27.7304 186.153 28.0823 185.809 28.4342C186.383 28.4342 186.957 28.3169 187.301 28.0823C187.072 27.965 186.957 27.8477 186.957 27.4958C187.416 27.6131 187.645 27.4958 187.875 27.2612C187.875 27.6131 187.416 27.4958 187.531 27.965C188.104 27.7304 187.99 27.965 188.793 27.965C188.793 27.4958 188.449 27.3785 189.023 27.2612C188.793 27.7304 189.596 28.0823 189.711 27.6131C189.482 27.6131 189.482 27.3785 189.367 27.2612C190.055 26.9093 190.744 26.6747 191.547 26.5574C190.974 25.9709 191.777 25.9709 191.318 25.2671C195.679 23.8594 195.22 18.5808 199.007 16.8212C196.482 16.352 195.794 17.7597 193.613 18.6981C195.105 16.1174 197.86 14.8271 199.926 12.8329C199.811 12.8329 199.581 12.8329 199.581 12.5983C200.04 12.2464 200.385 11.7772 200.844 11.5426C200.155 11.6599 200.155 10.9561 199.811 10.8388C199.122 12.1291 198.319 12.1291 197.286 13.0675C197.286 12.8329 197.171 12.8329 197.056 12.7156C197.745 12.2464 197.974 11.1907 199.007 11.0734C199.007 10.7215 198.778 10.7215 198.778 10.3696C199.237 9.78304 200.614 10.2522 200.04 9.07922C200.844 8.84461 200.729 8.96191 201.303 9.31382C201.303 8.61 200.958 8.72731 200.958 8.3754C200.844 8.4927 200.27 9.07922 200.27 8.72731C200.385 8.25809 200.614 8.14079 200.844 7.78888C201.188 7.78888 201.073 8.2581 201.532 8.14079C200.958 7.20237 199.925 6.26394 199.237 6.85046C199.352 6.26394 198.434 6.49855 198.548 5.91203C199.122 5.79473 198.893 6.38124 199.466 6.26394C199.696 5.44282 199.925 6.14664 200.04 5.32552C200.614 5.32552 200.958 5.79473 201.647 5.67743C201.991 4.97361 202.68 4.8563 203.254 5.32552C203.369 4.97361 204.401 4.6217 203.828 4.26979C202.336 4.97361 200.385 3.80058 199.466 4.97361C199.237 4.739 199.007 4.6217 198.778 4.38709C198.663 4.6217 198.548 4.8563 198.204 4.97361C198.089 4.50439 197.515 4.6217 197.515 4.03518C197.056 4.03518 197.171 4.38709 196.827 4.03518C196.597 4.50439 197.286 4.97361 196.827 4.97361C196.253 4.38709 194.646 3.91788 193.958 4.03518C194.302 4.03518 194.531 4.15248 194.531 4.6217C194.302 4.6217 194.302 4.739 194.187 4.8563C193.039 4.50439 192.121 4.03518 191.088 4.15249C191.318 4.26979 191.433 4.38709 191.433 4.739C190.744 4.97361 190.744 4.38709 189.941 4.97361C189.711 4.6217 190.515 4.38709 189.941 4.26979C189.711 4.38709 189.941 4.97361 189.367 4.8563C189.023 4.6217 188.678 4.26979 188.449 3.91788C187.531 4.15248 186.957 3.68327 186.268 3.33136C185.465 3.91788 183.743 3.44867 183.514 4.6217C184.202 4.15248 184.547 4.739 185.12 4.97361C185.12 4.739 185.12 4.50439 185.35 4.38709C185.58 4.8563 186.498 4.50439 186.383 5.32552C184.891 6.02934 184.317 5.56012 182.825 5.67743C182.825 6.02934 183.055 6.02934 183.169 6.26394C182.136 5.91203 182.366 5.91203 181.563 5.91203C181.792 5.20821 182.596 6.02933 182.596 4.97361C181.677 5.09091 181.333 4.50439 181.104 3.91788C179.841 3.91788 179.956 4.38709 178.579 4.50439C177.431 3.56597 175.365 4.26979 174.447 3.91788C174.562 2.97945 176.169 3.80058 176.398 2.97945C174.677 3.44867 173.414 3.21406 171.922 3.33136C171.922 3.09676 171.922 2.97945 171.922 2.74485C170.774 2.74485 169.742 3.80058 168.823 3.44867C168.823 3.21406 169.512 2.86215 169.053 2.74485C167.102 2.86215 162.626 2.97945 161.134 2.51024C161.593 2.39294 162.167 2.51024 162.167 1.92373C160.675 1.80642 157.576 2.15833 155.855 1.68912C155.855 2.04103 155.74 2.27563 155.281 2.27563C153.33 1.21991 151.264 2.04103 148.05 1.68912C148.05 2.04103 150.231 1.80642 151.149 1.92373C151.034 3.44867 153.215 1.33721 154.592 2.27563C153.33 2.62754 151.608 3.44867 150.69 2.86215C147.591 4.03518 143.115 3.09676 139.213 3.80058C138.984 3.21406 137.377 3.56597 137.607 3.80058C138.18 3.80058 138.525 4.03518 138.525 4.50439C137.492 4.6217 136.688 4.8563 135.426 4.8563C135.196 5.44282 135.656 5.56012 135.082 5.79473C134.049 5.79473 134.164 5.56012 134.508 5.09091C133.704 4.8563 133.475 6.14664 133.016 5.79473C133.016 5.20821 134.049 5.20821 133.36 4.50439C132.786 4.38709 133.016 4.97361 132.672 5.09091C132.442 5.09091 132.212 5.09091 132.098 5.32552C132.786 5.09091 133.131 6.02934 132.672 6.26394C132.327 6.26394 132.213 5.91203 131.983 5.67743C131.753 6.02934 130.376 6.14664 130.032 6.26394C130.032 6.02934 130.491 6.14664 130.376 5.67743C129.688 5.91203 128.54 6.38124 128.425 5.32552C129.229 5.44282 129.114 5.44282 129.458 4.97361C130.376 4.6217 130.491 5.91203 130.95 5.56012C130.376 5.44282 131.18 5.09091 130.95 4.6217C130.261 4.97361 129.917 4.50439 129.343 4.26979C129.229 4.50439 129.114 4.8563 128.655 4.8563C128.31 4.26979 127.392 5.09091 127.392 3.91788C127.622 3.91788 127.851 3.91788 127.966 3.68327C127.851 3.68327 127.737 3.56597 127.737 3.33136C125.9 3.91788 122.457 2.97945 121.08 3.33136C121.195 3.33136 121.31 3.44867 121.31 3.68327C120.736 3.56597 119.129 3.68327 118.67 4.26979C119.244 4.03518 118.899 4.8563 119.014 5.20821C119.244 5.32552 119.932 4.97361 119.932 5.44282C119.473 5.67743 118.785 5.56012 118.44 5.44282C118.44 5.09091 118.899 5.20821 118.785 4.739C118.44 4.739 118.44 4.97361 118.211 5.09091C118.211 4.739 118.211 4.38709 118.211 4.03518C117.522 4.97361 117.522 4.26979 116.719 3.80058C116.719 4.15249 116.719 4.38709 116.489 4.50439C116.375 4.26979 116.719 4.15248 116.834 4.50439ZM130.147 34.6513C130.491 33.7129 131.409 34.6513 131.409 34.6513C132.672 34.7686 131.18 34.6513 130.147 34.6513ZM15.3789 27.0266C15.4937 26.3228 16.4118 26.6747 16.8709 26.792C16.4118 27.4958 15.9527 27.3785 15.3789 27.0266ZM58.1873 6.26394C58.302 6.85046 57.6134 6.96776 57.2691 6.61585C57.3839 6.38124 57.843 6.38124 58.1873 6.26394ZM160.56 2.39294C160.445 2.62754 159.986 2.62754 159.642 2.74485C159.068 2.39294 158.265 2.51024 157.806 2.39294C158.38 1.92373 159.757 2.39294 160.56 2.39294ZM147.247 4.03518C147.132 4.50439 147.591 4.38709 147.477 4.97361C146.099 4.97361 145.64 5.20821 144.722 4.739C144.607 5.32552 143.919 5.32552 143.804 5.79473C143.23 5.67743 143.919 5.20821 143.804 4.8563C142.542 4.8563 140.361 4.38709 138.639 4.26979C141.164 3.80058 144.148 4.26979 147.247 4.03518ZM149.887 4.26979C149.887 4.50439 148.165 4.8563 147.706 4.6217C148.28 3.56597 148.739 4.26979 149.887 4.26979ZM163.544 3.91788C163.774 4.03518 164.462 3.68327 164.462 4.15249C164.807 4.6217 163.429 4.38709 163.544 3.91788ZM100.766 4.03518C101.455 4.26979 103.061 3.56597 102.947 4.6217C103.635 4.15248 104.553 4.26979 106.045 4.26979C106.16 4.8563 106.734 4.8563 106.619 5.56012C106.045 5.79473 105.931 5.56012 105.357 5.91203C105.242 5.20821 103.865 5.32552 103.061 4.8563C103.406 5.32552 103.75 5.67743 104.324 5.79473C103.406 6.26394 102.373 6.61585 101.569 6.38124C101.34 5.44282 101.684 4.739 100.766 4.03518ZM81.7147 4.8563C82.4033 5.09091 82.4033 4.50439 83.3214 4.8563C83.3214 5.09091 83.3214 5.32552 83.551 5.44282C83.3214 6.02934 82.4033 5.79473 81.9442 5.67743C81.8294 5.67743 81.8294 5.79473 81.7147 5.91203C81.3704 5.67743 81.9442 5.32552 81.7147 4.8563ZM100.307 5.32552C100.307 4.97361 100.996 5.44282 101.225 5.56012C101.225 5.79473 100.996 5.67743 100.881 5.79473C100.996 5.91203 101.11 6.26394 101.11 6.49855C100.881 6.26394 100.422 6.26394 100.192 6.14664C100.192 5.79473 100.307 5.67743 100.537 5.56012C100.537 5.44282 100.422 5.44282 100.307 5.32552ZM135.656 5.20821C136.688 5.44282 137.492 4.97361 138.18 5.79473C137.148 5.56012 136.574 5.79473 135.426 6.02934C135.541 5.56012 135.77 5.56012 135.656 5.20821ZM29.7249 5.79473C29.7249 6.26394 28.9215 6.14664 28.4624 6.14664C28.3476 5.44282 29.3806 5.91203 29.7249 5.79473ZM40.513 5.91203C40.9721 6.02934 41.8902 5.67743 42.1198 6.14664C42.2346 6.73315 41.3164 6.49855 41.0869 6.73315C41.7755 7.08506 40.8573 7.08506 40.513 7.43697C40.513 7.67158 40.8573 7.55428 41.0869 7.67158C40.3983 8.61 39.8244 7.20237 38.7915 7.43697C39.1358 6.96776 40.3983 6.85046 40.3983 7.20237C41.0869 7.08506 40.3983 6.61585 40.513 5.91203ZM89.5189 6.49855C89.5189 6.73315 88.8303 7.20237 89.2893 7.43697C88.0269 8.02349 86.8792 7.90619 86.0758 7.67158C86.0758 7.31967 86.8792 7.67158 86.7645 7.08506C86.5349 6.73315 85.9611 6.85046 85.7315 6.73315C86.994 6.02934 87.9121 6.26394 89.5189 6.49855ZM72.7628 6.49855C73.5662 6.26394 73.2219 7.08506 73.7957 7.08506C74.0252 6.96776 73.6809 6.85046 73.7957 6.49855C74.0252 6.73315 74.4843 6.73315 74.8286 6.73315C74.7138 7.20237 74.2548 7.31967 74.14 7.78888C73.7957 7.43697 73.5662 8.02349 73.2219 7.55428C73.2219 8.2581 73.6809 8.02349 74.14 7.90619C74.14 8.4927 73.3366 8.25809 73.1071 8.72731C72.7628 8.61 73.1071 7.78888 72.4185 8.02349C72.3037 7.55428 73.2219 8.14079 73.1071 7.67158C72.9923 7.43697 72.648 7.55428 72.4185 7.43697C72.4185 7.20237 72.4185 7.08506 72.1889 7.08506C72.1889 6.61585 72.9923 7.08506 72.7628 6.49855ZM76.2058 6.61585C76.8944 6.49855 77.8126 6.49855 78.8455 6.61585C78.3864 6.96776 76.6649 6.96776 76.2058 6.61585ZM75.4024 6.85046C75.9763 6.96776 75.7467 7.67158 76.6649 7.43697C76.6649 8.02349 75.7467 7.78888 75.1729 7.78888C75.4024 7.55428 75.5172 7.31967 75.4024 6.85046ZM77.8126 7.08506C78.2716 6.85046 78.7307 7.55428 78.7307 7.08506C78.9602 7.08506 78.8455 7.55428 78.9602 7.78888C78.6159 7.67158 78.1569 7.20237 78.0421 7.78888C77.6978 7.67158 77.8126 7.31967 77.8126 7.08506ZM68.0573 7.55428C67.713 8.4927 66.5653 8.02349 65.5324 7.90619C65.7619 6.85046 67.3687 8.02349 68.0573 7.55428ZM52.1046 7.90619C53.1375 8.02349 54.0556 8.14079 54.2852 8.96191C53.4818 8.96191 53.5966 8.14079 52.7932 8.2581C51.9898 8.2581 52.2193 9.31382 51.1864 8.96191C51.1864 8.84461 51.3012 8.84461 51.416 8.72731C51.416 8.61 51.3012 8.61 51.1864 8.4927C51.3012 8.3754 52.2193 8.96191 52.1046 7.90619ZM29.2658 8.3754C29.0363 8.72731 26.8557 8.61 27.3147 8.3754C27.659 7.90619 28.6919 8.14079 29.2658 8.3754ZM86.1906 9.07922C85.2725 9.19652 85.2725 9.19652 84.5839 8.84461C84.5839 7.67158 86.3054 8.14079 86.1906 9.07922ZM86.6497 8.14079C87.3383 8.61 87.6826 8.02349 88.8303 8.4927C88.486 9.31382 87.5678 7.90619 87.3383 9.19652C86.994 8.96191 86.1906 8.61 86.6497 8.14079ZM35.6928 8.72731C36.0371 8.72731 36.3814 8.72731 36.7257 8.72731C36.9552 9.43113 36.0371 8.96191 35.6928 9.07922C35.6928 8.96191 35.6928 8.84461 35.6928 8.72731ZM40.054 8.84461C40.054 9.07922 39.7097 8.96191 39.7097 9.19652C39.5949 9.43113 39.8244 9.43113 40.054 9.43113C40.2835 9.43113 40.1687 8.96191 40.2835 8.72731C40.8573 8.96191 40.7426 8.72731 41.2016 8.96191C41.2016 9.19652 40.8573 9.07922 40.8573 9.31382C40.9721 9.90034 41.3164 9.07922 41.7755 9.31382C41.3164 10.0176 42.1198 9.66573 42.1198 10.3696C40.7426 10.0176 39.2506 9.19652 37.9881 9.78304C38.1029 9.19652 37.1848 9.43113 37.2995 8.84461C37.6438 9.07922 38.3324 9.07922 38.562 9.43113C38.6767 8.84461 39.2506 8.61 40.054 8.84461ZM27.0852 9.19652C27.5443 8.96191 28.8067 8.96191 29.0363 8.96191C29.0363 9.66573 28.1181 8.72731 28.0033 9.54843C28.5772 9.78304 29.151 9.54843 29.9544 9.54843C29.9544 9.90034 30.0692 10.0176 30.2987 10.1349C29.9544 10.1349 29.151 10.7215 29.6101 11.4253C28.8067 11.5426 28.5772 12.1291 27.7738 12.3637C28.4624 12.0118 28.2329 10.3696 29.2658 10.8388C29.2658 10.3696 29.0363 10.2522 28.6919 10.1349C28.3476 10.1349 28.3476 10.3696 28.0033 10.3696C28.1181 10.4869 28.2329 10.8388 28.0033 10.9561C27.2 10.6042 28.5772 9.31382 27.0852 9.19652ZM32.4793 8.84461C32.4793 9.43113 31.7907 9.66573 31.5611 9.43113C31.6759 9.07922 31.9054 8.72731 32.4793 8.84461ZM47.0548 10.3696C47.3991 9.66573 47.0548 9.78304 46.8253 9.31382C47.6286 8.61 47.6286 10.0176 47.8582 10.3696C47.7434 10.6042 47.5139 10.3696 47.0548 10.3696ZM50.2683 9.43113C50.2683 9.54843 50.4978 9.66573 50.4978 9.78304C50.8421 9.54843 51.416 9.19652 51.5307 10.0176C50.4978 10.3696 50.1535 9.54843 49.2354 10.0176C49.3501 9.78304 49.4649 9.54843 49.4649 9.07922C50.2683 9.43113 50.1535 9.31382 51.0717 9.07922C50.9569 9.43113 50.6126 9.43113 50.2683 9.43113ZM42.6936 9.43113C43.0379 8.96191 43.8413 9.66573 43.7265 10.3696C42.9231 10.2522 43.2675 9.66573 42.6936 9.43113ZM47.9729 10.0176C48.0877 9.90034 48.432 9.90034 49.0059 9.78304C49.2354 10.8388 48.0877 10.2522 47.9729 10.0176ZM27.4295 10.7215C26.5114 10.7215 26.0523 10.3696 25.1341 10.4869C25.3637 10.0176 27.5443 9.54843 27.4295 10.7215ZM33.3974 10.8388C33.0531 10.7215 32.7088 10.4869 32.135 10.4869C31.5611 10.6042 32.135 11.6599 31.2168 11.7772C31.3316 11.308 31.1021 11.0734 30.643 11.1907C30.9873 10.8388 30.8725 10.8388 30.8725 10.1349C32.135 10.0176 32.9384 9.90034 33.3974 10.8388ZM29.9544 11.0734C30.643 11.0734 30.643 12.0118 29.7249 11.7772C29.7249 11.5426 29.9544 11.4253 29.9544 11.0734ZM8.72235 11.7772C9.18143 11.7772 9.29619 12.0118 9.29619 12.481C9.06666 12.481 8.83712 12.481 8.60758 12.481C8.49282 12.1291 8.60759 12.0118 8.72235 11.7772ZM29.9544 12.0118C30.5282 12.2464 30.4135 12.0118 30.9873 12.0118C30.8725 12.1291 30.8725 12.2464 30.8725 12.5983C30.5282 12.3637 29.8396 12.5983 29.9544 12.0118ZM44.989 13.4194C44.989 12.7156 45.2185 12.7156 44.989 12.1291C45.6776 12.0118 45.6776 12.0118 46.5957 11.8945C46.8253 12.2464 46.481 12.5983 46.94 12.9502C47.5139 12.8329 46.7105 12.481 46.94 12.0118C47.3991 11.8945 47.8582 11.7772 48.5468 11.7772C47.5139 13.3021 46.8253 14.2406 44.989 13.4194ZM49.924 12.1291C49.924 12.3637 49.924 12.5983 49.924 12.8329C49.8092 12.7156 49.5797 12.7156 49.5797 12.481C49.2354 12.5983 49.2354 13.0675 48.8911 12.7156C49.0058 12.3637 49.2354 12.1291 49.924 12.1291ZM50.2683 12.1291C50.7274 12.0118 50.3831 12.8329 50.8421 12.8329C50.7274 13.0675 50.4978 13.1848 50.1535 13.1848C50.0388 12.8329 50.0388 12.3637 50.2683 12.1291ZM93.6505 12.5983C94.1096 13.0675 93.9948 13.8886 94.913 13.5367C94.913 13.7713 94.913 13.8886 95.1425 13.8886C94.6834 14.2406 94.2244 14.3579 93.5358 14.4752C93.7653 13.654 93.6505 13.5367 93.6505 12.5983ZM8.37805 13.0675C8.37805 12.7156 9.18142 12.9502 9.41096 12.8329C9.41096 13.0675 9.06666 12.9502 8.83712 13.0675C9.06666 13.5367 9.18142 14.4752 8.26328 14.3579C8.72235 14.3579 8.95189 13.1848 8.37805 13.0675ZM38.562 12.9502C39.021 13.0675 39.7097 13.0675 39.4801 13.8886C38.7915 13.654 38.4472 14.4752 37.2995 14.1233C37.7586 13.654 38.4472 13.5367 38.562 12.9502ZM9.6405 13.0675C10.5586 13.0675 9.41096 14.0059 10.2143 14.0059C10.0996 14.3579 9.64049 14.3579 9.18142 14.3579C9.18142 14.1233 9.41096 14.2406 9.52573 14.1233C8.95189 13.7713 9.6405 13.654 9.6405 13.0675ZM42.6936 13.0675C43.2675 13.1848 43.497 14.3579 42.4641 14.1233C42.4641 13.7713 42.4641 13.3021 42.6936 13.0675ZM40.1687 13.4194C40.6278 12.8329 41.0869 13.7713 41.7755 13.654C41.7755 14.3579 40.9721 14.2406 40.8573 13.654C40.513 13.654 40.3983 14.0059 40.513 14.3579C40.2835 14.2406 39.9392 14.1233 39.9392 13.654C40.054 13.654 40.1687 13.654 40.2835 13.654C40.3983 13.5367 40.2835 13.5367 40.1687 13.4194ZM100.307 13.654C100.651 13.1848 101.455 13.654 101.225 14.3579C100.422 14.5925 100.996 13.5367 100.307 13.654ZM91.5847 13.654C92.0438 13.654 92.2733 13.8886 92.8471 13.8886C92.6176 15.0617 91.2404 14.0059 91.0109 14.2406C91.1256 13.8886 91.6995 14.1233 91.5847 13.654ZM99.9627 14.3579C99.3889 13.8886 99.3889 14.0059 98.7003 14.1233C98.8151 13.654 100.078 13.3021 99.9627 14.3579ZM6.19746 13.8886C6.54177 13.8886 6.7713 13.8886 7.1156 13.8886C7.34514 14.4752 6.54177 14.1233 6.19746 14.2406C6.19746 14.1233 6.19746 14.0059 6.19746 13.8886ZM60.4826 14.3579C60.9417 14.4752 60.3679 15.8828 59.794 16.0001C59.9088 15.2963 60.3679 15.0617 60.4826 14.3579ZM34.7746 14.7098C34.8894 14.3579 35.9223 14.5925 36.0371 14.7098C35.9223 14.9444 35.8076 15.2963 35.3485 15.2963C35.4633 14.8271 35.0042 14.9444 34.7746 14.7098ZM57.4987 14.5925C57.9577 14.3579 58.302 15.179 58.4168 14.5925C58.6463 14.9444 58.5316 15.179 58.7611 15.6482C58.302 15.4136 57.9577 15.4136 57.4987 15.6482C57.4987 14.9444 57.6134 15.179 57.4987 14.5925ZM93.7653 14.5925C93.9948 14.5925 93.8801 14.8271 93.7653 14.8271C94.3391 15.5309 94.6834 15.4136 95.2573 15.4136C95.372 16.1174 94.913 16.2347 94.6834 16.7039C94.5687 15.8828 93.7653 15.179 93.7653 14.5925ZM42.5788 14.7098C42.8084 14.7098 43.0379 14.7098 43.2675 14.7098C43.3822 15.4136 42.3493 15.4136 42.5788 14.7098ZM15.4937 15.179C15.9527 15.5309 14.5755 16.352 14.5755 15.4136C14.9198 15.179 15.6084 15.5309 15.4937 15.179ZM96.9788 15.179C97.3231 15.5309 96.9788 15.8828 96.4049 15.8828C96.4049 15.4136 96.5197 15.0617 96.9788 15.179ZM40.054 15.2963C40.3983 16.0001 39.3654 15.7655 38.562 15.8828C38.7915 15.4136 39.7097 15.6482 40.054 15.2963ZM42.1198 17.525C42.5789 16.8212 43.7265 16.9385 44.0708 15.8828C44.4151 15.8828 44.6447 15.8828 44.989 15.8828C44.989 16.1174 44.989 16.2347 44.989 16.4693C45.5628 16.5866 45.448 15.8828 46.0219 16.1174C45.9071 16.4693 46.2514 16.4693 46.5957 16.4693C46.1367 16.7039 46.1367 17.525 45.3333 17.4077C45.2185 17.0558 45.6776 17.1731 45.6776 16.8212C45.5628 16.8212 45.5628 16.7039 45.448 16.5866C44.989 16.8212 44.989 17.6423 44.5299 17.877C44.7594 18.3462 45.3333 18.1116 46.0219 18.1116C45.9071 18.6981 45.5628 18.3462 45.7924 19.05C45.1037 18.8154 44.989 18.3462 44.3004 18.8154C43.9561 18.4635 44.3004 18.1116 44.3004 17.7596C44.1856 17.7596 44.0708 17.7596 43.9561 17.7596C43.497 18.1116 44.1856 18.6981 44.1856 19.2846C44.6447 19.2846 44.7594 18.9327 45.1037 19.2846C44.989 19.8711 44.4151 20.1057 45.3333 19.8711C45.6776 20.4576 44.6447 20.5749 45.1037 20.8095C44.4151 21.2787 43.9561 21.8653 44.1856 22.8037C44.989 22.4518 46.2514 22.0999 46.481 23.8594C47.5139 23.6248 48.432 23.9767 49.2354 24.5632C49.3501 24.6805 49.2354 24.6805 49.2354 24.6805C49.1206 24.6805 49.1206 24.7978 49.0059 24.9151C48.7763 24.7978 49.0059 24.7978 49.0059 24.5632C48.3172 24.7978 47.2843 24.4459 47.1696 25.2671C46.2514 25.1497 45.7924 25.3844 44.989 25.5017C46.1367 23.2729 44.0708 23.5075 41.8902 23.2729C41.7755 22.921 42.005 22.8037 42.1198 22.5691C42.1198 22.3345 41.6607 22.4518 41.4312 22.3345C41.3164 22.921 41.8902 22.6864 41.7755 23.2729C40.8573 23.2729 40.054 23.2729 39.5949 23.6248C39.4801 24.094 39.8244 24.094 39.8244 24.5632C40.1687 23.5075 40.6278 24.7978 41.3164 23.9767C41.3164 24.9151 43.0379 23.8594 43.2675 24.5632C43.3822 25.1497 41.8902 24.5632 41.4312 24.5632C41.7755 25.1497 43.2675 25.3844 43.7265 25.1497C44.1856 25.5017 42.9232 26.3228 42.8084 25.5017C42.1198 25.5017 43.1527 26.0882 42.5788 26.0882C42.6936 26.3228 43.1527 26.3228 43.497 26.4401C42.8084 26.9093 42.1198 26.9093 40.9721 27.1439C40.8573 26.5574 41.0869 26.3228 41.5459 26.2055C40.3983 24.7978 40.2835 24.6805 38.1029 24.9151C37.8734 25.5017 38.6767 25.0324 38.4472 25.619C37.6438 25.7363 37.9881 26.2055 37.4143 26.2055C37.8734 26.4401 39.1358 26.2055 39.3654 27.1439C38.3324 27.1439 37.2995 27.1439 36.2666 27.1439C36.0371 26.9093 36.0371 26.4401 36.0371 26.0882C35.9223 26.0882 35.8076 26.3228 35.6928 26.3228C35.3485 26.3228 35.6928 27.1439 35.3485 27.2612C34.3156 27.3785 34.3156 26.6747 33.7417 27.2612C33.3974 26.5574 33.0531 25.619 32.2498 25.9709C32.2498 25.7363 32.2497 25.5017 32.0202 25.3844C32.0202 25.1497 32.4793 25.2671 32.7088 25.1497C32.7088 24.7978 31.9054 25.1497 31.7907 24.7978C32.3645 24.094 33.9713 25.1497 34.8894 24.4459C34.7746 24.3286 34.7746 24.094 34.5451 24.094C35.0042 24.094 36.6109 24.5632 37.2995 25.0324C37.8734 24.7978 38.2177 24.4459 38.7915 24.094C38.4472 23.7421 36.8405 23.9767 37.5291 23.1556C36.7257 23.7421 35.4632 23.0383 34.6599 22.921C35.1189 22.5691 35.9223 22.5691 35.9223 21.8653C36.8405 21.748 37.1848 22.2172 37.5291 22.5691C37.07 21.9826 38.3324 21.748 38.562 20.9268C38.562 20.5749 37.8734 20.8095 37.6438 20.6922C37.7586 20.5749 37.8734 20.3403 37.8734 20.1057C38.3324 20.1057 38.562 20.1057 38.7915 20.3403C38.9063 19.8711 38.4472 19.9884 38.2177 19.7538C38.4472 19.4019 38.6767 19.8711 39.1358 19.5192C38.6767 19.05 39.3654 19.1673 39.3654 18.5808C39.7097 18.6981 39.9392 19.05 40.2835 19.1673C40.1687 18.6981 39.9392 18.3462 40.513 18.1116C40.513 17.9943 40.2835 17.877 40.2835 17.7596C40.054 18.1116 39.7097 18.2289 39.2506 18.3462C39.8244 17.877 39.9392 16.8212 40.7426 16.4693C41.0869 16.5866 40.7426 16.8212 40.7426 17.0558C41.4312 16.5866 41.8902 16.1174 42.3493 15.4136C43.0379 15.5309 42.005 16.5866 42.6936 16.352C43.2675 16.7039 42.005 16.8212 42.1198 17.525ZM53.8261 16.4693C53.367 17.2904 53.0227 16.1174 52.5637 16.8212C52.7932 16.5866 52.7932 16.1174 52.7932 15.7655C51.875 15.6482 52.4489 16.9385 51.5307 16.8212C51.875 16.4693 51.5307 16.352 51.5307 15.8828C51.875 15.8828 51.875 15.4136 52.2193 15.2963C53.7113 15.5309 52.908 16.2347 53.8261 16.4693ZM55.4328 16.8212C55.5476 16.5866 56.1215 16.8212 56.0067 16.2347C56.2362 16.352 56.2362 16.5866 56.5805 16.5866C56.4658 16.2347 56.8101 15.5309 56.2362 15.6482C56.4658 15.4136 57.1544 15.2963 57.2691 15.4136C57.3839 16.352 56.5805 16.352 56.6953 17.4077C56.2362 17.4077 55.4328 17.2904 55.4328 17.7596C55.3181 18.2289 56.4658 17.6423 56.1215 18.3462C55.7771 18.3462 55.5476 18.3462 55.2033 18.3462C55.2033 17.525 55.8919 17.525 55.4328 16.8212ZM93.421 15.2963C93.7653 15.6482 93.5357 15.6482 94.1096 15.5309C94.3391 16.2347 92.6176 15.7655 93.421 15.2963ZM60.1383 16.2347C60.7122 16.5866 59.9088 16.9385 59.9088 17.2904C59.4497 17.0558 60.1383 16.4693 60.1383 16.2347ZM90.5518 16.2347C90.7813 16.2347 90.8961 16.2347 91.1256 16.2347C91.3552 16.9385 90.5518 16.352 90.5518 16.8212C90.7813 17.525 91.929 16.4693 91.8142 17.7596C91.5847 17.525 91.1256 17.525 90.8961 17.4077C90.3223 17.6423 91.4699 17.6423 91.2404 18.1116C90.6666 17.9943 90.6666 18.3462 90.5518 18.6981C90.437 18.5808 90.0927 18.4635 89.8632 18.4635C89.9779 18.8154 90.2075 18.9327 90.2075 19.4019C89.9779 19.6365 89.5189 19.6365 89.2893 19.4019C89.4041 18.5808 89.1746 17.6423 90.5518 17.7596C90.437 17.6423 90.3223 17.4077 90.3223 17.1731C89.978 17.6423 89.1746 17.6423 88.3712 17.7596C88.6007 17.4077 89.5189 16.4693 89.8632 17.1731C89.9779 16.7039 90.5518 16.7039 90.5518 16.2347ZM93.7653 16.2347C93.7653 16.4693 93.7653 16.5866 93.9948 16.5866C93.1914 16.5866 93.7653 17.0558 92.9619 17.2904C93.421 16.8212 92.7324 16.9385 92.7324 16.352C93.1914 16.4693 93.1915 16.1174 93.7653 16.2347ZM37.2995 16.4693C38.2177 16.2347 39.1358 16.9385 39.5949 16.4693C40.2835 16.9385 38.7915 16.8212 38.3324 16.8212C38.3324 17.2904 38.6767 17.1731 38.3324 17.525C38.4472 17.7596 38.6767 17.877 39.021 17.877C38.6767 19.05 37.1848 18.5808 36.7257 19.1673C36.6109 18.5808 37.2995 18.6981 37.07 18.1116C37.7586 18.4635 37.5291 17.9943 37.7586 17.525C37.6438 16.9385 37.07 17.525 37.2995 16.4693ZM57.6134 16.8212C58.302 17.1731 58.302 17.0558 59.1054 16.8212C59.1054 17.2904 59.4497 17.4077 59.1054 17.7596C58.0725 17.4077 58.4168 17.525 58.1873 18.3462C57.7282 18.1116 57.7282 17.2904 57.6134 16.8212ZM39.4801 17.1731C39.4801 17.2904 39.4801 17.4077 39.4801 17.525C39.1358 17.877 39.2506 17.525 38.7915 17.525C38.7915 17.4077 38.7915 17.2904 38.7915 17.1731C39.2506 17.1731 39.1358 16.8212 39.4801 17.1731ZM54.3999 17.525C54.6295 18.3462 53.5966 18.4635 53.7113 17.7596C54.0556 17.7596 54.0556 17.525 54.3999 17.525ZM84.9282 17.525C85.1577 17.525 85.3872 17.525 85.6168 17.525C85.6168 17.7596 85.6168 17.877 85.8463 17.877C85.7315 18.3462 84.8134 17.9943 84.9282 17.525ZM87.1088 17.6423C86.8792 17.877 86.1906 17.9943 86.0758 17.877C86.1906 17.2904 86.7645 17.6423 87.1088 17.6423ZM81.5999 17.877C82.2885 18.6981 81.0261 19.7538 80.567 18.8154C80.7965 18.4635 81.3704 18.3462 81.5999 17.877ZM33.1679 18.2289C33.627 18.9327 34.4303 18.6981 35.1189 18.5808C34.8894 19.5192 33.3974 19.5192 33.1679 18.2289ZM195.564 18.2289C196.138 18.4635 195.22 18.8154 195.335 19.2846C194.876 19.2846 194.876 18.9327 194.761 18.5808C195.22 18.9327 195.45 18.5808 195.564 18.2289ZM32.8236 18.5808C33.0531 19.2846 31.7907 19.2846 31.9054 18.5808C32.2498 18.2289 32.3645 18.5808 32.8236 18.5808ZM87.6826 19.4019C87.2235 19.6365 86.3054 20.223 86.0758 19.1673C87.2235 19.1673 88.2564 18.6981 88.6007 19.7538C87.6826 19.05 88.1417 19.9884 87.6826 19.4019ZM93.6505 18.9327C93.9948 20.3403 95.1425 18.8154 95.4868 19.8711C95.7163 19.5192 95.9459 19.2846 96.1754 18.9327C96.405 19.1673 96.5197 19.6365 96.5197 20.223C95.9459 20.4576 95.2573 19.9884 95.6016 20.9268C94.913 20.4576 95.0277 20.4576 94.1096 20.6922C94.4539 19.7538 93.3062 20.1057 93.6505 18.9327ZM47.7434 21.5133C47.5139 22.0999 48.3172 21.6307 48.0877 22.2172C47.2843 22.3345 47.0548 21.8653 46.481 22.2172C46.3662 21.748 46.481 21.2787 46.1367 20.6922C46.481 20.6922 46.7105 20.6922 47.0548 20.6922C47.0548 20.9268 47.0548 21.1614 47.2843 21.2787C47.1696 20.3403 48.3172 20.4576 48.3172 19.2846C48.6615 19.6365 49.3502 19.4019 49.5797 19.05C50.1535 19.4019 49.0058 19.4019 49.3502 20.1057C48.7763 20.223 48.8911 19.5192 48.432 19.8711C49.1206 20.6922 48.0877 20.9268 49.0059 21.5133C48.8911 22.0999 48.3172 21.396 47.7434 21.5133ZM97.4379 20.6922C97.3231 20.8095 96.9788 20.9268 96.7493 20.9268C96.6345 20.3403 97.0936 20.223 96.9788 19.6365C97.3231 19.6365 97.2083 20.223 97.4379 20.6922ZM89.5189 20.4576C88.7155 20.4576 88.1417 20.8095 88.0269 19.8711C88.3712 19.8711 88.3712 19.9884 88.6007 20.1057C88.7155 19.5192 89.6336 19.6365 89.5189 20.4576ZM91.2404 19.7538C91.2404 20.1057 91.4699 21.1614 90.6666 21.2787C90.7813 20.5749 91.0109 20.223 91.2404 19.7538ZM99.5037 20.1057C99.848 20.3403 100.422 20.4576 100.422 21.0441C99.6184 20.3403 98.7003 21.6307 97.8969 20.8095C98.5855 20.4576 99.2741 21.0441 99.5037 20.1057ZM195.105 20.223C194.99 20.6922 194.531 20.8095 193.843 20.8095C193.958 20.3403 194.531 20.3403 195.105 20.223ZM76.8944 21.1614C76.7796 21.748 77.583 23.3902 75.632 23.1556C75.632 22.8037 75.7467 22.6864 75.9763 22.5691C75.2877 21.8653 74.7138 22.8037 73.7957 21.9826C74.9434 21.8653 75.2877 21.2787 76.8944 21.1614ZM83.2066 21.396C83.7805 21.6307 83.8953 21.2787 84.2396 21.6307C84.2396 21.8653 84.2396 22.0999 84.2396 22.3345C83.551 22.3345 83.3214 21.9826 83.2066 21.396ZM90.8961 23.6248C90.3223 23.9767 89.8632 23.2729 89.6336 23.9767C89.4041 23.3902 88.486 23.5075 88.6007 22.6864C87.9121 22.5691 86.8792 21.9826 86.0758 22.6864C86.1906 23.3902 85.7315 23.5075 85.8463 24.2113C86.1906 24.094 86.1906 23.3902 86.4202 23.1556C86.5349 23.5075 87.2235 23.7421 87.3383 23.1556C87.6826 23.0383 87.5678 23.9767 87.1088 23.7421C87.1088 24.094 87.3383 24.094 87.3383 24.4459C87.6826 24.2113 87.5678 23.5075 87.9121 23.3902C88.3712 23.9767 87.4531 24.5632 88.1417 25.0324C87.4531 25.3844 86.4201 24.6805 85.9611 25.619C85.3872 25.619 85.0429 25.3844 84.9282 24.9151C85.502 25.1497 85.6168 25.0324 85.8463 24.5632C85.9611 24.094 85.502 24.2113 85.502 23.8594C85.1577 23.8594 85.3872 24.4459 85.1577 24.5632C84.1248 23.8594 85.1577 23.2729 84.5839 22.3345C85.0429 22.3345 85.7315 22.2172 85.2725 22.6864C85.7315 22.3345 86.8792 22.4518 86.7645 21.748C87.1088 21.2787 87.4531 22.3345 88.0269 22.3345C88.486 22.0999 87.7974 21.8653 88.2564 21.6307C88.6007 21.748 88.6007 22.0999 89.1746 21.9826C88.945 22.4518 89.4041 22.8037 88.945 23.2729C90.2075 23.3902 89.1746 22.4518 89.6336 21.9826C90.5518 21.8653 90.5518 22.4518 90.8961 23.6248ZM90.5518 21.9826C91.1256 22.0999 91.8142 22.2172 92.0438 22.6864C91.3552 22.3345 90.6666 22.921 90.5518 21.9826ZM15.3789 21.748C15.3789 21.9826 15.3789 22.2172 15.3789 22.4518C14.805 22.2172 14.1164 22.3345 13.5426 22.6864C13.0835 21.9826 14.805 21.9826 15.3789 21.748ZM94.1096 21.9826C94.7982 22.0999 94.913 22.5691 95.372 22.2172C95.9459 23.0383 94.3391 22.921 93.7653 22.5691C93.8801 22.2172 94.1096 22.2172 94.1096 21.9826ZM78.1569 22.0999C78.5012 22.0999 78.5012 22.3345 78.8455 22.3345C78.9602 23.1556 77.9273 22.921 78.1569 22.0999ZM27.5443 22.6864C27.659 22.2172 28.5772 22.5691 29.0363 22.4518C29.0363 23.5075 28.1181 22.6864 27.5443 22.6864ZM48.432 22.6864C48.2025 23.6248 47.1696 22.4518 46.5957 23.0383C46.7105 21.9826 48.3172 23.0383 48.432 22.6864ZM74.0252 22.4518C74.8286 22.4518 74.5991 23.6248 74.3695 24.094C73.9105 23.2729 73.2219 24.094 72.1889 24.3286C72.5332 23.2729 74.14 23.6248 74.0252 22.4518ZM99.1594 22.8037C99.3889 22.921 99.6184 23.0383 100.078 23.0383C99.9627 23.7421 100.537 24.094 100.078 24.5632C99.3889 24.094 99.2741 23.5075 99.1594 22.8037ZM13.4278 23.6248C13.4278 23.1556 13.6574 23.0383 14.1164 23.0383C13.1983 23.5075 14.1164 23.8594 14.346 24.5632C13.6574 24.4459 13.7721 23.7421 13.4278 23.6248ZM15.4937 23.0383C15.7232 23.0383 15.838 23.0383 16.0675 23.0383C15.9527 23.9767 16.297 23.9767 16.9856 23.7421C16.7561 24.5632 16.0675 23.9767 15.4937 24.3286C15.2641 24.094 15.2641 23.2729 15.4937 23.0383ZM107.652 24.6805C107.193 24.9151 106.275 24.7978 106.16 25.3844C105.472 25.2671 105.357 24.4459 104.553 24.4459C104.668 23.6248 104.209 23.3902 105.242 22.921C105.472 23.6248 106.16 23.8594 106.849 24.2113C106.964 24.2113 106.964 24.094 107.078 23.9767C106.16 23.8594 107.767 23.6248 107.652 24.6805ZM28.3476 23.1556C28.4624 23.2729 28.6919 23.3902 28.9215 23.3902C28.9215 23.9767 28.4624 24.2113 27.8886 24.094C27.4295 23.2729 28.4624 23.8594 28.3476 23.1556ZM11.362 23.3902C12.2802 23.5075 11.8211 25.0324 12.9688 24.9151C12.854 25.0324 12.854 25.2671 12.6245 25.2671C12.6245 25.619 13.7721 25.619 13.6574 25.2671C13.8869 26.0882 11.5915 25.7363 11.1325 25.8536C11.5915 25.619 11.5915 25.1497 12.0506 24.9151C11.8211 24.5632 11.2472 24.6805 11.0177 24.3286C11.0177 24.094 11.0177 23.8594 11.0177 23.6248C11.2472 23.6248 11.362 23.5075 11.362 23.3902ZM97.2083 23.3902C97.7822 24.094 97.8969 23.6248 98.4708 23.7421C98.7003 24.4459 98.0117 24.2113 98.1265 24.7978C97.7822 24.4459 97.2083 24.2113 97.2083 23.3902ZM191.318 23.3902C190.974 23.7421 191.318 23.6248 191.318 24.094C190.859 24.2113 189.023 25.2671 189.137 24.3286C188.563 24.4459 188.334 24.9151 187.531 24.6805C188.563 24.3286 189.941 23.9767 191.318 23.3902ZM76.5501 23.6248C77.0092 24.094 77.2387 23.7421 77.8126 24.2113C77.3535 24.9151 75.9763 24.5632 76.5501 23.6248ZM100.422 24.9151C100.422 24.6805 100.422 24.5632 100.422 24.3286C101.225 24.7978 102.602 23.0383 102.602 24.6805C102.143 24.5632 102.258 25.0324 102.029 25.2671C101.799 24.3286 101.11 25.3844 100.422 24.9151ZM72.0742 23.9767C71.8446 24.2113 71.6151 24.3286 71.7299 24.9151C71.0413 25.2671 70.697 23.8594 70.8117 24.5632C70.5822 25.1497 70.4674 24.3286 70.2379 24.3286C70.3527 23.6248 71.3856 24.094 72.0742 23.9767ZM88.2564 23.9767C88.8303 24.094 89.0598 24.3286 89.1746 24.9151C88.3712 25.0324 88.3712 24.4459 88.2564 23.9767ZM118.785 23.9767C119.473 24.2113 117.981 24.9151 119.129 24.6805C119.129 24.9151 118.67 24.7978 118.44 24.9151C118.44 24.6805 118.44 24.4459 118.211 24.3286C118.326 23.6248 118.785 24.3286 118.785 23.9767ZM72.4185 24.4459C72.5332 24.7978 72.8775 24.9151 72.9923 25.3844C73.3366 25.2671 73.4514 25.0324 73.9105 25.0324C73.9105 24.7978 73.9105 24.5632 73.6809 24.4459C74.14 23.9767 74.5991 25.0324 74.7138 25.5017C74.2548 25.7363 73.2219 25.3844 72.5332 25.8536C72.3037 25.619 72.648 25.1497 72.4185 24.4459ZM76.8944 25.3844C76.4353 25.5017 75.7467 25.619 75.0581 25.3844C75.1729 25.2671 75.2877 24.9151 75.2877 24.6805C76.2058 24.6805 76.7796 24.3286 76.8944 25.3844ZM29.2658 25.619C28.5772 25.7363 28.692 25.0324 28.2329 25.0324C28.4624 24.2113 28.9215 25.2671 29.2658 25.619ZM110.751 24.9151C110.751 24.5632 111.44 24.7978 111.669 24.6805C112.013 24.7978 111.554 24.9151 111.325 24.9151C111.325 25.5017 112.013 25.7363 111.095 25.8536C111.21 25.2671 111.21 25.1497 110.751 24.9151ZM186.039 24.6805C186.612 25.0324 186.957 25.5017 187.875 25.3844C187.531 25.9709 186.727 25.5017 186.039 25.9709C186.268 25.5017 186.612 24.9151 185.694 25.0324C185.809 24.7978 186.039 24.9151 186.039 24.6805ZM185.12 25.2671C185.006 25.7363 184.547 25.8536 184.202 25.9709C184.202 26.2055 184.547 26.0882 184.547 26.3228C184.891 25.9709 185.12 25.5017 185.58 25.3844C185.35 25.7363 185.006 26.3228 185.809 25.9709C185.58 26.2055 185.58 26.6747 185.465 26.9093C185.12 26.5574 184.547 26.792 184.432 27.1439C183.858 26.6747 184.088 25.2671 185.12 25.2671ZM88.945 25.3844C89.2893 25.2671 89.2893 25.5017 89.2893 25.7363C89.7484 25.619 89.978 25.3844 89.978 26.0882C89.7484 26.0882 89.5189 26.0882 89.2893 26.0882C89.5189 25.619 88.7155 25.9709 88.945 25.3844ZM27.5443 25.7363C27.8886 25.7363 28.2329 25.7363 28.5772 25.7363C28.4624 25.8536 28.3476 26.2055 28.3476 26.4401C27.8886 26.5574 27.659 26.3228 27.5443 25.7363ZM99.7332 26.5574C99.5037 27.0266 98.5855 27.0266 98.7003 26.3228C99.1594 26.0882 99.3889 26.2055 99.7332 26.5574ZM89.6336 26.3228C90.2075 26.4401 89.7484 26.6747 89.8632 27.2612C89.0598 27.2612 89.4041 26.5574 89.6336 26.3228ZM102.947 26.3228C103.291 26.3228 103.291 26.792 103.291 27.2612C102.832 27.2612 102.488 27.1439 102.602 26.6747C102.717 26.6747 102.832 26.9093 102.947 26.9093C102.947 26.6747 102.947 26.5574 102.947 26.3228ZM12.9688 26.6747C12.854 26.9093 12.5097 27.0266 12.0506 27.0266C12.0506 26.5574 12.7392 26.4401 12.9688 26.6747ZM92.3881 28.7861C92.3881 28.3169 92.1585 28.1996 91.8142 28.0823C91.5847 28.1996 91.6995 28.6688 91.1256 28.4342C91.1256 28.0823 91.5847 28.0823 91.8142 27.8477C91.929 27.1439 91.1256 27.3785 91.2404 26.792C92.2733 26.6747 92.8471 26.6747 93.5358 27.3785C91.929 26.792 92.9619 29.8419 91.929 28.6688C92.1585 28.5515 92.1585 28.7861 92.3881 28.7861ZM29.0363 26.9093C28.9215 26.9093 28.9215 27.0266 28.8067 27.1439C29.4953 27.3785 29.151 27.965 30.4135 27.8477C30.2987 27.965 30.1839 28.3169 30.4135 28.4342C30.2987 28.9034 29.8396 28.4342 30.0692 28.0823C29.7249 28.7861 29.3806 28.4342 28.5772 28.3169C28.9215 27.965 28.8067 27.3785 28.0033 27.6131C28.0033 27.2612 27.7738 27.2612 27.7738 26.9093C28.3476 26.792 28.8067 27.0266 29.2658 27.1439C29.3806 27.1439 29.0363 27.0266 29.0363 26.9093ZM68.7459 27.0266C69.3197 26.9093 69.7788 27.8477 70.2379 27.3785C70.697 27.965 69.6641 28.5515 68.7459 28.3169C68.5164 27.8477 69.0902 27.8477 68.7459 27.0266ZM42.3493 27.4958C42.4641 27.0266 43.0379 27.7304 43.2675 27.7304C42.9232 28.4342 42.6936 27.6131 42.3493 27.4958ZM124.753 27.2612C125.097 27.2612 125.326 27.2612 125.671 27.2612C125.671 27.965 125.326 28.1996 124.638 28.1996C124.523 27.7304 124.867 27.7304 124.753 27.2612ZM178.349 27.4958C178.923 27.2612 180.185 27.2612 180.989 27.4958C180.645 28.9034 179.038 28.0823 178.349 27.4958ZM98.1265 27.4958C98.4708 27.4958 98.7003 27.4958 99.0446 27.4958C98.8151 28.1996 99.6184 27.8477 99.3889 28.5515C99.6184 28.5515 99.5037 28.1996 99.6184 27.965C100.192 28.0823 99.848 28.4342 99.848 28.9034C99.1594 28.7861 97.7822 28.5515 97.5526 28.5515C96.6345 27.2612 98.356 28.3169 98.1265 27.4958ZM106.16 27.4958C106.619 27.965 106.849 28.0823 107.652 27.8477C107.652 28.0823 107.652 28.1996 107.652 28.4342C107.193 28.4342 106.849 28.3169 106.619 28.0823C106.734 28.6688 106.045 28.6688 105.357 28.7861C105.357 27.965 106.045 27.965 106.16 27.4958ZM96.6345 27.6131C96.6345 27.8477 96.864 27.7304 96.9788 27.8477C96.9788 28.9034 95.9459 28.7861 95.4868 28.5515C95.9459 28.1996 96.0606 27.7304 96.6345 27.6131ZM100.651 27.8477C101.11 27.3785 101.34 28.7861 101.684 29.1381C102.029 29.1381 101.799 28.5515 102.029 28.4342C102.602 28.3169 102.373 28.9034 102.717 29.0208C102.143 29.49 101.569 29.1381 101.11 29.9592C100.537 29.7246 100.422 29.1381 100.192 28.4342C100.537 28.4342 100.651 28.3169 100.766 28.0823C100.881 27.8477 100.766 27.8477 100.651 27.8477ZM114.653 27.8477C115.456 27.8477 114.653 28.6688 114.653 28.9034C114.194 28.6688 113.735 29.0208 113.046 28.6688C112.932 28.0823 113.62 28.4342 113.62 27.965C113.735 28.0823 113.85 28.3169 113.964 28.5515C114.423 28.5515 114.653 28.3169 114.653 27.8477ZM123.261 30.5457C122.802 30.5457 122.457 30.5457 121.998 30.5457C121.769 30.3111 121.654 29.9592 121.424 29.8419C121.31 30.7803 120.736 29.49 120.162 29.8419C120.391 29.1381 120.736 29.49 121.654 29.49C121.424 28.5515 120.047 29.7246 120.047 28.5515C119.818 28.9034 119.473 29.1381 119.359 28.5515C118.785 29.3727 118.096 28.9034 117.178 28.9034C117.178 28.4342 117.178 28.1996 117.407 27.965C117.867 27.7304 118.096 28.5515 118.326 27.965C118.785 27.965 118.785 28.4342 118.555 28.6688C119.129 28.4342 119.359 27.8477 120.391 27.965C119.473 28.5515 123.375 27.4958 124.179 28.3169C124.179 29.0208 123.949 28.3169 123.605 28.6688C123.49 29.2554 124.064 29.1381 124.294 29.3727C123.834 29.8419 123.146 29.7246 123.261 30.5457ZM178.464 28.3169C178.808 28.4342 178.234 29.1381 177.775 29.0208C177.661 28.9034 177.661 28.6688 177.431 28.6688C177.431 28.1996 178.579 28.9034 178.464 28.3169ZM116.604 28.5515C116.604 28.9034 116.375 28.9034 116.375 29.2554C116.03 29.1381 115.571 29.1381 115.686 28.6688C116.145 28.7861 116.145 28.4342 116.604 28.5515ZM176.857 28.7861C177.087 28.7861 176.972 29.1381 177.087 29.3727C176.398 29.49 176.054 29.8419 175.25 29.9592C175.709 29.0208 176.513 29.1381 176.857 28.7861ZM103.176 28.9034C103.75 28.9034 104.094 29.2554 104.094 29.8419C103.291 29.8419 103.865 30.7803 103.865 31.1322C103.176 30.663 103.291 32.0706 103.521 31.4841C103.98 31.9533 103.291 32.0706 102.832 31.836C102.832 31.3668 103.176 31.2495 102.602 31.1322C102.258 31.3668 102.832 31.836 101.914 31.7187C101.799 30.3111 103.521 30.0765 103.176 28.9034ZM112.472 29.2554C112.472 28.9034 113.161 29.1381 113.391 29.0208C113.276 29.7246 113.62 30.0765 114.423 29.9592C114.423 30.1938 114.423 30.4284 114.423 30.663C114.079 30.663 113.85 30.663 113.505 30.663C113.276 30.3111 113.391 29.7246 112.587 29.9592C112.702 29.7246 112.817 29.3727 112.472 29.2554ZM114.997 29.9592C115.801 29.49 116.375 30.663 117.293 30.5457C116.719 31.4841 115.456 30.5457 114.997 29.9592ZM111.784 30.5457C111.44 31.1322 110.98 31.836 110.177 31.4841C110.292 31.1322 110.98 31.3668 111.095 30.8976C110.98 30.4284 110.636 31.2495 110.177 31.1322C110.062 31.0149 110.062 30.7803 109.833 30.7803C109.948 29.6073 111.554 29.9592 111.784 30.5457ZM98.2412 30.5457C98.4708 29.7246 99.1594 30.663 99.7332 30.7803C100.192 31.0149 98.5855 30.7803 98.2412 30.5457ZM112.128 30.7803C112.472 30.663 112.587 30.8976 112.817 31.0149C112.702 31.6014 112.128 31.836 111.554 31.6014C111.554 31.3668 111.899 31.4841 112.128 31.3668C111.899 31.0149 112.013 31.0149 112.128 30.7803ZM134.852 31.2495C135.082 31.1322 134.737 31.0149 134.852 30.663C134.967 30.7803 135.196 30.8976 135.426 30.8976C135.656 31.3668 134.623 31.836 134.737 31.1322L134.852 31.2495ZM97.2083 31.2495C97.3231 30.5457 98.0117 31.7187 98.1265 31.0149C98.7003 31.2495 98.2412 31.3668 98.4708 31.9533C97.8969 31.9533 97.8969 31.2495 97.2083 31.2495ZM133.36 31.836C133.59 31.836 133.475 32.1879 133.704 32.1879C133.704 32.5398 132.901 32.3052 132.672 32.4225C132.672 32.1879 132.672 32.0706 132.442 32.0706C132.557 31.7187 132.901 31.6014 133.36 31.4841C133.36 31.836 133.016 32.3052 133.36 31.836ZM110.866 32.7745C110.866 32.5398 111.095 32.6571 111.095 32.7745C111.554 32.3052 110.866 32.1879 110.407 32.4225C110.751 32.7745 108.685 33.1264 108.57 32.4225C109.374 32.5398 111.095 31.7187 111.669 32.0706C112.128 32.3052 111.669 32.8918 111.669 33.1264C111.095 33.2437 111.21 32.7745 110.866 32.7745ZM170.201 32.1879C170.43 32.1879 170.315 32.5398 170.43 32.7745C170.086 32.6571 169.397 33.0091 169.397 32.5398C169.168 32.5398 169.282 33.0091 169.168 33.2437C168.135 32.3052 166.413 34.1821 164.692 33.2437C164.692 32.8918 165.151 32.8918 165.266 32.5398C167.331 32.6572 168.823 32.8918 170.201 32.1879ZM123.605 32.7745C124.064 32.8918 124.523 32.8918 124.523 33.4783C123.949 33.5956 123.72 33.2437 123.605 32.7745ZM135.196 32.7745C135.196 33.0091 134.967 32.8918 134.852 33.0091C134.852 33.1264 135.082 33.2437 135.082 33.361C135.77 32.7745 135.885 33.361 136.574 33.1264C136.918 33.5956 136.459 33.7129 136.803 34.1821C136.459 33.5956 136.115 33.9475 136.229 34.7686C135.885 34.6513 136.115 34.0648 135.541 34.1821C135.541 33.8302 135.656 33.8302 135.77 33.5956C135.082 33.1264 134.852 33.9475 134.164 33.5956C134.164 33.2437 134.623 32.8918 135.196 32.7745ZM151.149 33.8302C151.149 34.1821 150.805 34.2994 150.461 34.1821C150.461 34.534 151.034 34.2994 151.149 34.534C149.772 35.1205 148.739 33.8302 147.591 34.1821C147.936 32.6571 150.461 33.361 151.149 33.8302ZM146.673 33.361C147.132 33.4783 147.247 33.8302 147.362 34.2994C146.903 34.1821 146.214 33.8302 146.673 33.361ZM96.2902 34.6513C96.7492 34.6513 96.6345 34.2994 96.9788 34.6513C96.9788 34.4167 96.9788 34.1821 97.2083 34.0648C97.6674 34.0648 98.1265 34.0648 98.1265 34.4167C97.7822 34.4167 97.5526 34.4167 97.4379 34.1821C97.3231 34.7686 98.0117 34.534 98.356 34.7686C98.2412 33.7129 99.3889 34.4167 99.3889 34.7686C99.7332 33.361 98.0117 33.9475 97.5526 33.2437C97.2083 34.0648 94.4539 32.5398 95.0277 33.8302C95.0277 33.2437 97.0936 33.9475 96.2902 34.6513ZM2.18059 9.43113C4.24641 9.07922 5.62363 9.90034 6.65654 8.84461C5.16455 8.61 3.67257 9.07922 2.18059 9.43113ZM23.9865 15.6482C24.1012 15.4136 24.216 15.179 24.216 14.7098C23.2979 14.1233 22.0354 15.179 22.3797 15.7655C22.6093 15.0617 23.1831 14.8271 23.8717 14.7098C24.3308 15.0617 23.5274 15.5309 23.9865 15.6482ZM56.6953 23.6248C56.5805 22.6864 56.8101 22.8037 57.2691 22.6864C57.1544 21.748 57.4987 21.396 57.843 21.0441C56.8101 20.3403 56.1215 20.8095 55.8919 20.8095C57.0396 21.5134 55.6624 22.6864 56.6953 23.6248ZM41.6607 21.9826C41.4312 21.8653 41.0869 21.1614 41.4312 21.0441C42.1198 20.6922 41.5459 21.8653 42.005 21.748C42.5788 21.396 42.2346 21.2787 42.2346 20.6922C40.9721 20.223 40.513 22.5691 41.6607 21.9826ZM61.9746 22.0999C61.4008 21.9826 61.6303 22.5691 61.0565 22.4518C60.7122 22.0999 61.1712 22.0999 60.8269 21.748C60.2531 21.5134 60.7122 22.3345 60.3679 22.3345C60.2531 21.9826 60.0236 21.748 59.794 21.396C60.1383 21.2787 60.5974 21.2787 60.4826 20.8095C59.9088 21.1614 59.2202 19.9884 58.8759 21.1614C59.335 21.1614 59.5645 21.1614 59.5645 21.5133C59.3349 21.9826 59.2202 21.8653 59.335 22.4518C58.6463 22.5691 57.9577 22.4518 57.7282 22.0999C57.6134 22.4518 57.2691 22.4518 57.3839 23.0383C57.6134 23.0383 57.843 23.0383 57.9577 23.2729C57.3839 23.3902 57.3839 23.6248 57.6134 24.2113C58.1873 24.3286 58.0725 23.7421 58.5316 23.6248C58.9906 23.9767 58.6463 24.3286 58.8759 24.6805C59.4497 24.7978 59.5645 24.3286 60.1383 24.4459C60.2531 23.6248 59.6793 23.7421 59.4497 23.3902C60.2531 23.5075 60.5974 23.2729 61.286 23.1556C61.6303 23.9767 61.286 24.5632 61.8598 24.6805C61.9746 25.1497 61.0565 24.5632 61.1712 25.0324C61.6303 24.9151 61.5155 25.3844 62.0894 25.2671C62.6632 24.5632 62.8927 23.6248 63.5814 23.0383C62.778 22.8037 62.2041 22.5691 62.5484 21.748C61.9746 22.0999 61.6303 20.4576 60.9417 21.1614C61.286 21.1614 60.8269 21.5133 61.1712 21.5133C60.8269 21.5133 61.8598 21.748 61.9746 22.0999ZM9.41096 23.1556C9.06666 23.1556 9.06666 23.0383 9.18142 22.8037C8.60758 22.6864 8.60759 23.1556 8.14852 23.0383C8.26328 23.7421 7.91898 23.9767 7.80421 24.3286C8.26328 24.4459 8.14852 23.9767 8.72235 24.094C8.83712 23.6248 8.49282 23.6248 8.49282 23.1556C8.95189 22.921 9.29619 23.7421 9.41096 23.1556ZM61.6303 28.5515C61.9746 28.3169 62.778 28.9034 63.4666 28.5515C63.8109 28.6688 64.0404 28.9034 64.0404 29.49C62.778 28.3169 60.8269 31.0149 59.6793 29.1381C59.5645 29.49 59.9088 30.1938 59.4497 30.1938C57.843 29.3727 58.7611 30.3111 57.2691 29.8419C57.4987 30.5457 56.8101 30.1938 56.9248 30.7803C57.0396 31.1322 57.4987 30.8976 57.1544 31.3668C57.4987 31.3668 57.7282 31.3668 58.0725 31.3668C57.843 32.0706 58.5316 31.7187 58.6463 32.0706C58.302 32.5398 57.4987 32.5398 57.3839 33.361C58.0725 33.2437 58.0725 33.1264 58.4168 33.5956C58.6463 33.0091 58.8759 32.5398 59.1054 31.9533C59.3349 32.0706 59.2202 32.5398 59.794 32.3052C59.5645 31.6014 60.2531 31.836 60.1383 31.2495C59.2202 30.8976 59.1054 32.3052 58.302 31.6014C58.4168 30.7803 59.2202 30.663 59.9088 30.5457C59.9088 30.7803 59.9088 30.8976 59.9088 31.1322C60.3679 31.1322 60.2531 30.7803 60.5974 31.1322C60.5974 30.8976 60.5974 30.663 60.8269 30.5457C62.3189 31.1322 65.1881 30.5457 65.6472 28.5515C65.0733 28.3169 64.4995 28.4342 65.0733 27.8477C64.27 27.4958 63.9257 26.9093 63.1223 27.4958C63.0075 28.0823 63.5814 28.1996 62.8928 28.4342C62.2041 28.4342 61.5155 28.0823 61.0565 28.0823C61.7451 27.7304 61.0565 28.6688 61.6303 28.5515ZM55.0885 29.9592C55.4328 29.9592 55.6624 29.9592 55.7771 30.1938C55.6624 29.9592 56.0067 29.2554 55.5476 29.2554C55.3181 29.8419 54.6295 30.0765 54.5147 30.7803C53.8261 30.663 54.5147 30.1938 54.1704 29.8419C53.7113 29.9592 52.908 29.6073 52.6784 30.0765C53.2523 30.1938 52.7932 30.5457 52.6784 30.7803C53.7113 30.4284 53.4818 31.1322 54.1704 30.5457C54.1704 30.7803 54.0556 31.2495 54.3999 31.2495C54.6295 30.5457 55.5476 31.6014 55.6624 31.0149C55.3181 30.7803 55.0885 30.5457 54.9738 30.0765C55.3181 30.4284 55.3181 30.4284 55.0885 29.9592ZM41.7755 33.4783C42.3493 33.361 42.4641 32.3052 42.8084 33.1264C43.0379 32.6572 43.497 32.3052 43.3822 31.4841C43.8413 31.4841 44.0708 31.4841 44.3004 31.7187C43.8413 31.1322 44.0708 31.1322 44.3004 30.4284C43.6118 30.4284 42.6936 29.6073 42.005 30.1938C42.8084 30.3111 42.4641 30.663 42.6936 31.1322C42.8084 30.8976 43.3822 30.1938 43.7265 30.7803C43.2675 32.1879 42.4641 32.1879 41.7755 33.4783ZM29.7249 30.4284C29.7249 30.7803 29.9544 30.7803 29.9544 31.1322C29.3806 31.1322 28.5772 30.8976 28.4624 31.4841C29.9544 31.7187 30.9873 32.5398 32.0202 31.4841C31.5611 31.1322 30.4135 31.4841 30.4135 30.5457C30.643 30.5457 30.8725 30.5457 30.9873 30.3111C30.5282 29.8419 30.2987 31.0149 29.7249 30.4284ZM21.8059 32.0706C22.0354 32.0706 22.265 32.0706 22.3797 32.3052C22.0354 32.6571 21.8059 32.0706 21.6911 32.6571C24.3308 33.0091 26.1671 31.1322 28.0033 32.6571C28.1181 32.0706 28.1181 32.1879 28.5772 31.7187C28.4624 31.7187 28.3476 31.6014 28.3476 31.3668C27.5443 31.0149 26.3966 31.9533 26.3966 31.1322C25.708 31.3668 25.2489 31.836 24.5603 32.0706C24.3308 31.7187 23.6422 31.836 23.6422 31.1322C23.9865 31.3668 24.5603 31.7187 24.9046 31.1322C23.9865 31.2495 23.4126 30.663 22.9536 31.3668C22.9536 31.1322 23.1831 31.1322 23.1831 30.7803C22.9536 30.663 22.1502 30.3111 22.1502 30.5457C22.6093 30.8976 21.9206 31.3668 21.8059 32.0706ZM13.8869 32.0706C14.0017 31.7187 14.9198 31.9533 14.9198 31.4841C14.346 31.2495 13.5426 31.836 13.8869 32.0706ZM9.6405 32.7745C9.87003 32.4225 10.5586 32.6571 10.3291 31.836C9.9848 31.9533 9.87003 31.6014 9.75526 31.836C10.3291 31.9533 9.06666 32.6571 9.6405 32.7745ZM29.6101 32.0706C29.151 32.5398 28.5772 33.2437 27.7738 33.0091C28.8067 33.7129 29.4953 32.8918 29.6101 32.0706ZM177.775 33.1264C178.349 33.2437 178.005 32.5398 178.464 32.5398C178.464 32.6572 178.464 32.7745 178.693 32.7745C178.923 32.3052 178.349 31.7187 178.12 32.1879C178.693 32.5398 177.775 32.7745 177.775 33.1264ZM117.178 34.6513C116.719 34.4167 116.145 34.1821 116.145 33.5956C116.604 33.7129 116.604 34.4167 117.178 34.2994C117.178 33.9475 116.948 33.9475 116.834 33.7129C117.407 33.7129 117.637 34.0648 117.867 33.4783C117.063 33.4783 116.834 33.0091 116.375 32.5398C116.03 32.8918 114.997 33.1264 115.456 32.3052C114.997 33.1264 113.735 32.6571 112.932 33.361C113.276 33.361 113.046 33.8302 113.276 33.9475C113.276 33.361 113.735 33.2437 113.964 33.0091C114.309 33.5956 114.997 33.0091 115.571 33.5956C114.997 33.9475 115.571 34.2994 114.997 34.534C116.26 34.4167 116.719 34.7686 117.178 34.6513ZM3.67257 34.4167C5.50885 33.9475 7.00084 34.4167 8.14852 33.361C7.45991 33.361 6.427 33.9475 5.96793 33.5956C6.31223 33.4783 7.11561 33.4783 6.65654 33.0091C6.427 33.4783 4.59071 33.9475 3.67257 34.4167ZM118.67 34.6513C118.096 34.4167 119.244 34.4167 119.244 34.0648C119.014 34.0648 118.67 34.0648 118.67 33.7129C119.244 33.9475 119.244 33.7129 119.359 33.1264C118.785 33.1264 118.211 32.7745 117.867 33.361C118.899 33.5956 117.407 35.0032 118.67 34.6513ZM182.251 33.1264C181.333 32.6572 180.071 33.361 179.726 34.0648C180.53 33.9475 180.53 34.4167 180.071 34.6513C180.644 34.534 181.218 34.1821 181.563 34.0648C181.333 34.0648 181.333 33.8302 181.333 33.4783C181.792 33.9475 181.792 33.361 182.022 33.1264C182.136 33.2437 182.251 33.361 182.251 33.1264ZM141.623 34.2994C141.623 33.5956 139.672 33.0091 140.131 33.9475C140.131 33.7129 140.361 33.7129 140.476 33.5956C140.705 34.2994 141.279 34.0648 141.623 34.2994ZM26.1671 34.6513C26.7409 34.534 26.8557 34.8859 27.4295 34.8859C27.7738 34.4167 27.659 34.534 27.659 33.8302C27.0852 34.0648 26.2818 34.0648 26.0523 34.1821C26.1671 34.0648 26.1671 34.2994 26.1671 34.6513ZM3.67257 35.3551C4.24641 35.4724 5.27932 35.4724 5.27932 35.0032C4.82025 35.3551 3.44304 35.2378 4.36118 34.6513C3.78734 34.534 3.90211 35.1205 3.67257 35.3551ZM30.2987 36.2935C30.7578 35.9416 31.2168 35.4724 31.9054 35.3551C31.6759 35.1205 31.1021 35.1205 30.8725 35.3551C30.8725 35.9416 30.2987 35.8243 30.2987 36.2935ZM85.502 27.4958C86.4201 27.6131 86.7645 27.2612 86.7645 26.5574C86.4201 26.4401 86.4202 26.0882 85.8463 26.2055C85.8463 26.6747 85.6168 27.0266 85.502 27.4958ZM47.9729 30.7803C48.432 31.3668 49.3502 31.7187 50.1535 31.1322C50.1535 30.5457 49.924 30.1938 49.4649 30.0765C49.3501 30.7803 48.2025 30.3111 47.9729 30.7803ZM65.7619 31.4841C66.1063 31.4841 66.6801 31.2495 66.4506 31.836C65.9915 31.9533 65.9915 31.6014 65.5324 31.6014C65.3029 32.1879 65.6472 32.3052 65.1881 32.8918C66.7949 32.7745 66.6801 32.6571 68.0573 32.6571C68.0573 32.3052 67.8278 32.3052 67.713 32.0706C67.9425 31.9533 68.1721 31.836 68.6311 31.836C68.7459 31.3668 68.5164 31.0149 69.205 30.7803C68.0573 30.7803 67.2539 30.663 65.7619 30.5457C65.7619 31.0149 65.7619 31.2495 65.7619 31.4841Z" fill="#FDC8D3"/>
</svg>
