<svg width="132" height="121" viewBox="0 0 132 121" fill="none" xmlns="http://www.w3.org/2000/svg">
<path d="M0.388672 72.1884C0.388672 45.5747 21.9633 24 48.5771 24H52.2003C78.814 24 100.389 45.5747 100.389 72.1884V72.1884C100.389 98.8021 78.814 120.377 52.2003 120.377H48.5771C21.9634 120.377 0.388672 98.8021 0.388672 72.1884V72.1884Z" fill="url(#paint0_linear)"/>
<g clip-path="url(#clip0)">
<path d="M122.549 0.0521242C118.773 0.44939 114.23 2.96306 108.661 7.73669C98.5849 16.3731 86.699 31.2849 79.0441 42.014C73.4545 41.1423 67.5633 43.5328 64.0753 47.8929C57.6729 55.8961 63.0326 63.0381 56.9935 69.4059C55.9419 70.5146 56.317 72.3363 57.723 72.9382C67.6029 77.1681 80.2323 74.5318 86.1569 68.2847C89.7777 64.4669 91.7478 58.8306 90.7581 53.5246C101.346 45.4003 115.975 32.8768 124.259 22.4868C128.846 16.7333 131.174 12.1052 131.376 8.33787C131.648 3.26262 127.709 -0.490161 122.549 0.0521242ZM82.9685 65.2604C78.9604 69.4865 70.0927 71.948 62.2019 69.8434C66.614 62.8059 62.8214 56.4952 67.5067 50.6385C71.3513 45.8326 79.0839 44.4871 83.5773 48.9807C88.8272 54.2311 86.3817 61.6613 82.9685 65.2604ZM83.4182 43.4575C84.4955 41.9682 86.1849 39.6687 88.2947 36.9156L95.5047 44.1262C92.8496 46.3097 90.6321 48.0608 89.1945 49.179C87.8993 46.853 85.8948 44.7687 83.4182 43.4575ZM126.988 8.10291C126.494 17.332 105.917 35.3521 98.8925 41.2993L91.0139 33.4199C96.7939 26.1016 113.757 5.39573 123.009 4.42278C125.478 4.16277 127.115 5.72034 126.988 8.10291Z" fill="#060606"/>
<path fill-rule="evenodd" clip-rule="evenodd" d="M79.4997 43.0972L78.89 43.0021C73.6649 42.1872 68.1268 44.4293 64.8561 48.5176C61.865 52.2565 61.6104 55.7611 61.3963 59.3226C61.3924 59.3881 61.3885 59.4535 61.3846 59.5191C61.1753 63.0193 60.9564 66.6805 57.7191 70.094C57.1463 70.6978 57.3512 71.6913 58.1165 72.0189C62.8517 74.0462 68.2776 74.4382 73.2484 73.5557C78.2291 72.6715 82.6523 70.5268 85.4313 67.5966C88.8574 63.9841 90.6994 58.6639 89.7751 53.708L89.6626 53.1048L90.1494 52.7313C100.723 44.6178 115.272 32.1544 123.477 21.8634C128.039 16.1424 130.193 11.7234 130.377 8.2844C130.616 3.83095 127.209 0.567869 122.654 1.04665C119.195 1.41061 114.848 3.75064 109.312 8.49597C99.3313 17.0504 87.5025 31.8806 79.8581 42.5948L79.4997 43.0972ZM122.549 0.0521242C118.773 0.44939 114.23 2.96306 108.661 7.73669C98.5849 16.3731 86.699 31.2849 79.0441 42.014C73.4545 41.1423 67.5633 43.5328 64.0753 47.8929C60.8374 51.9403 60.6078 55.7675 60.3907 59.3856C60.1786 62.9219 59.9784 66.2584 56.9935 69.4059C55.9419 70.5146 56.317 72.3363 57.723 72.9382C67.6029 77.1681 80.2323 74.5318 86.1569 68.2847C89.7777 64.4669 91.7478 58.8306 90.7581 53.5246C101.346 45.4003 115.975 32.8768 124.259 22.4868C128.846 16.7333 131.174 12.1052 131.376 8.33787C131.648 3.26262 127.709 -0.490161 122.549 0.0521242ZM60.6348 70.4604L61.3546 69.3123C63.3783 66.0843 63.5586 63.0354 63.7452 59.8801L63.7536 59.739C63.9422 56.5565 64.1651 53.2147 66.7258 50.0138C70.8524 44.8554 79.2736 43.2626 84.2844 48.2736C87.161 51.1505 87.9285 54.6452 87.5134 57.8675C87.1026 61.0561 85.5362 64.0061 83.6941 65.9485L82.9685 65.2604C86.3817 61.6613 88.8272 54.2311 83.5773 48.9807C79.0839 44.4871 71.3513 45.8326 67.5067 50.6385C65.1158 53.6271 64.9325 56.7339 64.7402 59.9952C64.5717 62.852 64.3961 65.8274 62.7236 68.9457C62.5638 69.2437 62.3903 69.5429 62.2019 69.8434C62.5409 69.9339 62.8817 70.0158 63.2238 70.0896C70.8457 71.7332 79.1326 69.3049 82.9685 65.2604L83.6941 65.9485C81.5193 68.2416 78.1053 69.9877 74.2725 70.8988C70.4265 71.813 66.0677 71.9094 61.9442 70.8097L60.6348 70.4604ZM81.934 43.8032L82.608 42.8714C83.6896 41.3761 85.3845 39.069 87.501 36.3074L88.195 35.4017L96.9911 44.1985L96.1398 44.8986C93.4766 47.0888 91.2519 48.8456 89.8085 49.9683L88.8881 50.6843L88.3209 49.6655C87.1113 47.4932 85.2415 45.5543 82.9503 44.3413L81.934 43.8032ZM98.8362 42.6573L89.6779 33.4981L90.2291 32.8001C93.1257 29.1326 98.8384 22.0924 104.997 15.8401C108.075 12.7152 111.285 9.76576 114.327 7.52924C117.335 5.31794 120.312 3.70099 122.905 3.42828C124.371 3.2738 125.702 3.65313 126.654 4.54056C127.607 5.42936 128.063 6.7202 127.986 8.15629C127.847 10.7561 126.327 13.808 124.203 16.9119C122.052 20.0541 119.174 23.4011 116.114 26.6207C109.992 33.0627 103.059 39.0823 99.5387 42.0625L98.8362 42.6573ZM83.4182 43.4575C83.7151 43.6147 84.0051 43.7829 84.288 43.9614C86.0693 45.0851 87.5654 46.6131 88.6744 48.3167C88.8586 48.5996 89.0322 48.8874 89.1945 49.179C89.4383 48.9894 89.7046 48.7815 89.9916 48.5565C91.2289 47.5861 92.8522 46.2956 94.7275 44.7633C94.982 44.5553 95.2412 44.3429 95.5047 44.1262L88.2947 36.9156C88.0864 37.1875 87.8822 37.4548 87.6823 37.7175C86.1971 39.6684 84.9483 41.3565 84.0114 42.6409C83.7971 42.9348 83.599 43.2076 83.4182 43.4575ZM98.8925 41.2993C105.917 35.3521 126.494 17.332 126.988 8.10291C127.115 5.72034 125.478 4.16277 123.009 4.42278C113.757 5.39573 96.7939 26.1016 91.0139 33.4199L98.8925 41.2993Z" fill="#060606"/>
</g>
<defs>
<linearGradient id="paint0_linear" x1="0.388678" y1="120" x2="71.722" y2="55.3333" gradientUnits="userSpaceOnUse">
<stop stop-color="#FFCCD6"/>
<stop offset="1" stop-color="#FFCCD6" stop-opacity="0"/>
</linearGradient>
<clipPath id="clip0">
<rect x="56.3887" width="75" height="75" fill="white"/>
</clipPath>
</defs>
</svg>
