<svg width="20" height="24" viewBox="0 0 20 24" fill="none" xmlns="http://www.w3.org/2000/svg">
<g filter="url(#filter0_i)">
<path d="M18.5035 6H14.7587V5.52C14.7587 2.472 12.4899 0 9.69231 0C6.89476 0 4.62588 2.472 4.62588 5.52V6H0.881119C0.39375 6 0 6.429 0 6.96V23.04C0 23.571 0.39375 24 0.881119 24H18.5035C18.9909 24 19.3846 23.571 19.3846 23.04V6.96C19.3846 6.429 18.9909 6 18.5035 6ZM6.60839 5.52C6.60839 3.663 7.9879 2.16 9.69231 2.16C11.3967 2.16 12.7762 3.663 12.7762 5.52V6H6.60839V5.52ZM17.4021 21.84H1.98252V8.16H4.62588V10.8C4.62588 10.932 4.725 11.04 4.84616 11.04H6.38811C6.50927 11.04 6.60839 10.932 6.60839 10.8V8.16H12.7762V10.8C12.7762 10.932 12.8754 11.04 12.9965 11.04H14.5385C14.6596 11.04 14.7587 10.932 14.7587 10.8V8.16H17.4021V21.84Z" fill="#060606"/>
</g>
<defs>
<filter id="filter0_i" x="0" y="0" width="19.3846" height="28" filterUnits="userSpaceOnUse" color-interpolation-filters="sRGB">
<feFlood flood-opacity="0" result="BackgroundImageFix"/>
<feBlend mode="normal" in="SourceGraphic" in2="BackgroundImageFix" result="shape"/>
<feColorMatrix in="SourceAlpha" type="matrix" values="0 0 0 0 0 0 0 0 0 0 0 0 0 0 0 0 0 0 127 0" result="hardAlpha"/>
<feOffset dy="4"/>
<feGaussianBlur stdDeviation="2"/>
<feComposite in2="hardAlpha" operator="arithmetic" k2="-1" k3="1"/>
<feColorMatrix type="matrix" values="0 0 0 0 0 0 0 0 0 0 0 0 0 0 0 0 0 0 0.25 0"/>
<feBlend mode="normal" in2="shape" result="effect1_innerShadow"/>
</filter>
</defs>
</svg>
