<svg width="57" height="34" viewBox="0 0 57 27" fill="none" xmlns="http://www.w3.org/2000/svg">
<path d="M8.56 5.1C8.3 6.66 8.03 8.35 7.75 10.17C7.47 11.99 7.27 13.83 7.15 15.69C7.03 17.53 7.02 19.34 7.12 21.12C7.22 22.88 7.51 24.48 7.99 25.92C8.07 26.14 8.08 26.33 8.02 26.49C7.96 26.65 7.87 26.76 7.75 26.82C7.63 26.86 7.5 26.85 7.36 26.79C7.22 26.73 7.1 26.6 7 26.4C6.54 25.46 6.17 24.39 5.89 23.19C5.61 21.97 5.4 20.7 5.26 19.38C5.12 18.06 5.05 16.72 5.05 15.36C5.05 13.98 5.11 12.65 5.23 11.37C5.35 10.09 5.52 8.9 5.74 7.8C5.96 6.68 6.22 5.72 6.52 4.92C6.58 4.74 6.65 4.53 6.73 4.29C6.83 4.05 6.94 3.84 7.06 3.66C7.18 3.46 7.32 3.31 7.48 3.21C7.66 3.09 7.87 3.06 8.11 3.12C8.31 3.16 8.45 3.26 8.53 3.42C8.61 3.58 8.65 3.77 8.65 3.99C8.67 4.19 8.66 4.39 8.62 4.59C8.6 4.79 8.58 4.96 8.56 5.1ZM16.48 2.64C15.22 2.52 13.96 2.46 12.7 2.46C11.44 2.46 10.19 2.5 8.95 2.58C7.73 2.64 6.53 2.73 5.35 2.85C4.17 2.95 3.03 3.06 1.93 3.18C1.57 3.22 1.31 3.2 1.15 3.12C0.99 3.02 0.91 2.9 0.91 2.76C0.91 2.62 0.98 2.49 1.12 2.37C1.28 2.23 1.5 2.14 1.78 2.1C2.5 2 3.43 1.9 4.57 1.8C5.71 1.7 6.92 1.63 8.2 1.59C9.5 1.55 10.82 1.55 12.16 1.59C13.5 1.63 14.74 1.74 15.88 1.92C16.04 1.96 16.19 2.02 16.33 2.1C16.47 2.18 16.52 2.36 16.48 2.64ZM12.3334 14.52C12.5134 14.32 12.7534 14.1 13.0534 13.86C13.3734 13.6 13.6934 13.38 14.0134 13.2C14.3534 13.02 14.6734 12.92 14.9734 12.9C15.2934 12.86 15.5434 12.96 15.7234 13.2C15.9634 13.48 16.1734 13.74 16.3534 13.98C16.5534 14.22 16.7434 14.43 16.9234 14.61C17.1234 14.77 17.3234 14.88 17.5234 14.94C17.7234 15 17.9434 14.97 18.1834 14.85C18.4434 14.73 18.6234 14.73 18.7234 14.85C18.8234 14.97 18.7134 15.1 18.3934 15.24C17.8534 15.48 17.3734 15.51 16.9534 15.33C16.5534 15.15 16.1134 14.81 15.6334 14.31C15.2934 13.99 14.9534 13.87 14.6134 13.95C14.2734 14.01 13.9434 14.19 13.6234 14.49C13.3034 14.79 12.9934 15.17 12.6934 15.63C12.4134 16.07 12.1634 16.53 11.9434 17.01C11.7434 17.47 11.5734 17.91 11.4334 18.33C11.3134 18.73 11.2534 19.03 11.2534 19.23C11.2134 19.45 11.1334 19.61 11.0134 19.71C10.9134 19.81 10.7934 19.85 10.6534 19.83C10.5134 19.81 10.3834 19.73 10.2634 19.59C10.1434 19.43 10.0734 19.2 10.0534 18.9C9.97344 18.28 9.93344 17.62 9.93344 16.92C9.91344 16.2 9.95344 15.5 10.0534 14.82C10.1734 14.12 10.3434 13.47 10.5634 12.87C10.8034 12.25 11.1234 11.74 11.5234 11.34C11.7034 11.14 11.9034 11.04 12.1234 11.04C12.3634 11.04 12.5834 11.1 12.7834 11.22C12.9834 11.34 13.1434 11.5 13.2634 11.7C13.3834 11.9 13.4234 12.1 13.3834 12.3C13.3634 12.42 13.3034 12.57 13.2034 12.75C13.1234 12.93 13.0234 13.12 12.9034 13.32C12.8034 13.52 12.6934 13.73 12.5734 13.95C12.4734 14.15 12.3934 14.34 12.3334 14.52ZM12.9934 10.41C12.5534 10.23 12.1334 10.18 11.7334 10.26C11.3534 10.34 10.9634 10.58 10.5634 10.98C10.6434 10.64 10.7934 10.38 11.0134 10.2C11.2334 10 11.4634 9.88 11.7034 9.84C11.9434 9.78 12.1834 9.8 12.4234 9.9C12.6634 10 12.8534 10.17 12.9934 10.41ZM23.3538 18.72C23.1138 19.06 22.8338 19.38 22.5138 19.68C22.2138 19.98 21.8838 20.23 21.5238 20.43C21.1638 20.61 20.7938 20.72 20.4138 20.76C20.0538 20.78 19.7038 20.68 19.3638 20.46C18.7438 20.06 18.3537 19.52 18.1937 18.84C18.0137 18.14 17.9837 17.41 18.1037 16.65C18.2037 15.89 18.4138 15.16 18.7338 14.46C19.0738 13.74 19.4438 13.16 19.8438 12.72C20.1238 12.42 20.4238 12.18 20.7438 12C21.0838 11.82 21.4838 11.73 21.9438 11.73C22.4438 11.73 22.8538 11.89 23.1738 12.21C23.5138 12.51 23.6738 12.91 23.6538 13.41C23.6538 13.71 23.5638 14.05 23.3838 14.43C23.2238 14.81 22.9938 15.17 22.6938 15.51C22.4138 15.85 22.0838 16.15 21.7038 16.41C21.3438 16.65 20.9538 16.78 20.5338 16.8C20.2738 17.64 20.2038 18.3 20.3237 18.78C20.4438 19.24 20.6538 19.53 20.9538 19.65C21.2538 19.77 21.5938 19.73 21.9738 19.53C22.3538 19.31 22.6638 18.93 22.9038 18.39C22.9438 18.27 23.0038 18.2 23.0838 18.18C23.1638 18.16 23.2338 18.18 23.2938 18.24C23.3538 18.28 23.3938 18.35 23.4138 18.45C23.4338 18.53 23.4138 18.62 23.3538 18.72ZM20.8038 16.2C21.1438 16.06 21.4738 15.84 21.7938 15.54C22.1338 15.24 22.4038 14.92 22.6038 14.58C22.8238 14.24 22.9538 13.92 22.9938 13.62C23.0538 13.3 22.9938 13.06 22.8138 12.9C22.6338 13 22.4238 13.18 22.1838 13.44C21.9638 13.68 21.7538 13.96 21.5538 14.28C21.3738 14.58 21.2038 14.91 21.0438 15.27C20.9038 15.61 20.8238 15.92 20.8038 16.2ZM19.4538 11.82C19.5338 11.58 19.6938 11.37 19.9338 11.19C20.1938 10.99 20.4838 10.84 20.8038 10.74C21.1238 10.62 21.4538 10.57 21.7938 10.59C22.1338 10.59 22.4338 10.66 22.6938 10.8C22.1738 10.8 21.6238 10.89 21.0438 11.07C20.4638 11.23 19.9338 11.48 19.4538 11.82ZM35.9212 15.12C35.7812 15.48 35.6312 15.86 35.4712 16.26C35.3312 16.64 35.1612 17 34.9612 17.34C34.7612 17.66 34.5312 17.94 34.2712 18.18C34.0312 18.42 33.7512 18.57 33.4312 18.63C33.0712 18.71 32.7312 18.62 32.4112 18.36C32.0912 18.08 31.8612 17.69 31.7212 17.19C31.6212 16.85 31.5512 16.47 31.5112 16.05C31.4912 15.63 31.4812 15.16 31.4812 14.64C31.4812 13.96 31.4012 13.6 31.2412 13.56C31.0812 13.52 30.7712 13.82 30.3112 14.46C29.6912 15.3 29.0812 16.15 28.4812 17.01C27.9012 17.85 27.3512 18.72 26.8312 19.62C26.7112 19.84 26.5612 20.01 26.3812 20.13C26.2012 20.25 25.9812 20.29 25.7212 20.25C25.3212 20.21 25.0312 20.05 24.8512 19.77C24.6912 19.49 24.5912 19.14 24.5512 18.72C24.5112 18.26 24.5312 17.73 24.6112 17.13C24.6712 16.53 24.7812 15.94 24.9412 15.36C25.1012 14.76 25.2912 14.2 25.5112 13.68C25.7512 13.14 26.0012 12.71 26.2612 12.39C26.4012 12.23 26.5712 12.13 26.7712 12.09C26.9912 12.05 27.1912 12.07 27.3712 12.15C27.5712 12.21 27.7212 12.31 27.8212 12.45C27.9412 12.59 27.9712 12.76 27.9112 12.96C27.6312 13.74 27.3112 14.59 26.9512 15.51C26.5912 16.41 26.3712 17.26 26.2912 18.06C26.2512 18.34 26.2812 18.52 26.3812 18.6C26.4812 18.66 26.6412 18.56 26.8612 18.3C27.1212 17.98 27.3912 17.6 27.6712 17.16C27.9712 16.72 28.2712 16.27 28.5712 15.81C28.8712 15.35 29.1712 14.9 29.4712 14.46C29.7712 14.02 30.0412 13.65 30.2812 13.35C30.6412 12.95 30.9612 12.71 31.2412 12.63C31.5412 12.53 31.7912 12.56 31.9912 12.72C32.2112 12.86 32.3712 13.11 32.4712 13.47C32.5712 13.81 32.6112 14.21 32.5912 14.67C32.5712 15.07 32.5512 15.46 32.5312 15.84C32.5312 16.2 32.5712 16.57 32.6512 16.95C32.7912 17.63 33.0012 17.98 33.2812 18C33.5812 18.02 33.8812 17.88 34.1812 17.58C34.4812 17.26 34.7612 16.85 35.0212 16.35C35.3012 15.85 35.4912 15.41 35.5912 15.03C35.6512 14.91 35.7312 14.86 35.8312 14.88C35.9312 14.9 35.9612 14.98 35.9212 15.12ZM24.7012 20.97C25.2012 21.13 25.6912 21.16 26.1712 21.06C26.6512 20.94 27.0612 20.71 27.4012 20.37C27.3412 20.63 27.2012 20.86 26.9812 21.06C26.7812 21.26 26.5412 21.4 26.2612 21.48C26.0012 21.56 25.7212 21.57 25.4212 21.51C25.1412 21.43 24.9012 21.25 24.7012 20.97ZM41.8117 13.56C41.9517 11.54 42.2217 9.53 42.6217 7.53C43.0217 5.51 43.6917 3.51 44.6317 1.53C44.9117 1.13 45.1917 0.869999 45.4717 0.749998C45.7717 0.629999 46.0217 0.609999 46.2217 0.689999C46.4417 0.769999 46.5917 0.949999 46.6717 1.23C46.7517 1.49 46.7217 1.81 46.5817 2.19C45.4617 5.35 44.5917 8.58 43.9717 11.88C43.3517 15.18 43.0417 18.47 43.0417 21.75C43.0417 21.91 43.0217 22.06 42.9817 22.2C42.9617 22.34 42.8617 22.43 42.6817 22.47C42.5217 22.51 42.3817 22.47 42.2617 22.35C42.1617 22.21 42.0717 22.04 41.9917 21.84C41.8517 21.48 41.7417 21.1 41.6617 20.7C41.6017 20.28 41.5617 19.87 41.5417 19.47C41.5217 19.07 41.5117 18.68 41.5117 18.3C41.5317 17.9 41.5417 17.54 41.5417 17.22C41.2017 17.86 40.8317 18.51 40.4317 19.17C40.0317 19.83 39.5617 20.39 39.0217 20.85C38.7217 21.13 38.3917 21.36 38.0317 21.54C37.6917 21.7 37.3517 21.78 37.0117 21.78C36.6917 21.78 36.3917 21.68 36.1117 21.48C35.8317 21.28 35.6117 20.94 35.4517 20.46C35.2317 19.8 35.1717 19.13 35.2717 18.45C35.3517 17.75 35.5517 17.14 35.8717 16.62C36.1717 16.08 36.5317 15.57 36.9517 15.09C37.3917 14.61 37.8617 14.22 38.3617 13.92C38.8817 13.6 39.4317 13.4 40.0117 13.32C40.6117 13.24 41.2117 13.32 41.8117 13.56ZM41.3917 15.75C40.4717 15.77 39.6817 15.98 39.0217 16.38C38.3817 16.76 37.8517 17.27 37.4317 17.91C37.1717 18.33 36.9717 18.77 36.8317 19.23C36.6917 19.67 36.6417 20.04 36.6817 20.34C36.7217 20.62 36.8817 20.78 37.1617 20.82C37.4617 20.84 37.9217 20.63 38.5417 20.19C39.2217 19.61 39.7717 18.95 40.1917 18.21C40.6317 17.45 41.0317 16.63 41.3917 15.75ZM37.4317 13.32C37.5117 13.06 37.6717 12.83 37.9117 12.63C38.1717 12.41 38.4617 12.25 38.7817 12.15C39.1017 12.03 39.4317 11.97 39.7717 11.97C40.1117 11.97 40.4217 12.05 40.7017 12.21C40.1617 12.21 39.6017 12.3 39.0217 12.48C38.4417 12.66 37.9117 12.94 37.4317 13.32ZM49.8674 18.72C49.6274 19.06 49.3474 19.38 49.0274 19.68C48.7274 19.98 48.3974 20.23 48.0374 20.43C47.6774 20.61 47.3074 20.72 46.9274 20.76C46.5674 20.78 46.2174 20.68 45.8774 20.46C45.2574 20.06 44.8674 19.52 44.7074 18.84C44.5274 18.14 44.4974 17.41 44.6174 16.65C44.7174 15.89 44.9274 15.16 45.2474 14.46C45.5874 13.74 45.9574 13.16 46.3574 12.72C46.6374 12.42 46.9374 12.18 47.2574 12C47.5974 11.82 47.9974 11.73 48.4574 11.73C48.9574 11.73 49.3674 11.89 49.6874 12.21C50.0274 12.51 50.1874 12.91 50.1674 13.41C50.1674 13.71 50.0774 14.05 49.8974 14.43C49.7374 14.81 49.5074 15.17 49.2074 15.51C48.9274 15.85 48.5974 16.15 48.2174 16.41C47.8574 16.65 47.4674 16.78 47.0474 16.8C46.7874 17.64 46.7174 18.3 46.8374 18.78C46.9574 19.24 47.1674 19.53 47.4674 19.65C47.7674 19.77 48.1074 19.73 48.4874 19.53C48.8674 19.31 49.1774 18.93 49.4174 18.39C49.4574 18.27 49.5174 18.2 49.5974 18.18C49.6774 18.16 49.7474 18.18 49.8074 18.24C49.8674 18.28 49.9074 18.35 49.9274 18.45C49.9474 18.53 49.9274 18.62 49.8674 18.72ZM47.3174 16.2C47.6574 16.06 47.9874 15.84 48.3074 15.54C48.6474 15.24 48.9174 14.92 49.1174 14.58C49.3374 14.24 49.4674 13.92 49.5074 13.62C49.5674 13.3 49.5074 13.06 49.3274 12.9C49.1474 13 48.9374 13.18 48.6974 13.44C48.4774 13.68 48.2674 13.96 48.0674 14.28C47.8874 14.58 47.7174 14.91 47.5574 15.27C47.4174 15.61 47.3374 15.92 47.3174 16.2ZM45.9674 11.82C46.0474 11.58 46.2074 11.37 46.4474 11.19C46.7074 10.99 46.9974 10.84 47.3174 10.74C47.6374 10.62 47.9674 10.57 48.3074 10.59C48.6474 10.59 48.9474 10.66 49.2074 10.8C48.6874 10.8 48.1374 10.89 47.5574 11.07C46.9774 11.23 46.4474 11.48 45.9674 11.82ZM56.2248 18.72C55.9848 19.06 55.7048 19.38 55.3848 19.68C55.0848 19.98 54.7548 20.23 54.3948 20.43C54.0348 20.61 53.6648 20.72 53.2848 20.76C52.9248 20.78 52.5748 20.68 52.2348 20.46C51.6148 20.06 51.2248 19.52 51.0648 18.84C50.8848 18.14 50.8548 17.41 50.9748 16.65C51.0748 15.89 51.2848 15.16 51.6048 14.46C51.9448 13.74 52.3148 13.16 52.7148 12.72C52.9948 12.42 53.2948 12.18 53.6148 12C53.9548 11.82 54.3548 11.73 54.8148 11.73C55.3148 11.73 55.7248 11.89 56.0448 12.21C56.3848 12.51 56.5448 12.91 56.5248 13.41C56.5248 13.71 56.4348 14.05 56.2548 14.43C56.0948 14.81 55.8648 15.17 55.5648 15.51C55.2848 15.85 54.9548 16.15 54.5748 16.41C54.2148 16.65 53.8248 16.78 53.4048 16.8C53.1448 17.64 53.0748 18.3 53.1948 18.78C53.3148 19.24 53.5248 19.53 53.8248 19.65C54.1248 19.77 54.4648 19.73 54.8448 19.53C55.2248 19.31 55.5348 18.93 55.7748 18.39C55.8148 18.27 55.8748 18.2 55.9548 18.18C56.0348 18.16 56.1048 18.18 56.1648 18.24C56.2248 18.28 56.2648 18.35 56.2848 18.45C56.3048 18.53 56.2848 18.62 56.2248 18.72ZM53.6748 16.2C54.0148 16.06 54.3448 15.84 54.6648 15.54C55.0048 15.24 55.2748 14.92 55.4748 14.58C55.6948 14.24 55.8248 13.92 55.8648 13.62C55.9248 13.3 55.8648 13.06 55.6848 12.9C55.5048 13 55.2948 13.18 55.0548 13.44C54.8348 13.68 54.6248 13.96 54.4248 14.28C54.2448 14.58 54.0748 14.91 53.9148 15.27C53.7748 15.61 53.6948 15.92 53.6748 16.2ZM52.3248 11.82C52.4048 11.58 52.5648 11.37 52.8048 11.19C53.0648 10.99 53.3548 10.84 53.6748 10.74C53.9948 10.62 54.3248 10.57 54.6648 10.59C55.0048 10.59 55.3048 10.66 55.5648 10.8C55.0448 10.8 54.4948 10.89 53.9148 11.07C53.3348 11.23 52.8048 11.48 52.3248 11.82Z" fill="black"/>
</svg>
